<svg width="20" height="20" fill="none" xmlns="http://www.w3.org/2000/svg"><path d="M.095 16.367v-1.933c0-.485.14-.938.422-1.36.281-.422.66-.75 1.136-.983 1.105-.532 2.21-.93 3.317-1.196a14.177 14.177 0 013.32-.398 12.64 12.64 0 012.59.266c.012.88.213 1.702.604 2.469.39.767.926 1.42 1.607 1.96v1.175H.095zm17.202 2.8l-1.366-1.359v-4.21a3.074 3.074 0 01-1.63-1.13 3.082 3.082 0 01-.629-1.904c0-.879.31-1.63.93-2.25a3.054 3.054 0 012.245-.933c.877 0 1.621.311 2.234.933.612.622.919 1.373.919 2.253 0 .683-.19 1.284-.567 1.804a3.217 3.217 0 01-1.46 1.128l1.126 1.13-1.351 1.36 1.35 1.362-1.8 1.816zM8.291 7.877c-.966 0-1.793-.344-2.481-1.034a3.396 3.396 0 01-1.032-2.488c0-.968.344-1.797 1.032-2.487.688-.69 1.515-1.035 2.48-1.035.967 0 1.794.345 2.482 1.035a3.396 3.396 0 011.031 2.487 3.4 3.4 0 01-1.031 2.488c-.688.69-1.515 1.035-2.481 1.035zm8.556 3.139a.847.847 0 00.632-.281.906.906 0 00.269-.645.868.868 0 00-.27-.633.863.863 0 00-.63-.27.9.9 0 00-.644.27.851.851 0 00-.28.633.89.89 0 00.28.645c.187.187.401.28.643.28z" fill="#ABB5BE"/></svg>