<svg width="124" height="35" fill="none" xmlns="http://www.w3.org/2000/svg"><path opacity=".2" fill-rule="evenodd" clip-rule="evenodd" d="M14.187.22c-.259.024-.558.09-.906.202-.232.075-2.652.91-3.004 1.037-.962.347-1.634.676-2.365 1.162-.355.235-.643.45-.946.708a10.374 10.374 0 00-1.842 2.055c-.221.337-.294.489-.463.97-.153.444-.236.628-.371.827-.127.188-.22.273-.564.506-.324.22-.447.33-.546.487-.072.114-.115.233-.198.549-.125.472-.161.53-.641 1.01a6.087 6.087 0 00-.874 1.068c-.392.584-.645 1.126-.786 1.682-.08.314-.121.614-.187 1.34-.07.76-.083.855-.272 1.792-.194.956-.222 1.18-.222 1.69 0 .364.009.483.062.834.07.46.175.866.395 1.554.241.752.381 1.314.506 2.051.097.573.12.82.12 1.376 0 .766.043 1.113.191 1.56.143.43.328.81.719 1.468.865 1.459 2.008 2.958 3.014 3.954.358.355.583.546.862.731.261.175.418.247.779.364.479.155.754.265 1.025.416.063.036.282.173.487.307.717.467 1.128.704 1.816 1.045.378.188.412.208.673.404.254.19.33.233.676.38.505.215.824.366 1.324.629.6.313.963.413 2.111.577.43.06.535.06.966-.002.258-.038.288-.04.545-.035.582.011 1.365.003 1.759-.018a37.97 37.97 0 011.473-.032c1.008-.01 1.19-.016 1.555-.05.864-.08 1.817-.348 2.899-.813.744-.322 1.79-.844 2.353-1.177a4.61 4.61 0 00.605-.441c.495-.407.597-.468 1.204-.736.448-.196.718-.34 1.168-.616 1.113-.688 1.902-1.522 2.315-2.45a4.76 4.76 0 00.273-.86c.038-.169.095-.38.125-.47.082-.246.14-.346.401-.671.264-.33.347-.47.604-1.014l.313-.645c.381-.775.434-.932.408-1.212-.023-.242-.028-.408-.015-.479.031-.16.13-.354.4-.786.194-.308.314-.548.388-.774.158-.479.2-1.055.1-1.44-.058-.23-.128-.362-.266-.498-.22-.217-.483-.277-.994-.227-.28.027-.378.022-.467-.026-.094-.05-.139-.11-.146-.194-.008-.095.028-.16.158-.295.177-.181.284-.263.681-.508.146-.091.321-.203.388-.25.152-.108.334-.28.43-.407.087-.115.23-.395.283-.56.09-.272.134-.57.12-.809-.008-.154-.026-.217-.116-.415-.107-.233-.113-.333-.045-.667.039-.19.044-.232.039-.334a.938.938 0 00-.096-.376 1.119 1.119 0 00-.379-.455 3.355 3.355 0 00-.294-.156c-.189-.091-.232-.117-.293-.177-.086-.086-.117-.166-.107-.273.012-.14.075-.24.338-.528.193-.211.234-.322.224-.602-.008-.217-.043-.373-.176-.769-.328-.976-.639-1.542-1.096-1.996-.375-.373-.732-.577-1.287-.735a2.043 2.043 0 01-.226-.075c-.143-.073-.218-.2-.295-.498-.047-.179-.08-.427-.111-.827-.041-.522-.077-.732-.17-1.001a1.611 1.611 0 00-.577-.805 10.337 10.337 0 01-.597-.523c-.51-.467-.665-.577-1.276-.914a10.695 10.695 0 01-1.34-.838c-.626-.442-.761-.514-1.334-.722-.617-.222-.718-.286-.964-.608-.25-.328-.317-.392-.566-.541C23.405 1.24 22.62 1 21.695.902a19.31 19.31 0 00-1.077-.075c-.785-.041-1.236-.083-1.54-.14a2.064 2.064 0 00-.578.019c-.324.05-.473.065-.668.066-.444 0-.78-.055-1.7-.281-.302-.075-.63-.152-.731-.172C14.93.223 14.529.19 14.187.22z" fill="#0A5AD2"/><path opacity=".5" fill-rule="evenodd" clip-rule="evenodd" d="M14.275.849a4.106 4.106 0 00-.872.194c-.222.072-2.549.875-2.887.997-.925.334-1.572.65-2.274 1.117a9.17 9.17 0 00-.91.682 9.977 9.977 0 00-1.77 1.976c-.214.324-.284.47-.446.934-.148.426-.228.603-.357.795-.122.18-.212.262-.542.487-.312.211-.43.316-.525.467-.07.11-.111.225-.19.528-.121.455-.156.51-.618.972-.353.353-.54.58-.84 1.027-.377.563-.62 1.084-.755 1.619-.077.301-.117.59-.18 1.287-.067.733-.08.824-.262 1.725-.186.92-.213 1.135-.213 1.625 0 .35.008.465.06.803.067.442.167.833.38 1.494.231.724.366 1.265.486 1.973.093.55.115.788.115 1.324 0 .737.041 1.07.184 1.5.137.415.316.78.69 1.412.833 1.403 1.932 2.846 2.899 3.804.344.341.56.524.829.703.251.167.402.237.749.35.46.148.725.254.986.4.06.034.271.166.468.295.69.449 1.084.677 1.746 1.005.364.181.396.2.647.39.244.181.317.222.65.364.486.207.792.352 1.273.605.577.301.927.397 2.03.555.414.058.515.058.93-.002.247-.037.276-.038.523-.033.56.01 1.312.002 1.691-.018a38.65 38.65 0 011.417-.03c.97-.01 1.144-.016 1.494-.048.832-.078 1.748-.335 2.788-.783.716-.31 1.722-.812 2.262-1.132a4.31 4.31 0 00.583-.424c.476-.391.574-.45 1.157-.708.431-.189.69-.327 1.123-.593 1.07-.661 1.829-1.463 2.227-2.355.1-.225.184-.493.262-.827.037-.163.091-.366.12-.454.079-.236.135-.332.386-.645.253-.317.333-.451.58-.975l.3-.62c.368-.745.419-.896.394-1.166-.023-.233-.028-.392-.014-.46.03-.154.125-.34.384-.757.186-.296.301-.527.373-.744.152-.46.192-1.015.096-1.385-.056-.222-.123-.348-.256-.48-.21-.208-.464-.266-.956-.218-.269.026-.363.022-.449-.024-.09-.049-.133-.107-.14-.187-.007-.091.027-.155.152-.284.17-.174.273-.252.655-.489.14-.087.309-.195.373-.24.146-.104.321-.269.414-.392a2.4 2.4 0 00.272-.537 2.26 2.26 0 00.115-.779c-.008-.149-.025-.209-.112-.4-.102-.224-.108-.32-.043-.64.037-.184.042-.224.037-.322a.904.904 0 00-.091-.361 1.075 1.075 0 00-.365-.439 3.23 3.23 0 00-.283-.15c-.181-.087-.223-.112-.281-.17-.084-.083-.113-.16-.104-.262.012-.135.073-.23.325-.508.186-.203.225-.31.216-.58-.007-.208-.042-.358-.17-.739-.315-.939-.614-1.483-1.053-1.92-.36-.358-.704-.555-1.237-.707a1.929 1.929 0 01-.218-.072c-.137-.07-.21-.191-.284-.479-.045-.172-.077-.41-.107-.796-.04-.502-.074-.704-.163-.963a1.55 1.55 0 00-.555-.773 9.894 9.894 0 01-.574-.504c-.49-.449-.64-.555-1.226-.879A10.28 10.28 0 0126.504 4c-.601-.426-.73-.495-1.282-.695-.593-.214-.69-.275-.927-.585-.24-.315-.305-.377-.544-.52-.612-.37-1.367-.6-2.256-.695-.26-.028-.446-.04-1.036-.072-.755-.04-1.189-.08-1.482-.136a1.984 1.984 0 00-.555.019 3.92 3.92 0 01-.643.063c-.426 0-.75-.053-1.634-.27-.29-.072-.605-.147-.703-.166C14.99.851 14.604.82 14.275.85z" fill="#0A4BB4"/><path fill-rule="evenodd" clip-rule="evenodd" d="M14.366 1.408a3.985 3.985 0 00-.846.188c-.216.07-2.474.85-2.803.968-.897.324-1.525.631-2.207 1.085-.331.22-.6.42-.883.661A9.684 9.684 0 005.91 6.23c-.207.314-.275.456-.432.906-.144.414-.221.586-.347.772-.118.175-.206.254-.526.472-.303.206-.417.308-.51.454-.067.107-.107.218-.184.513-.117.442-.15.495-.6.943a5.687 5.687 0 00-.814.998c-.366.545-.602 1.051-.734 1.57-.074.293-.113.574-.174 1.25-.065.712-.078.8-.254 1.675-.18.892-.207 1.101-.207 1.577 0 .34.008.452.057.78.066.429.163.808.37 1.45.224.703.355 1.228.472 1.916.09.534.11.765.11 1.284.002.716.041 1.04.18 1.457.133.402.306.757.67 1.37.808 1.363 1.875 2.763 2.813 3.693.334.332.544.51.804.683.244.162.391.23.727.339.448.145.704.248.957.389.06.033.264.162.454.287.67.435 1.053.657 1.696.976.352.175.383.193.627.377.237.176.308.217.631.354.472.2.769.342 1.236.587.559.293.899.386 1.97.54.401.056.5.056.902-.003a2.17 2.17 0 01.508-.032 28.2 28.2 0 001.641-.017c.25-.014.696-.023 1.375-.03.94-.01 1.11-.015 1.45-.046.807-.076 1.697-.326 2.706-.76.694-.3 1.671-.788 2.196-1.099a4.17 4.17 0 00.565-.412c.462-.38.557-.437 1.123-.687.418-.183.67-.317 1.09-.575 1.039-.643 1.775-1.421 2.161-2.287.097-.218.18-.478.254-.803a6.77 6.77 0 01.117-.44c.076-.23.13-.323.374-.627.247-.307.324-.438.564-.946.084-.173.214-.445.292-.602.356-.723.405-.87.381-1.132-.022-.226-.027-.38-.014-.447.029-.15.122-.33.373-.734.18-.288.293-.511.362-.723.148-.447.186-.985.094-1.344-.055-.215-.12-.338-.249-.465-.204-.203-.45-.26-.928-.212-.26.025-.352.02-.435-.024-.088-.047-.13-.104-.137-.182-.007-.088.027-.15.148-.275.165-.17.265-.245.636-.475.136-.084.3-.189.361-.234.143-.1.313-.26.403-.38.08-.106.214-.367.263-.521a2.17 2.17 0 00.112-.756c-.008-.144-.024-.203-.108-.388-.1-.217-.106-.31-.042-.622.036-.178.04-.217.036-.312a.875.875 0 00-.09-.351 1.044 1.044 0 00-.353-.426 3.14 3.14 0 00-.275-.145c-.175-.085-.216-.11-.273-.165-.08-.08-.11-.155-.1-.255.011-.13.07-.224.315-.493.18-.197.219-.3.21-.562-.007-.203-.04-.349-.164-.718-.307-.912-.597-1.44-1.023-1.864-.35-.348-.683-.539-1.201-.687a1.87 1.87 0 01-.212-.07c-.132-.067-.203-.185-.275-.464a4.728 4.728 0 01-.104-.773c-.038-.487-.071-.683-.158-.935a1.505 1.505 0 00-.538-.75 9.611 9.611 0 01-.558-.49c-.476-.435-.62-.538-1.19-.853a9.98 9.98 0 01-1.251-.782c-.584-.413-.71-.48-1.245-.674-.576-.208-.67-.267-.9-.568-.233-.306-.295-.366-.527-.506-.594-.357-1.327-.582-2.19-.674a18.017 18.017 0 00-1.006-.07c-.732-.039-1.153-.078-1.437-.132a1.925 1.925 0 00-.539.019 3.8 3.8 0 01-.624.062c-.414 0-.728-.052-1.587-.263-.28-.07-.587-.142-.681-.16-.44-.09-.814-.121-1.133-.092z" fill="#0A5AD2"/><g clip-path="url(#clip0_4003_11969)" fill-rule="evenodd" clip-rule="evenodd" fill="#0A5AD2"><path d="M85.03 8.5c-.09 0-.18.09-.27.09-.18.09-.27.09-.72.09-.81.09-1.35.27-2.16.63-.45.18-1.17.54-1.44.72-.9.63-1.44 1.08-1.89 1.62-.09.09-.18.27-.27.27-.09.09-.54.72-.72 1.08-.09.18-.18.27-.27.36-.09.09-.18.36-.27.54-.09.09-.09.36-.18.45-.09.18-.18.36-.18.45-.09.18-.18.99-.27 1.17 0 .36-.09.54-.09.63-.09.27-.09 1.17 0 1.53v.36c0 .27 0 .36.09.63 0 .18.09.36.09.45.09.45.36 1.17.54 1.53 0 .09.09.18.09.27.09.18.18.45.36.72.09.09.18.27.18.36 0 0 .18.18.27.36.09.09.27.27.27.36.09.09.18.18.18.27.09.09.18.27.27.36l.36.36.27.27c.09.09.18.18.27.18.09.09.18.18.27.18.09.09.27.18.36.18.18.18.54.36.81.45.09 0 .18.09.27.09.09 0 .27.18.36.18 0 0 .18.09.27.09.27.18.45.18.81.27.18 0 .45.09.54.09.18 0 .36.09.9.09h.81c.63 0 .72 0 1.53-.09.54-.09.63-.09.99-.18.09 0 .27-.09.36-.09.45-.18.63-.27 1.17-.45.36-.18.63-.36.72-.45.18-.09.36-.27.54-.36.36-.27.45-.27.54-.45.09-.09.18-.27.45-.45.09-.09.54-.54.63-.72 0 0 .09-.09.09-.18s.09-.09.09-.18c.18-.18.27-.45.36-.54 0-.09.09-.18.09-.18.09-.09.18-.18.27-.54.09-.18.18-.45.18-.45 0-.09.09-.18.09-.27 0-.09.09-.27.09-.27.09-.09.09-.18.09-.27 0-.09.09-.36.09-.54.09-.45.18-.81.18-1.26v-1.8c0-.09 0-.18-.09-.36 0-.09-.09-.36-.09-.54 0-.18-.09-.36-.09-.54 0-.09-.09-.27-.09-.36-.09-.18-.36-.99-.54-1.26-.27-.45-.72-1.17-.81-1.17l-.09-.09c0-.09-.18-.18-.18-.27-.18-.18-.36-.36-.36-.45 0-.09-.09-.09-.27-.18-.18-.09-.18-.09-.27-.18-.09-.18-.18-.18-.27-.18-.09 0-.09-.09-.18-.18s-.09-.18-.63-.45c-.9-.54-1.8-.9-2.52-1.08h-.18s.09 0 .18.09c.63.18 1.44.54 1.62.72 0 0 .09.09.18.09s.09.09.09.09l.09.09c.09 0 .18.18.18.18s-.09 0-.18-.09c-.81-.45-2.07-.9-2.97-1.08.18-.36.18-.36.18-.45 0 0 0-.09-.09-.09l-.54-.18c-.18-.09-.36-.09-.54-.09zm.18 3.6h.99c.27 0 .36.09.72.18s.63.27.99.45c.54.36.9.63 1.26.99.09.09.27.36.36.45.18.27.45.54.54.72 0 .09.09.27.18.36.18.36.27.45.27.72.09.27.18.72.27 1.08l.09.36v.45c0 .54 0 .63-.18 1.17 0 .18-.09.36-.09.45 0 .09 0 .18-.09.27-.09.18-.09.18-.18.45s-.27.45-.36.72c-.27.45-.63.81-.81.99l-.18.18c-.27.27-.45.36-1.08.72-.54.27-.81.45-1.35.54-.54.09-.63.18-1.17.18-.63 0-1.17-.09-1.53-.09-.27-.09-.45-.09-.99-.36-.36-.18-.9-.45-1.08-.72l-.27-.27c-.18-.18-.45-.36-.72-.81-.36-.54-.63-.9-.81-1.53-.27-.72-.27-1.17-.36-1.98 0-.45 0-.63.09-.9 0-.09.09-.27.09-.36 0-.18 0-.18.09-.27 0-.54 0-.63.09-.81.18-.54.54-1.17 1.08-1.71.18-.27.54-.54.72-.63.09 0 .18-.09.18-.18.27-.18.54-.36 1.08-.54.45-.18.81-.27 1.17-.36.18 0 .63 0 .99.09zM44.35 8.68c-.27 0-.63.09-.72.18l-.09.09c0 .09-.09.09-.18.09s-.18.09-.18.27c-.09.18-.18.54-.18.81v.09l.09.09.09.09v9.81c0 .36 0 .54.18 1.17.18.63.18.81.36 1.08.18.36.27.63.54 1.08.09.18.18.36.27.45.09.18.18.27.27.36.09 0 .18.09.27.27.45.45.72.72.9.81.09 0 .18.09.36.18.09.09.36.18.45.27.09.09.27.09.36.18.27.18.45.18.9.27.18 0 .36.09.45.09.27.09.36.09.63.09h1.53c.45-.09.99-.18 1.44-.27.18 0 .36-.09.45-.09.27-.09.45-.09.72-.36.09-.09.27-.18.45-.27.36-.18.54-.36.72-.54.27-.27.81-.81.9-.99.09-.09.18-.27.27-.36.18-.27.27-.36.36-.45 0-.09.27-.63.45-.99 0-.09.09-.18.09-.27 0-.09 0-.18.09-.27 0-.09.09-.18.09-.27v-.27c0-.09.09-.27.09-.45V12.1c0-1.35 0-1.62.09-1.8.09-.18.09-.27 0-.45-.09-.27-.09-.54-.18-.63 0 0-.09-.09-.18-.09s-.18-.09-.27-.09c-.09-.09-.18-.09-.27-.09H54.7c-.09 0-.27 0-.36.09-.18 0-.27 0-.36.09-.36.27-.45.27-.45.45v.45c0 .09.09.18.09.36v.81c-.09.18-.09.36 0 .54v7.38c-.09 1.44-.09 1.53-.09 1.71-.09.18-.18.45-.36.72-.09.18-.18.36-.27.45-.09.18-.27.36-.45.54-.09.09-.27.18-.36.27-.09.09-.18.18-.36.18-.54.27-1.35.45-1.98.36-.27 0-.72-.09-.9-.09-.09 0-.72-.36-.9-.45-.36-.27-.72-.63-.9-.99-.09-.09-.27-.54-.36-.72-.09-.09-.18-.36-.18-.63-.09-.36-.09-.54-.09-.81v-7.47c0-.45 0-.54-.09-.63v-.63c-.09-.36-.09-.54 0-.63 0-.09.09-.09.18-.09l.09.09v.63c0 .09 0 .36.09.63 0-.99 0-1.08.18-1.26v-.09c0-.27-.36-.9-.63-1.17-.09-.09-.09-.09-.18-.09s-.09 0-.18-.09-.18-.09-.36-.09h-.27c-.18-.18-.36-.18-.9-.09zm12.51 1.62v.45c0 .18 0 .9-.09 1.8v.63c0 .45 0 .27-.09-.54v-2.43c0-.09.09-.18.09-.18.09 0 .09.09.09.27zm9.09-1.62h-.36c-.27 0-.54 0-.81.09-.09 0-.18.09-.27.09-.18 0-.81.27-1.08.45-.36.18-.72.45-.99.72-.09.09-.36.36-.45.54 0 0-.09.09-.09.18-.09.09-.18.36-.27.45 0 .09-.09.18-.09.18-.09.09-.09.18-.09.18 0 .09-.09.63-.18.81 0 .36 0 1.08.09 1.35s.36.9.36.99c.18 0 .18.09.18.18.09.18.36.54.54.72.09.09.18.18.18.27l.27.27c.09.09.27.27.27.36l.18.18.09.09-.27.18c-.27.18-.63.36-.81.54-.09 0-.18.09-.18.18l-.81.81c-.18.18-.45.54-.54.63 0 .09-.09.18-.18.27-.18.27-.27.54-.45 1.08 0 .18-.09.36-.09.36 0 .09-.09.45-.09.9 0 .36 0 .36.09.9v.27c0 .18.09.36.18.63.09.09.18.27.18.36.09.18.18.27.36.54s.27.36.27.36l.09.09c.09.09.27.27.45.36.09.09.18.09.18.18.09.09.18.09.72.36.36.18.63.27.63.27h.27c.09 0 .18 0 .27.09.18.09.72.09 1.26.18h.81c.45 0 .63-.09.99-.09.09 0 .18 0 .27-.09.09 0 .18-.09.27-.09.36-.09.45-.09.54-.18h.09c.09 0 .36-.18.63-.27.45-.18.9-.45 1.08-.63.09-.09.18-.09.18-.18.09-.09.27-.18.45-.45l.09-.09s.09.09.18.09l.27.27c.09.09.18.18.27.18 0 .09.09.18.18.27.18.27.18.27.27.45.09.27.18.36.27.45.18.18.27.18.9.27.18 0 .45-.09.72-.27.18-.09.36-.18.45-.18h.09c.09 0 .45-.27.54-.36.09-.09.18-.18.18-.45.09-.36.09-.54 0-.81 0-.09-.09-.18-.09-.27v-.18c0-.09-.09-.09-.36-.18-.36-.18-.45-.18-.72-.45l-.36-.36c-.09 0-.18-.18-.27-.18l-.27-.27-.36-.36s0-.09.09-.09c0 0 .09-.09.09-.18s.09-.18.09-.18c.09-.09.09-.09.09-.18 0 0 .09-.09.09-.18.09-.18.45-.9.54-1.17 0-.09.09-.27.09-.27v-.09s-.09.09-.09.27c-.18.36-.36.72-.54.9-.09.09-.18.27-.18.27v-.09c0-.09 0-.09 0 0l-.09.09s.09-.18.18-.45c.45-.81.72-1.44.72-1.53v-.18l-.09.09c0 .09-.09.09-.09.09v-.36s-.09 0-.09.18c-.18.27-.27.45-.27.45s.09-.18.09-.27c.27-.54.45-.9.45-.99v-.27c0-.09-.09-.09-.09-.09v-.45c0-.09-.09-.09-.09 0-.09.09 0 .09 0 0v-.18c-.09-.09-.09-.09-.09-.18v-.18s-.09.09-.09.18c-.09.18-.18.36-.18.27v-.18h-.54l-.09.09c-.09 0-.09.09-.09.09v.09-.18c0-.09 0-.09-.09-.09h-.09c.09-.09 0-.09-.09 0-.09.18-.18.27-.36.36-.09 0-.09.09-.18.09-.09.09-.18.36-.27.45 0 .09 0 .09-.09.18 0 0-.09.18-.09.27 0 .09-.09.27-.09.36 0 .09-.09.18-.09.18 0 .09-.09.18-.09.18 0 .09-.09.18-.18.36s-.09.27-.09.36l-.09.18s-.36-.27-.54-.45c-.09-.09-.18-.18-.27-.18-.09-.09-.18-.09-.18-.18s-.09-.09-.18-.18l-.36-.36c0-.09-.09-.18-.18-.18l-.36-.36c-.09-.09-.09-.18-.18-.18l-.18-.18-.27-.27-.18-.18s.27-.27.45-.36c.09 0 .18-.09.27-.18.09-.09.18-.18.27-.18.27-.18.45-.45.63-.54l.27-.27c.18-.18.18-.18.27-.36.09-.09.18-.27.18-.36.09-.18.18-.18.27-.45.09-.09.09-.27.18-.36.09-.18.09-.27.18-.45 0-.09 0-.27.09-.45v-.99s0-.18-.09-.18c0-.18-.18-.45-.27-.81-.09-.27-.36-.54-.54-.81l-.18-.18-.18-.18c-.09-.09-.27-.18-.36-.27l-.09-.09s.18-.27 0-.36c-.27-.18-.54-.27-.9-.36-.09 0-.27-.09-.36-.09-.18-.09-.63-.09-.81-.09h-.18c-.18-.18-.27-.18-.45-.18zm.36 2.34c.27 0 .45.09.72.18.18.09.27.09.36.27.18.18.36.45.45.63.09.18.09.36.09.72 0 .27 0 .36-.09.54-.09.27-.09.36-.18.45 0 .09-.09.18-.09.18l-.27.27v.18s-.09.09-.09.18c-.09.09-.27.18-.36.27 0 0-.09.09-.18.09-.09.09-.45.27-.54.36-.09 0-.09 0-.18-.09l-.18-.18c-.18-.09-.27-.18-.45-.45-.09-.09-.27-.27-.36-.45-.27-.09-.36-.18-.45-.27-.18-.27-.18-.36-.27-.72-.09-.36-.09-.63-.09-.81.09-.36.27-.72.45-.81.18-.09.54-.36.72-.36.27-.18.72-.18.99-.18zm-.81 7.83c.18.18.36.36.36.45.09.09.18.27.36.36l.45.45.36.36.27.27c.09.09.27.27.36.45l.72.72c0 .09.09.09.18.18s.18.18.18.27c0 .09-.45.54-.63.63l-.09.09s-.09.09-.27.18c-.09.09-.27.09-.27.18-.09 0-.18.09-.18.09-.09 0-.54.18-.72.18h-.72c-.72 0-.9 0-.99-.09-.18-.09-.45-.18-.54-.27l-.09-.09c-.18-.09-.45-.36-.63-.63s-.36-.72-.36-1.08c-.09-.36 0-.99.18-1.35.18-.36.36-.63.72-1.08.27-.27.99-.81 1.08-.81-.09.18.09.27.27.54zm48.15-2.97c-.54.09-.9.18-1.17.27-.27.09-.54.27-.63.36-.09 0-.09.09-.18.09l-.18.18c-.09.09-.18.27-.27.27-.09.09-.18.18-.18.27 0 .09-.09.09-.09.09v-.09c0-.09 0-.45-.09-.63 0-.09-.09-.18-.18-.27 0 0-.09-.09-.18-.09s-.27-.09-.36-.09c-.36-.18-.36-.18-.63-.18s-.45 0-.54.09c-.27.27-.54.45-.63.72-.09.18-.09.27 0 .36.09.18.18.36.18.54v6.57c-.09.63-.09 1.17-.09 1.44.09.27.27.54.54.63h1.8c.27 0 .45 0 .54-.09.18-.09.27-.27.36-.45v-.45c0-.18-.09-.45-.09-.54 0-.36-.09-3.6 0-4.23 0-.63 0-.63.09-.72.09-.18.18-.27.27-.45.18-.18.27-.18.54-.36.27-.09.27-.09.45-.18h.36v.09c0 .09 0 .09.09.09.09.09.09.09.63 0 .27 0 .36 0 .45-.18.18-.18.18-.18.36-.27.18-.09.27-.18.45-.45s.18-.36.18-.72v-.27s-.09-.09 0-.18c.09-.18-.09-.54-.36-.72-.45-.18-.9-.27-1.26-.27-.63.09-1.26.27-1.62.54-.09-.09-.18 0-.27 0-.18 0 .45-.36.81-.45.27-.09.81-.27.9-.27zm5.76.18c-.36.09-.9.18-1.17.27l-.54.27c-.09 0-.09.09-.18.09-.18.09-.18.09-.45.36s-.36.45-.36.54c0 .09-.09.18-.09.27-.18.27-.27.54-.27.99 0 .36 0 .72.18 1.17.09.36.27.72.45.9.09.09.36.36.45.36.09 0 .18.09.27.18.36.18.63.36 1.35.72.27.09.63.27.9.36.45.18.54.27.72.45.18.27.18.27.18.36 0 .09 0 .18-.09.27 0 .09-.09.18-.18.18-.09.09-.09.09-.27.09-.45.09-.81.09-1.26 0-.45-.09-.99-.36-1.35-.54-.09-.09-.27-.09-.27-.18h-.09l.09.09c.18.18.36.36.54.45.18.09.36.18.18.18s-.72-.27-1.08-.45c-.09-.09-.18-.09-.18-.09v.18s0 .09-.09.09l-.09.09c0 .09 0 .18.09.27.09.09.27.18.36.18-.09 0-.18-.09-.63-.27-.09 0-.18-.09-.18-.09-.09 0-.09-.09-.09 0v.72l.09.09c0 .09.09.09.18.18s.09.09 0 .09l-.09-.09c-.09-.09-.09-.09-.09.09s.18.36.45.54c.36.18.72.36 1.62.54.36.09.45.09.72.09h.72c.36 0 .36 0 .72-.09.63-.09.99-.18 1.35-.36.18-.09.54-.36.72-.45.27-.27.54-.54.63-.72 0-.09.09-.18.09-.27 0-.09.09-.27.18-.36.09-.18.09-.18.09-.54v-.63c-.09-.45-.18-.72-.45-1.17-.18-.18-.27-.36-.45-.45-.09-.09-.18-.09-.27-.18-.09-.09-.18-.09-.18-.18-.09 0-.18-.09-.27-.18-.27-.18-.63-.36-1.08-.54-.81-.27-1.17-.45-1.53-.72-.27-.18-.36-.27-.36-.45 0-.36.36-.63.81-.63.27 0 .81.09 1.08.18.18.09.45.18.45.27.09.09.09.09.27.09h.45s.09 0 .09-.09c0 0 .09-.09.18-.09.18-.09.45-.27.54-.45.09-.18.18-.72.09-.9-.09-.09-.09-.18-.09-.18.09-.09 0-.18 0-.27.18.09.18.09.09 0-.09 0-.18-.09-.18-.18-.09-.09-.18-.09-.54-.18-.54-.09-.99-.18-1.17-.18h-.27c-.54-.09-1.17-.09-1.44-.09zm-22.59.18c-.09 0-.18 0-.27.09h-.18c-.18 0-.18 0-.27.18-.09.18-.18.72-.09 1.08v2.43c0 2.34 0 2.25.09 2.88.27 1.53.99 2.61 2.07 3.15.9.45 2.16.54 3.24.27.36-.09.81-.27 1.17-.54.27-.18.54-.45.72-.63l.09-.09s0 .09.09.18c.09.18.18.63.18.63v-.27l.09.09c0 .09.09.18.09.18 0 .09.09.09.09.09v.09c0 .09 0 .09.09.18h.18c.09 0 .09 0 .09.09s0 .09 0 0l.09-.09h.27c0 .09 0 .09.18 0 .09 0 .09-.09.09-.27v.18c.09 0 .09 0 .09-.18 0-.09.09-.09.09 0v.09s0-.09.09 0c0 0 .09-.36.09-.63v-7.74c0-.27 0-.27.09-.36v-.27c0-.18 0-.27-.09-.27l-.27-.27c-.18-.09-.27-.09-.72-.09h-.54c-.09 0-.09 0-.27-.09l-.18-.09h-.09c-.27 0-.54.18-.63.27-.09.09-.18.27-.18.36v.54l.09.18v2.25c0 2.52 0 2.34-.09 2.79-.18.45-.36.72-.63.9-.27.18-.63.27-.99.36-.54.09-1.17-.18-1.53-.63-.27-.27-.36-.72-.45-1.26v-5.22c-.09-.18-.18-.36-.36-.36h-.54c-.09.09-.09.09-.09 0 0 0-.09 0-.27-.09-.09 0-.27 0-.36-.09h-.36z"/></g><defs><clipPath id="clip0_4003_11969"><path fill="#fff" transform="translate(43 8.5)" d="M0 0h81v18H0z"/></clipPath></defs></svg>