<svg width="20" height="20" viewBox="0 0 20 20" fill="none" xmlns="http://www.w3.org/2000/svg">
<path d="M0.0947266 16.3668V14.4341C0.0947266 13.9494 0.235426 13.496 0.516825 13.0739C0.798418 12.6517 1.1771 12.3239 1.65286 12.0907C2.75777 11.5592 3.86336 11.1607 4.96964 10.8952C6.07591 10.6295 7.18297 10.4966 8.2908 10.4966C8.72246 10.4966 9.15403 10.5188 9.58549 10.5632C10.0172 10.6076 10.4487 10.6743 10.8802 10.7631C10.8923 11.6421 11.0935 12.465 11.4838 13.2318C11.8741 13.9987 12.4099 14.6523 13.0914 15.1928V16.3668H0.0947266ZM17.2974 19.1666L15.931 17.8083V13.5973C15.2628 13.4012 14.7194 13.025 14.3006 12.4687C13.8818 11.9126 13.6724 11.2778 13.6724 10.5644C13.6724 9.68504 13.9823 8.93463 14.6021 8.31317C15.2219 7.6917 15.9701 7.38097 16.8469 7.38097C17.7237 7.38097 18.4684 7.692 19.0809 8.31405C19.6933 8.9361 19.9995 9.68719 19.9995 10.5673C19.9995 11.2502 19.8107 11.8514 19.4331 12.3707C19.0557 12.8898 18.569 13.2661 17.973 13.4995L19.0988 14.6284L17.7479 15.9897L19.0988 17.3513L17.2974 19.1666ZM8.2908 7.87759C7.32484 7.87759 6.49791 7.53272 5.81003 6.84297C5.12214 6.15321 4.7782 5.32404 4.7782 4.35545C4.7782 3.38687 5.12214 2.55769 5.81003 1.86794C6.49791 1.17819 7.32484 0.833313 8.2908 0.833313C9.25677 0.833313 10.0837 1.17819 10.7716 1.86794C11.4595 2.55769 11.8034 3.38687 11.8034 4.35545C11.8034 5.32404 11.4595 6.15321 10.7716 6.84297C10.0837 7.53272 9.25677 7.87759 8.2908 7.87759ZM16.8472 11.0158C17.0888 11.0158 17.2993 10.9222 17.4786 10.7349C17.6581 10.5475 17.7479 10.3325 17.7479 10.0901C17.7479 9.84784 17.6581 9.63681 17.4786 9.45698C17.2993 9.27696 17.0888 9.18695 16.8472 9.18695C16.6054 9.18695 16.3912 9.27696 16.2044 9.45698C16.0175 9.63681 15.924 9.84784 15.924 10.0901C15.924 10.3325 16.0175 10.5475 16.2044 10.7349C16.3912 10.9222 16.6054 11.0158 16.8472 11.0158Z" fill="#ABB5BE"/>
</svg>
