<svg width="124" height="35" viewBox="0 0 124 35" fill="none" xmlns="http://www.w3.org/2000/svg">
<path opacity="0.2" fill-rule="evenodd" clip-rule="evenodd" d="M14.187 0.220684C13.9282 0.24402 13.6285 0.310345 13.2805 0.422114C13.0489 0.497037 10.6291 1.33224 10.2774 1.45874C9.31516 1.80634 8.64271 2.1355 7.91206 2.62066C7.55664 2.85648 7.26934 3.07142 6.96593 3.32935C6.26748 3.92381 5.58885 4.68286 5.12445 5.38418C4.90278 5.72072 4.82971 5.87302 4.66129 6.35449C4.50773 6.79788 4.42476 6.98212 4.28978 7.18109C4.16346 7.36901 4.06934 7.45376 3.72631 7.68712C3.40185 7.90698 3.27925 8.01629 3.18018 8.17351C3.10835 8.28773 3.06501 8.40687 2.98204 8.72253C2.85696 9.1954 2.82105 9.25312 2.34055 9.73214C1.97275 10.0994 1.77956 10.3364 1.46749 10.8007C1.07492 11.3853 0.82229 11.927 0.681113 12.4834C0.601857 12.7966 0.559751 13.0975 0.494117 13.8222C0.424767 14.5837 0.411145 14.6782 0.221671 15.6154C0.0284829 16.571 0 16.7945 0 17.3042C0 17.669 0.00866871 17.7881 0.0619194 18.1394C0.132508 18.5988 0.236532 19.0053 0.456965 19.6931C0.698451 20.4448 0.838389 21.0073 0.963466 21.7443C1.06006 22.3166 1.08235 22.5635 1.08235 23.1199C1.08359 23.8863 1.12569 24.2327 1.2743 24.6798C1.41672 25.1109 1.60247 25.4904 1.99257 26.1475C2.8582 27.6066 4.00123 29.1063 5.0068 30.1024C5.3647 30.4574 5.59008 30.6478 5.86872 30.8332C6.13002 31.0076 6.2873 31.0801 6.64767 31.1968C7.12692 31.3515 7.40184 31.4621 7.67305 31.6131C7.73621 31.6488 7.95541 31.7863 8.15974 31.9202C8.87677 32.3869 9.28791 32.624 9.97645 32.9654C10.3542 33.1534 10.3876 33.173 10.6489 33.3695C10.9028 33.5587 10.9783 33.6017 11.3251 33.7491C11.8303 33.964 12.1486 34.1151 12.6489 34.3779C13.2483 34.6911 13.6124 34.7906 14.7603 34.9552C15.1901 35.0154 15.2953 35.0154 15.7263 34.9527C15.9839 34.9146 16.0136 34.9134 16.2712 34.9183C16.8532 34.9294 17.6359 34.9208 18.0297 34.8999C18.2972 34.8852 18.7752 34.8753 19.5034 34.868C20.5114 34.8581 20.6935 34.852 21.0576 34.8188C21.9219 34.7378 22.8755 34.47 23.9566 34.0045C24.7009 33.6827 25.7473 33.1607 26.3096 32.8279C26.4953 32.7186 26.6439 32.6092 26.9151 32.3869C27.4105 31.9804 27.512 31.919 28.1188 31.6512C28.5671 31.4547 28.8371 31.311 29.2866 31.0346C30.4 30.3468 31.1888 29.5129 31.6024 28.5856C31.7064 28.3522 31.7944 28.0734 31.8749 27.7258C31.9133 27.5563 31.9702 27.345 31.9999 27.2541C32.0817 27.0085 32.1399 26.909 32.4012 26.5835C32.665 26.2544 32.7479 26.1143 33.0055 25.5702C33.0947 25.3848 33.2346 25.0937 33.3176 24.9254C33.699 24.1504 33.7523 23.9932 33.7263 23.7131C33.7027 23.4712 33.6978 23.3054 33.7114 23.2341C33.7424 23.0745 33.8414 22.8804 34.1114 22.4481C34.3046 22.1398 34.4247 21.9003 34.499 21.6743C34.6575 21.1953 34.6984 20.6192 34.5993 20.2348C34.5411 20.0039 34.4705 19.8724 34.3331 19.7361C34.1139 19.5187 33.8501 19.4585 33.3386 19.5089C33.0588 19.5359 32.9609 19.531 32.8718 19.4831C32.7777 19.4327 32.7331 19.3726 32.7256 19.289C32.7182 19.1945 32.7541 19.1281 32.8842 18.9943C33.0612 18.8125 33.1677 18.7314 33.5653 18.4858C33.7114 18.3949 33.886 18.2831 33.9529 18.2352C34.1052 18.1284 34.2873 17.9564 34.3838 17.8287C34.4705 17.7144 34.6129 17.4344 34.6662 17.2698C34.7554 16.9971 34.7999 16.6987 34.7863 16.4604C34.7777 16.3057 34.7603 16.243 34.6699 16.0453C34.5634 15.8119 34.5572 15.7124 34.6253 15.3783C34.6637 15.188 34.6687 15.1462 34.6637 15.0443C34.6551 14.9006 34.629 14.7974 34.5684 14.6684C34.4804 14.4793 34.3455 14.3171 34.1894 14.2127C34.1498 14.1857 34.0173 14.1157 33.8947 14.0568C33.7064 13.9659 33.6631 13.9401 33.6024 13.8799C33.5157 13.7939 33.4848 13.7141 33.4947 13.6072C33.5071 13.4672 33.5702 13.3677 33.8328 13.0791C34.026 12.8678 34.0668 12.7573 34.0569 12.4772C34.0495 12.2598 34.0136 12.1039 33.8811 11.7084C33.5529 10.7319 33.2421 10.1657 32.7851 9.71249C32.4099 9.3391 32.0532 9.13521 31.4984 8.97677C31.3993 8.94852 31.2978 8.91536 31.2718 8.90185C31.1294 8.82938 31.0538 8.70288 30.977 8.40442C30.93 8.22509 30.8965 7.97699 30.8656 7.57658C30.8247 7.05458 30.7888 6.84456 30.6959 6.57557C30.5733 6.22675 30.4099 5.9983 30.1188 5.77108C29.9925 5.67282 29.8551 5.55245 29.5219 5.24785C29.0117 4.78112 28.8569 4.67058 28.2464 4.33404C27.5987 3.9754 27.4588 3.88819 26.9052 3.49639C26.2798 3.05422 26.1448 2.98176 25.5715 2.77418C24.9548 2.55187 24.8544 2.48801 24.608 2.16621C24.3579 1.83827 24.291 1.7744 24.0421 1.62456C23.4055 1.24135 22.6204 1.00061 21.6953 0.902354C21.4254 0.874105 21.2322 0.860594 20.6179 0.827432C19.8328 0.785672 19.382 0.743912 19.0774 0.686185C18.956 0.664077 18.7145 0.671446 18.5003 0.705837C18.1758 0.756194 18.0272 0.770933 17.8316 0.772161C17.3882 0.772161 17.0514 0.716891 16.1312 0.490895C15.8303 0.415973 15.5021 0.338594 15.4006 0.318942C14.93 0.22314 14.5288 0.189978 14.187 0.220684Z" fill="#0A5AD2"/>
<path opacity="0.5" fill-rule="evenodd" clip-rule="evenodd" d="M14.2751 0.848984C14.0262 0.87143 13.7381 0.935224 13.4035 1.04273C13.1808 1.11479 10.8541 1.91813 10.5159 2.03981C9.59067 2.37414 8.94409 2.69075 8.24154 3.15739C7.89979 3.38421 7.62354 3.59096 7.3318 3.83904C6.66021 4.41083 6.00768 5.14092 5.56114 5.81548C5.348 6.13918 5.27774 6.28567 5.1158 6.74877C4.96815 7.17525 4.88837 7.35245 4.75857 7.54383C4.63712 7.72459 4.54662 7.8061 4.21678 8.03056C3.9048 8.24203 3.78692 8.34717 3.69165 8.49839C3.62259 8.60825 3.58091 8.72285 3.50113 9.02646C3.38087 9.48129 3.34633 9.53681 2.88432 9.99755C2.53067 10.3508 2.34491 10.5788 2.04484 11.0253C1.66737 11.5877 1.42445 12.1087 1.28871 12.6438C1.2125 12.9451 1.17201 13.2345 1.1089 13.9315C1.04222 14.664 1.02912 14.7549 0.846935 15.6563C0.661176 16.5754 0.633789 16.7905 0.633789 17.2807C0.633789 17.6316 0.642124 17.7462 0.693327 18.0841C0.7612 18.5259 0.861224 18.9169 1.07318 19.5785C1.30538 20.3015 1.43993 20.8426 1.5602 21.5514C1.65308 22.1019 1.67451 22.3394 1.67451 22.8745C1.6757 23.6117 1.71619 23.9449 1.85908 24.3749C1.99602 24.7895 2.17463 25.1546 2.54972 25.7866C3.38206 27.1901 4.48113 28.6326 5.44802 29.5907C5.79215 29.9321 6.00887 30.1152 6.27679 30.2936C6.52804 30.4613 6.67927 30.531 7.02578 30.6433C7.4866 30.7921 7.75095 30.8984 8.01172 31.0437C8.07245 31.078 8.28322 31.2103 8.47969 31.3391C9.16914 31.788 9.56447 32.016 10.2265 32.3444C10.5897 32.5252 10.6219 32.5441 10.8731 32.7331C11.1172 32.915 11.1899 32.9564 11.5233 33.0982C12.0091 33.3049 12.3151 33.4502 12.7962 33.703C13.3725 34.0043 13.7226 34.1 14.8264 34.2583C15.2396 34.3162 15.3408 34.3162 15.7552 34.2559C16.0029 34.2193 16.0315 34.2181 16.2792 34.2228C16.8388 34.2335 17.5914 34.2252 17.97 34.2051C18.2272 34.1909 18.6869 34.1815 19.387 34.1744C20.3563 34.1649 20.5313 34.159 20.8814 34.1271C21.7126 34.0492 22.6295 33.7916 23.669 33.3439C24.3846 33.0344 25.3908 32.5323 25.9314 32.2121C26.11 32.107 26.2529 32.0018 26.5137 31.788C26.99 31.397 27.0877 31.3379 27.6711 31.0804C28.1022 30.8913 28.3618 30.7531 28.794 30.4873C29.8645 29.8257 30.623 29.0236 31.0207 28.1317C31.1208 27.9072 31.2053 27.639 31.2827 27.3047C31.3196 27.1417 31.3744 26.9385 31.403 26.851C31.4816 26.6148 31.5375 26.5191 31.7888 26.206C32.0424 25.8894 32.1222 25.7547 32.3699 25.2314C32.4556 25.053 32.5901 24.773 32.6699 24.6112C33.0367 23.8657 33.0879 23.7145 33.0629 23.4451C33.0403 23.2124 33.0355 23.0529 33.0486 22.9844C33.0784 22.8308 33.1736 22.6442 33.4332 22.2283C33.619 21.9318 33.7345 21.7014 33.8059 21.4841C33.9583 21.0233 33.9976 20.4693 33.9024 20.0995C33.8464 19.8774 33.7785 19.751 33.6464 19.6198C33.4356 19.4107 33.182 19.3529 32.6902 19.4013C32.4211 19.4273 32.327 19.4226 32.2413 19.3765C32.1508 19.328 32.1079 19.2702 32.1007 19.1898C32.0936 19.0989 32.1281 19.0351 32.2532 18.9063C32.4234 18.7315 32.5258 18.6535 32.9081 18.4172C33.0486 18.3298 33.2165 18.2223 33.2808 18.1762C33.4273 18.0734 33.6023 17.908 33.6952 17.7852C33.7785 17.6753 33.9155 17.406 33.9667 17.2476C34.0524 16.9854 34.0953 16.6983 34.0822 16.4691C34.0738 16.3203 34.0572 16.26 33.9702 16.0698C33.8678 15.8454 33.8619 15.7497 33.9274 15.4283C33.9643 15.2452 33.969 15.2051 33.9643 15.107C33.9559 14.9688 33.9309 14.8695 33.8726 14.7455C33.7881 14.5636 33.6583 14.4076 33.5082 14.3072C33.4701 14.2812 33.3427 14.2139 33.2248 14.1572C33.0438 14.0697 33.0022 14.0449 32.9438 13.9871C32.8605 13.9044 32.8307 13.8276 32.8402 13.7248C32.8521 13.5901 32.9128 13.4944 33.1653 13.2168C33.351 13.0136 33.3903 12.9073 33.3808 12.6379C33.3737 12.4288 33.3391 12.2788 33.2117 11.8984C32.8962 10.9592 32.5973 10.4146 32.1579 9.97865C31.7971 9.61951 31.4542 9.4234 30.9207 9.271C30.8254 9.24383 30.7278 9.21194 30.7028 9.19894C30.5659 9.12924 30.4932 9.00756 30.4194 8.72048C30.3741 8.548 30.342 8.30937 30.3122 7.92424C30.2729 7.42215 30.2384 7.22014 30.1491 6.96142C30.0312 6.62591 29.874 6.40617 29.5942 6.18762C29.4727 6.09311 29.3406 5.97733 29.0203 5.68435C28.5297 5.23543 28.3808 5.1291 27.7938 4.80541C27.171 4.46045 27.0365 4.37657 26.5042 3.99971C25.9029 3.57442 25.7731 3.50471 25.2217 3.30506C24.6287 3.09123 24.5323 3.0298 24.2953 2.72028C24.0548 2.40485 23.9905 2.34342 23.7512 2.1993C23.1391 1.83071 22.3842 1.59916 21.4947 1.50465C21.2351 1.47748 21.0493 1.46448 20.4587 1.43258C19.7038 1.39242 19.2703 1.35225 18.9774 1.29672C18.8607 1.27546 18.6285 1.28255 18.4225 1.31563C18.1105 1.36406 17.9676 1.37824 17.7795 1.37942C17.3532 1.37942 17.0293 1.32626 16.1446 1.10889C15.8552 1.03682 15.5397 0.962396 15.442 0.943494C14.9896 0.851346 14.6038 0.819449 14.2751 0.848984Z" fill="#0A4BB4"/>
<path fill-rule="evenodd" clip-rule="evenodd" d="M14.366 1.40757C14.1244 1.42936 13.8448 1.49129 13.52 1.59565C13.3039 1.66561 11.0458 2.44547 10.7175 2.56359C9.8196 2.88815 9.19207 3.1955 8.51023 3.64851C8.17856 3.8687 7.91044 4.0694 7.62731 4.31024C6.97551 4.86531 6.34221 5.57406 5.90884 6.22891C5.70197 6.54315 5.63379 6.68536 5.47662 7.13492C5.33332 7.54893 5.25589 7.72096 5.12992 7.90675C5.01204 8.08222 4.92421 8.16135 4.60409 8.37925C4.30131 8.58453 4.1869 8.6866 4.09445 8.8334C4.02742 8.94006 3.98697 9.0513 3.90954 9.34604C3.79282 9.78758 3.75931 9.84148 3.31091 10.2887C2.96768 10.6317 2.78739 10.853 2.49617 11.2865C2.12982 11.8324 1.89407 12.3382 1.76232 12.8577C1.68836 13.1501 1.64907 13.4311 1.58782 14.1077C1.5231 14.8188 1.51039 14.9071 1.33357 15.7821C1.15329 16.6744 1.12671 16.8831 1.12671 17.3591C1.12671 17.6997 1.1348 17.8109 1.18449 18.1389C1.25036 18.5678 1.34744 18.9474 1.55315 19.5897C1.7785 20.2915 1.90909 20.8168 2.02581 21.5049C2.11596 22.0393 2.13676 22.2698 2.13676 22.7894C2.13791 23.505 2.17721 23.8284 2.31588 24.2459C2.44879 24.6484 2.62214 25.0028 2.98617 25.6163C3.79398 26.9788 4.86065 28.3791 5.79905 29.3092C6.13304 29.6406 6.34337 29.8184 6.60339 29.9916C6.84723 30.1544 6.994 30.2221 7.3303 30.331C7.77754 30.4755 8.0341 30.5788 8.28719 30.7198C8.34613 30.7531 8.55068 30.8815 8.74136 31.0065C9.41049 31.4423 9.79417 31.6637 10.4367 31.9825C10.7892 32.158 10.8204 32.1763 11.0642 32.3598C11.3012 32.5364 11.3716 32.5766 11.6952 32.7142C12.1667 32.9149 12.4637 33.0559 12.9306 33.3014C13.49 33.5938 13.8297 33.6867 14.901 33.8404C15.3021 33.8966 15.4003 33.8966 15.8025 33.8381C16.0428 33.8025 16.0706 33.8014 16.3109 33.806C16.8541 33.8163 17.5845 33.8083 17.952 33.7888C18.2016 33.775 18.6477 33.7658 19.3272 33.759C20.2679 33.7498 20.4378 33.744 20.7776 33.7131C21.5842 33.6374 22.4741 33.3874 23.483 32.9527C24.1775 32.6522 25.1541 32.1648 25.6787 31.854C25.8521 31.752 25.9908 31.6499 26.2439 31.4423C26.7061 31.0627 26.8009 31.0054 27.3672 30.7554C27.7855 30.5719 28.0374 30.4377 28.457 30.1796C29.4959 29.5374 30.232 28.7587 30.618 27.8928C30.7151 27.6749 30.7972 27.4146 30.8723 27.09C30.9081 26.9318 30.9613 26.7345 30.989 26.6497C31.0653 26.4203 31.1196 26.3274 31.3634 26.0235C31.6096 25.7161 31.687 25.5854 31.9274 25.0773C32.0106 24.9042 32.1412 24.6324 32.2186 24.4752C32.5746 23.7516 32.6243 23.6048 32.6 23.3433C32.578 23.1174 32.5734 22.9625 32.5861 22.896C32.615 22.7469 32.7075 22.5657 32.9594 22.162C33.1397 21.8742 33.2518 21.6506 33.3211 21.4395C33.4691 20.9923 33.5072 20.4544 33.4147 20.0954C33.3604 19.8798 33.2945 19.7571 33.1663 19.6298C32.9617 19.4268 32.7156 19.3706 32.2383 19.4176C31.9771 19.4429 31.8858 19.4383 31.8026 19.3936C31.7148 19.3465 31.6732 19.2903 31.6662 19.2124C31.6593 19.1241 31.6928 19.0621 31.8141 18.9371C31.9794 18.7674 32.0788 18.6917 32.4498 18.4623C32.5861 18.3775 32.7491 18.2731 32.8115 18.2284C32.9536 18.1286 33.1235 17.968 33.2137 17.8488C33.2946 17.7421 33.4275 17.4806 33.4771 17.3269C33.5604 17.0723 33.602 16.7937 33.5892 16.5712C33.5812 16.4267 33.565 16.3682 33.4806 16.1835C33.3812 15.9656 33.3754 15.8727 33.439 15.5608C33.4748 15.383 33.4795 15.344 33.4748 15.2489C33.4667 15.1147 33.4425 15.0183 33.3858 14.8979C33.3038 14.7213 33.1778 14.5699 33.0322 14.4724C32.9952 14.4472 32.8716 14.3818 32.7572 14.3268C32.5815 14.2419 32.5411 14.2178 32.4844 14.1616C32.4035 14.0814 32.3746 14.0068 32.3839 13.907C32.3954 13.7763 32.4544 13.6834 32.6994 13.4139C32.8797 13.2166 32.9178 13.1134 32.9086 12.8519C32.9016 12.649 32.8681 12.5033 32.7445 12.134C32.4382 11.2223 32.1481 10.6936 31.7217 10.2704C31.3715 9.92176 31.0387 9.73138 30.521 9.58344C30.4285 9.55706 30.3337 9.52609 30.3095 9.51348C30.1766 9.44582 30.1061 9.32769 30.0344 9.04901C29.9905 8.88157 29.9593 8.6499 29.9304 8.27603C29.8923 7.78862 29.8588 7.59251 29.7721 7.34135C29.6577 7.01565 29.5051 6.80234 29.2336 6.59017C29.1157 6.49842 28.9874 6.38603 28.6765 6.10161C28.2004 5.66581 28.0559 5.56259 27.4862 5.24836C26.8818 4.91348 26.7512 4.83205 26.2346 4.46621C25.651 4.05335 25.525 3.98568 24.99 3.79186C24.4144 3.58429 24.3208 3.52465 24.0909 3.22418C23.8574 2.91797 23.795 2.85833 23.5627 2.71842C22.9687 2.3606 22.236 2.13582 21.3727 2.04407C21.1208 2.01769 20.9405 2.00508 20.3673 1.97411C19.6346 1.93512 19.214 1.89613 18.9297 1.84223C18.8164 1.82158 18.5911 1.82846 18.3911 1.86058C18.0884 1.9076 17.9497 1.92136 17.7671 1.9225C17.3534 1.9225 17.039 1.8709 16.1804 1.65988C15.8995 1.58992 15.5933 1.51767 15.4985 1.49932C15.0594 1.40986 14.6849 1.3789 14.366 1.40757Z" fill="#0A5AD2"/>
<g clip-path="url(#clip0_4003_11969)">
<path fill-rule="evenodd" clip-rule="evenodd" d="M85.0299 8.5C84.9399 8.5 84.8499 8.59 84.7599 8.59C84.5799 8.68 84.4899 8.68 84.0399 8.68C83.2299 8.77 82.6899 8.95 81.8799 9.31C81.4299 9.49 80.7099 9.85 80.4399 10.03C79.5399 10.66 78.9999 11.11 78.5499 11.65C78.4599 11.74 78.3699 11.92 78.2799 11.92C78.1899 12.01 77.7399 12.64 77.5599 13C77.4699 13.18 77.3799 13.27 77.2899 13.36C77.1999 13.45 77.1099 13.72 77.0199 13.9C76.9299 13.99 76.9299 14.26 76.8399 14.35C76.7499 14.53 76.6599 14.71 76.6599 14.8C76.5699 14.98 76.4799 15.79 76.3899 15.97C76.3899 16.33 76.2999 16.51 76.2999 16.6C76.2099 16.87 76.2099 17.77 76.2999 18.13C76.2999 18.22 76.2999 18.4 76.2999 18.49C76.2999 18.76 76.2999 18.85 76.3899 19.12C76.3899 19.3 76.4799 19.48 76.4799 19.57C76.5699 20.02 76.8399 20.74 77.0199 21.1C77.0199 21.19 77.1099 21.28 77.1099 21.37C77.1999 21.55 77.2899 21.82 77.4699 22.09C77.5599 22.18 77.6499 22.36 77.6499 22.45C77.6499 22.45 77.8299 22.63 77.9199 22.81C78.0099 22.9 78.1899 23.08 78.1899 23.17C78.2799 23.26 78.3699 23.35 78.3699 23.44C78.4599 23.53 78.5499 23.71 78.6399 23.8C78.7299 23.89 78.9099 24.07 78.9999 24.16C79.0899 24.25 79.1799 24.34 79.2699 24.43C79.3599 24.52 79.4499 24.61 79.5399 24.61C79.6299 24.7 79.7199 24.79 79.8099 24.79C79.8999 24.88 80.0799 24.97 80.1699 24.97C80.3499 25.15 80.7099 25.33 80.9799 25.42C81.0699 25.42 81.1599 25.51 81.2499 25.51C81.3399 25.51 81.5199 25.69 81.6099 25.69C81.6099 25.69 81.7899 25.78 81.8799 25.78C82.1499 25.96 82.3299 25.96 82.6899 26.05C82.8699 26.05 83.1399 26.14 83.2299 26.14C83.4099 26.14 83.5899 26.23 84.1299 26.23C84.2199 26.23 84.5799 26.23 84.9399 26.23C85.5699 26.23 85.6599 26.23 86.4699 26.14C87.0099 26.05 87.0999 26.05 87.4599 25.96C87.5499 25.96 87.7299 25.87 87.8199 25.87C88.2699 25.69 88.4499 25.6 88.9899 25.42C89.3499 25.24 89.6199 25.06 89.7099 24.97C89.8899 24.88 90.0699 24.7 90.2499 24.61C90.6099 24.34 90.6999 24.34 90.7899 24.16C90.8799 24.07 90.9699 23.89 91.2399 23.71C91.3299 23.62 91.7799 23.17 91.8699 22.99C91.8699 22.99 91.9599 22.9 91.9599 22.81C91.9599 22.72 92.0499 22.72 92.0499 22.63C92.2299 22.45 92.3199 22.18 92.4099 22.09C92.4099 22 92.4999 21.91 92.4999 21.91C92.5899 21.82 92.6799 21.73 92.7699 21.37C92.8599 21.19 92.9499 20.92 92.9499 20.92C92.9499 20.83 93.0399 20.74 93.0399 20.65C93.0399 20.56 93.1299 20.38 93.1299 20.38C93.2199 20.29 93.2199 20.2 93.2199 20.11C93.2199 20.02 93.3099 19.75 93.3099 19.57C93.3999 19.12 93.4899 18.76 93.4899 18.31C93.4899 18.13 93.4899 17.95 93.4899 17.95C93.4899 17.86 93.4899 17.23 93.4899 16.87C93.4899 16.69 93.4899 16.6 93.4899 16.51C93.4899 16.42 93.4899 16.33 93.3999 16.15C93.3999 16.06 93.3099 15.79 93.3099 15.61C93.3099 15.43 93.2199 15.25 93.2199 15.07C93.2199 14.98 93.1299 14.8 93.1299 14.71C93.0399 14.53 92.7699 13.72 92.5899 13.45C92.3199 13 91.8699 12.28 91.7799 12.28L91.6899 12.19C91.6899 12.1 91.5099 12.01 91.5099 11.92C91.3299 11.74 91.1499 11.56 91.1499 11.47C91.1499 11.38 91.0599 11.38 90.8799 11.29C90.6999 11.2 90.6999 11.2 90.6099 11.11C90.5199 10.93 90.4299 10.93 90.3399 10.93C90.2499 10.93 90.2499 10.84 90.1599 10.75C90.0699 10.66 90.0699 10.57 89.5299 10.3C88.6299 9.76 87.7299 9.4 87.0099 9.22C86.9199 9.22 86.8299 9.22 86.8299 9.22C86.8299 9.22 86.9199 9.22 87.0099 9.31C87.6399 9.49 88.4499 9.85 88.6299 10.03C88.6299 10.03 88.7199 10.12 88.8099 10.12C88.8999 10.12 88.8999 10.21 88.8999 10.21L88.9899 10.3C89.0799 10.3 89.1699 10.48 89.1699 10.48C89.1699 10.48 89.0799 10.48 88.9899 10.39C88.1799 9.94 86.9199 9.49 86.0199 9.31C86.1999 8.95 86.1999 8.95 86.1999 8.86C86.1999 8.86 86.1999 8.77 86.1099 8.77C86.1099 8.77 85.8399 8.68 85.5699 8.59C85.3899 8.5 85.2099 8.5 85.0299 8.5ZM85.2099 12.1C85.5699 12.1 85.7499 12.1 85.9299 12.1C86.0199 12.1 86.0199 12.1 86.1999 12.1C86.4699 12.1 86.5599 12.19 86.9199 12.28C87.2799 12.37 87.5499 12.55 87.9099 12.73C88.4499 13.09 88.8099 13.36 89.1699 13.72C89.2599 13.81 89.4399 14.08 89.5299 14.17C89.7099 14.44 89.9799 14.71 90.0699 14.89C90.0699 14.98 90.1599 15.16 90.2499 15.25C90.4299 15.61 90.5199 15.7 90.5199 15.97C90.6099 16.24 90.6999 16.69 90.7899 17.05L90.8799 17.41V17.86C90.8799 18.4 90.8799 18.49 90.6999 19.03C90.6999 19.21 90.6099 19.39 90.6099 19.48C90.6099 19.57 90.6099 19.66 90.5199 19.75C90.4299 19.93 90.4299 19.93 90.3399 20.2C90.2499 20.47 90.0699 20.65 89.9799 20.92C89.7099 21.37 89.3499 21.73 89.1699 21.91C89.1699 21.91 89.0799 22 88.9899 22.09C88.7199 22.36 88.5399 22.45 87.9099 22.81C87.3699 23.08 87.0999 23.26 86.5599 23.35C86.0199 23.44 85.9299 23.53 85.3899 23.53C84.7599 23.53 84.2199 23.44 83.8599 23.44C83.5899 23.35 83.4099 23.35 82.8699 23.08C82.5099 22.9 81.9699 22.63 81.7899 22.36C81.6999 22.27 81.6099 22.18 81.5199 22.09C81.3399 21.91 81.0699 21.73 80.7999 21.28C80.4399 20.74 80.1699 20.38 79.9899 19.75C79.7199 19.03 79.7199 18.58 79.6299 17.77C79.6299 17.32 79.6299 17.14 79.7199 16.87C79.7199 16.78 79.8099 16.6 79.8099 16.51C79.8099 16.33 79.8099 16.33 79.8999 16.24C79.8999 15.7 79.8999 15.61 79.9899 15.43C80.1699 14.89 80.5299 14.26 81.0699 13.72C81.2499 13.45 81.6099 13.18 81.7899 13.09C81.8799 13.09 81.9699 13 81.9699 12.91C82.2399 12.73 82.5099 12.55 83.0499 12.37C83.4999 12.19 83.8599 12.1 84.2199 12.01C84.3999 12.01 84.8499 12.01 85.2099 12.1Z" fill="#0A5AD2"/>
<path fill-rule="evenodd" clip-rule="evenodd" d="M44.35 8.68003C44.08 8.68003 43.72 8.77003 43.63 8.86003L43.54 8.95003C43.54 9.04003 43.45 9.04003 43.36 9.04003C43.27 9.04003 43.18 9.13003 43.18 9.31003C43.09 9.49003 43 9.85003 43 10.12V10.21L43.09 10.3L43.18 10.39C43.18 10.39 43.18 10.66 43.18 11.38C43.18 12.82 43.18 13.36 43.18 13.81C43.18 14.08 43.18 14.26 43.18 14.53C43.18 14.71 43.18 14.98 43.18 15.16C43.18 15.43 43.18 15.7 43.18 16.06C43.18 16.78 43.18 19.75 43.18 20.2C43.18 20.56 43.18 20.74 43.36 21.37C43.54 22 43.54 22.18 43.72 22.45C43.9 22.81 43.99 23.08 44.26 23.53C44.35 23.71 44.44 23.89 44.53 23.98C44.62 24.16 44.71 24.25 44.8 24.34C44.89 24.34 44.98 24.43 45.07 24.61C45.52 25.06 45.79 25.33 45.97 25.42C46.06 25.42 46.15 25.51 46.33 25.6C46.42 25.69 46.69 25.78 46.78 25.87C46.87 25.96 47.05 25.96 47.14 26.05C47.41 26.23 47.59 26.23 48.04 26.32C48.22 26.32 48.4 26.41 48.49 26.41C48.76 26.5 48.85 26.5 49.12 26.5C49.48 26.5 50.29 26.5 50.65 26.5C51.1 26.41 51.64 26.32 52.09 26.23C52.27 26.23 52.45 26.14 52.54 26.14C52.81 26.05 52.99 26.05 53.26 25.78C53.35 25.69 53.53 25.6 53.71 25.51C54.07 25.33 54.25 25.15 54.43 24.97C54.7 24.7 55.24 24.16 55.33 23.98C55.42 23.89 55.51 23.71 55.6 23.62C55.78 23.35 55.87 23.26 55.96 23.17C55.96 23.08 56.23 22.54 56.41 22.18C56.41 22.09 56.5 22 56.5 21.91C56.5 21.82 56.5 21.73 56.59 21.64C56.59 21.55 56.68 21.46 56.68 21.37C56.68 21.28 56.68 21.19 56.68 21.1C56.68 21.01 56.77 20.83 56.77 20.65C56.77 20.47 56.77 20.29 56.77 20.2C56.77 19.93 56.77 19.84 56.77 19.57C56.77 19.48 56.77 18.85 56.77 17.5C56.77 16.06 56.77 15.61 56.77 15.43C56.77 15.07 56.77 14.62 56.77 13.9C56.77 13.54 56.77 12.73 56.77 12.1C56.77 10.75 56.77 10.48 56.86 10.3C56.95 10.12 56.95 10.03 56.86 9.85003C56.77 9.58003 56.77 9.31003 56.68 9.22003C56.68 9.22003 56.59 9.13003 56.5 9.13003C56.41 9.13003 56.32 9.04003 56.23 9.04003C56.14 8.95003 56.05 8.95003 55.96 8.95003C55.69 8.95003 55.33 8.95003 55.33 8.95003H55.24C55.15 8.95003 54.88 8.95003 54.7 8.95003C54.61 8.95003 54.43 8.95003 54.34 9.04003C54.16 9.04003 54.07 9.04003 53.98 9.13003C53.62 9.40003 53.53 9.40003 53.53 9.58003C53.53 9.67003 53.53 9.85003 53.53 10.03C53.53 10.12 53.62 10.21 53.62 10.39C53.62 10.48 53.62 10.66 53.62 10.75C53.62 10.93 53.62 11.11 53.62 11.2C53.53 11.38 53.53 11.56 53.62 11.74C53.62 11.92 53.62 12.01 53.62 12.28C53.62 12.46 53.62 13.99 53.62 15.61C53.62 17.41 53.62 18.76 53.62 19.12C53.53 20.56 53.53 20.65 53.53 20.83C53.44 21.01 53.35 21.28 53.17 21.55C53.08 21.73 52.99 21.91 52.9 22C52.81 22.18 52.63 22.36 52.45 22.54C52.36 22.63 52.18 22.72 52.09 22.81C52 22.9 51.91 22.99 51.73 22.99C51.19 23.26 50.38 23.44 49.75 23.35C49.48 23.35 49.03 23.26 48.85 23.26C48.76 23.26 48.13 22.9 47.95 22.81C47.59 22.54 47.23 22.18 47.05 21.82C46.96 21.73 46.78 21.28 46.69 21.1C46.6 21.01 46.51 20.74 46.51 20.47C46.42 20.11 46.42 19.93 46.42 19.66C46.42 19.48 46.42 18.76 46.42 17.86C46.42 17.05 46.42 16.15 46.42 15.97C46.42 15.16 46.42 12.64 46.42 12.19C46.42 11.74 46.42 11.65 46.33 11.56C46.33 11.47 46.33 11.38 46.33 11.2C46.33 11.02 46.33 11.02 46.33 10.93C46.24 10.57 46.24 10.39 46.33 10.3C46.33 10.21 46.42 10.21 46.51 10.21C46.51 10.21 46.51 10.21 46.6 10.3C46.6 10.39 46.6 10.39 46.6 10.39C46.6 10.48 46.6 10.48 46.6 10.48C46.6 10.48 46.6 10.57 46.6 10.66C46.6 10.75 46.6 10.84 46.6 10.93C46.6 11.02 46.6 11.29 46.69 11.56C46.69 10.57 46.69 10.48 46.87 10.3V10.21C46.87 9.94003 46.51 9.31003 46.24 9.04003C46.15 8.95003 46.15 8.95003 46.06 8.95003C45.97 8.95003 45.97 8.95003 45.88 8.86003C45.79 8.77003 45.7 8.77003 45.52 8.77003C45.34 8.77003 45.34 8.77003 45.25 8.77003C45.07 8.59003 44.89 8.59003 44.35 8.68003ZM56.86 10.3C56.86 10.48 56.86 10.66 56.86 10.75C56.86 10.93 56.86 11.65 56.77 12.55C56.77 12.73 56.77 13.09 56.77 13.18C56.77 13.63 56.77 13.45 56.68 12.64C56.68 12.28 56.68 11.83 56.68 11.74C56.68 11.38 56.68 10.39 56.68 10.21C56.68 10.12 56.77 10.03 56.77 10.03C56.86 10.03 56.86 10.12 56.86 10.3Z" fill="#0A5AD2"/>
<path fill-rule="evenodd" clip-rule="evenodd" d="M65.95 8.67999C65.86 8.67999 65.77 8.67999 65.59 8.67999C65.32 8.67999 65.05 8.67999 64.78 8.76999C64.69 8.76999 64.6 8.85999 64.51 8.85999C64.33 8.85999 63.7 9.12999 63.43 9.30999C63.07 9.48999 62.71 9.75999 62.44 10.03C62.35 10.12 62.08 10.39 61.99 10.57C61.99 10.57 61.9 10.66 61.9 10.75C61.81 10.84 61.72 11.11 61.63 11.2C61.63 11.29 61.54 11.38 61.54 11.38C61.45 11.47 61.45 11.56 61.45 11.56C61.45 11.65 61.36 12.19 61.27 12.37C61.27 12.73 61.27 13.45 61.36 13.72C61.45 13.99 61.72 14.62 61.72 14.71C61.9 14.71 61.9 14.8 61.9 14.89C61.99 15.07 62.26 15.43 62.44 15.61C62.53 15.7 62.62 15.79 62.62 15.88C62.62 15.88 62.8 16.06 62.89 16.15C62.98 16.24 63.16 16.42 63.16 16.51C63.25 16.6 63.34 16.69 63.34 16.69C63.43 16.78 63.43 16.78 63.43 16.78C63.43 16.78 63.43 16.78 63.16 16.96C62.89 17.14 62.53 17.32 62.35 17.5C62.26 17.5 62.17 17.59 62.17 17.68C62.08 17.77 61.72 18.13 61.36 18.49C61.18 18.67 60.91 19.03 60.82 19.12C60.82 19.21 60.73 19.3 60.64 19.39C60.46 19.66 60.37 19.93 60.19 20.47C60.19 20.65 60.1 20.83 60.1 20.83C60.1 20.92 60.01 21.28 60.01 21.73C60.01 22.09 60.01 22.09 60.1 22.63C60.1 22.72 60.1 22.81 60.1 22.9C60.1 23.08 60.19 23.26 60.28 23.53C60.37 23.62 60.46 23.8 60.46 23.89C60.55 24.07 60.64 24.16 60.82 24.43C61 24.7 61.09 24.79 61.09 24.79L61.18 24.88C61.27 24.97 61.45 25.15 61.63 25.24C61.72 25.33 61.81 25.33 61.81 25.42C61.9 25.51 61.99 25.51 62.53 25.78C62.89 25.96 63.16 26.05 63.16 26.05C63.16 26.05 63.25 26.05 63.43 26.05C63.52 26.05 63.61 26.05 63.7 26.14C63.88 26.23 64.42 26.23 64.96 26.32C65.32 26.32 65.41 26.32 65.77 26.32C66.22 26.32 66.4 26.23 66.76 26.23C66.85 26.23 66.94 26.23 67.03 26.14C67.12 26.14 67.21 26.05 67.3 26.05C67.66 25.96 67.75 25.96 67.84 25.87C67.93 25.87 67.93 25.87 67.93 25.87C68.02 25.87 68.29 25.69 68.56 25.6C69.01 25.42 69.46 25.15 69.64 24.97C69.73 24.88 69.82 24.88 69.82 24.79C69.91 24.7 70.09 24.61 70.27 24.34L70.36 24.25C70.36 24.25 70.45 24.34 70.54 24.34C70.63 24.43 70.72 24.52 70.81 24.61C70.9 24.7 70.99 24.79 71.08 24.79C71.08 24.88 71.17 24.97 71.26 25.06C71.44 25.33 71.44 25.33 71.53 25.51C71.62 25.78 71.71 25.87 71.8 25.96C71.98 26.14 72.07 26.14 72.7 26.23C72.88 26.23 73.15 26.14 73.42 25.96C73.6 25.87 73.78 25.78 73.87 25.78C73.96 25.78 73.96 25.78 73.96 25.78C74.05 25.78 74.41 25.51 74.5 25.42C74.59 25.33 74.68 25.24 74.68 24.97C74.77 24.61 74.77 24.43 74.68 24.16C74.68 24.07 74.59 23.98 74.59 23.89C74.59 23.8 74.59 23.71 74.59 23.71C74.59 23.62 74.5 23.62 74.23 23.53C73.87 23.35 73.78 23.35 73.51 23.08C73.33 22.9 73.24 22.81 73.15 22.72C73.06 22.72 72.97 22.54 72.88 22.54C72.79 22.45 72.7 22.36 72.61 22.27C72.52 22.18 72.25 21.91 72.25 21.91C72.25 21.91 72.25 21.82 72.34 21.82C72.34 21.82 72.43 21.73 72.43 21.64C72.43 21.55 72.52 21.46 72.52 21.46C72.61 21.37 72.61 21.37 72.61 21.28C72.61 21.28 72.7 21.19 72.7 21.1C72.79 20.92 73.15 20.2 73.24 19.93C73.24 19.84 73.33 19.66 73.33 19.66C73.33 19.57 73.33 19.57 73.33 19.57C73.33 19.57 73.24 19.66 73.24 19.84C73.06 20.2 72.88 20.56 72.7 20.74C72.61 20.83 72.52 21.01 72.52 21.01C72.52 21.1 72.52 21.01 72.52 20.92C72.52 20.83 72.52 20.83 72.52 20.92L72.43 21.01C72.43 21.01 72.52 20.83 72.61 20.56C73.06 19.75 73.33 19.12 73.33 19.03C73.33 19.03 73.33 19.03 73.33 18.94C73.33 18.85 73.33 18.85 73.33 18.85C73.33 18.85 73.33 18.85 73.24 18.94C73.24 19.03 73.15 19.03 73.15 19.03C73.15 19.03 73.15 19.03 73.15 18.94V18.85V18.76V18.67C73.15 18.67 73.06 18.67 73.06 18.85C72.88 19.12 72.79 19.3 72.79 19.3C72.79 19.3 72.88 19.12 72.88 19.03C73.15 18.49 73.33 18.13 73.33 18.04C73.33 17.95 73.33 17.95 73.33 17.86V17.77C73.33 17.68 73.24 17.68 73.24 17.68C73.24 17.68 73.24 17.68 73.24 17.59C73.24 17.5 73.24 17.5 73.24 17.41C73.24 17.32 73.24 17.32 73.24 17.23C73.24 17.14 73.15 17.14 73.15 17.23C73.06 17.32 73.15 17.32 73.15 17.23C73.15 17.14 73.15 17.14 73.15 17.05C73.06 16.96 73.06 16.96 73.06 16.87C73.06 16.78 73.06 16.78 73.06 16.69C73.06 16.69 72.97 16.78 72.97 16.87C72.88 17.05 72.79 17.23 72.79 17.14V17.05V16.96C72.79 16.96 72.79 16.96 72.7 16.96C72.61 16.96 72.61 16.96 72.52 16.96H72.43H72.34C72.34 16.96 72.34 16.96 72.25 16.96L72.16 17.05C72.07 17.05 72.07 17.14 72.07 17.14V17.23V17.05C72.07 16.96 72.07 16.96 71.98 16.96H71.89C71.98 16.87 71.89 16.87 71.8 16.96C71.71 17.14 71.62 17.23 71.44 17.32C71.35 17.32 71.35 17.41 71.26 17.41C71.17 17.5 71.08 17.77 70.99 17.86C70.99 17.95 70.99 17.95 70.9 18.04C70.9 18.04 70.81 18.22 70.81 18.31C70.81 18.4 70.72 18.58 70.72 18.67C70.72 18.76 70.63 18.85 70.63 18.85C70.63 18.94 70.54 19.03 70.54 19.03C70.54 19.12 70.45 19.21 70.36 19.39C70.27 19.57 70.27 19.66 70.27 19.75C70.18 19.93 70.18 19.93 70.18 19.93C70.18 19.93 69.82 19.66 69.64 19.48C69.55 19.39 69.46 19.3 69.37 19.3C69.28 19.21 69.19 19.21 69.19 19.12C69.19 19.03 69.1 19.03 69.01 18.94C68.92 18.85 68.74 18.67 68.65 18.58C68.65 18.49 68.56 18.4 68.47 18.4C68.29 18.22 68.2 18.13 68.11 18.04C68.02 17.95 68.02 17.86 67.93 17.86C67.93 17.86 67.84 17.77 67.75 17.68C67.66 17.59 67.57 17.5 67.48 17.41C67.39 17.32 67.3 17.23 67.3 17.23C67.3 17.23 67.57 16.96 67.75 16.87C67.84 16.87 67.93 16.78 68.02 16.69C68.11 16.6 68.2 16.51 68.29 16.51C68.56 16.33 68.74 16.06 68.92 15.97C69.01 15.88 69.1 15.79 69.19 15.7C69.37 15.52 69.37 15.52 69.46 15.34C69.55 15.25 69.64 15.07 69.64 14.98C69.73 14.8 69.82 14.8 69.91 14.53C70 14.44 70 14.26 70.09 14.17C70.18 13.99 70.18 13.9 70.27 13.72C70.27 13.63 70.27 13.45 70.36 13.27C70.36 13.09 70.36 13 70.36 12.91C70.36 12.82 70.36 12.64 70.36 12.55C70.36 12.46 70.36 12.28 70.36 12.28C70.36 12.28 70.36 12.1 70.27 12.1C70.27 11.92 70.09 11.65 70 11.29C69.91 11.02 69.64 10.75 69.46 10.48C69.37 10.39 69.28 10.3 69.28 10.3C69.28 10.3 69.19 10.21 69.1 10.12C69.01 10.03 68.83 9.93999 68.74 9.84999L68.65 9.75999C68.65 9.75999 68.83 9.48999 68.65 9.39999C68.38 9.21999 68.11 9.12999 67.75 9.03999C67.66 9.03999 67.48 8.94999 67.39 8.94999C67.21 8.85999 66.76 8.85999 66.58 8.85999C66.49 8.85999 66.4 8.85999 66.4 8.85999C66.22 8.67999 66.13 8.67999 65.95 8.67999ZM66.31 11.02C66.58 11.02 66.76 11.11 67.03 11.2C67.21 11.29 67.3 11.29 67.39 11.47C67.57 11.65 67.75 11.92 67.84 12.1C67.93 12.28 67.93 12.46 67.93 12.82C67.93 13.09 67.93 13.18 67.84 13.36C67.75 13.63 67.75 13.72 67.66 13.81C67.66 13.9 67.57 13.99 67.57 13.99C67.48 14.08 67.39 14.17 67.3 14.26C67.3 14.44 67.3 14.44 67.3 14.44C67.3 14.44 67.21 14.53 67.21 14.62C67.12 14.71 66.94 14.8 66.85 14.89C66.85 14.89 66.76 14.98 66.67 14.98C66.58 15.07 66.22 15.25 66.13 15.34C66.04 15.34 66.04 15.34 65.95 15.25C65.95 15.25 65.86 15.16 65.77 15.07C65.59 14.98 65.5 14.89 65.32 14.62C65.23 14.53 65.05 14.35 64.96 14.17C64.69 14.08 64.6 13.99 64.51 13.9C64.33 13.63 64.33 13.54 64.24 13.18C64.15 12.82 64.15 12.55 64.15 12.37C64.24 12.01 64.42 11.65 64.6 11.56C64.78 11.47 65.14 11.2 65.32 11.2C65.59 11.02 66.04 11.02 66.31 11.02ZM65.5 18.85C65.68 19.03 65.86 19.21 65.86 19.3C65.95 19.39 66.04 19.57 66.22 19.66C66.4 19.84 66.58 20.02 66.67 20.11C66.76 20.2 66.94 20.38 67.03 20.47C67.12 20.56 67.21 20.65 67.3 20.74C67.39 20.83 67.57 21.01 67.66 21.19C68.11 21.64 68.29 21.82 68.38 21.91C68.38 22 68.47 22 68.56 22.09C68.65 22.18 68.74 22.27 68.74 22.36C68.74 22.45 68.29 22.9 68.11 22.99L68.02 23.08C68.02 23.08 67.93 23.17 67.75 23.26C67.66 23.35 67.48 23.35 67.48 23.44C67.39 23.44 67.3 23.53 67.3 23.53C67.21 23.53 66.76 23.71 66.58 23.71C66.58 23.71 66.49 23.71 66.4 23.71C66.31 23.71 66.22 23.71 65.86 23.71C65.14 23.71 64.96 23.71 64.87 23.62C64.69 23.53 64.42 23.44 64.33 23.35L64.24 23.26C64.06 23.17 63.79 22.9 63.61 22.63C63.43 22.36 63.25 21.91 63.25 21.55C63.16 21.19 63.25 20.56 63.43 20.2C63.61 19.84 63.79 19.57 64.15 19.12C64.42 18.85 65.14 18.31 65.23 18.31C65.14 18.49 65.32 18.58 65.5 18.85Z" fill="#0A5AD2"/>
<path fill-rule="evenodd" clip-rule="evenodd" d="M113.65 15.88C113.11 15.97 112.75 16.06 112.48 16.15C112.21 16.24 111.94 16.42 111.85 16.51C111.76 16.51 111.76 16.6 111.67 16.6C111.67 16.6 111.58 16.69 111.49 16.78C111.4 16.87 111.31 17.05 111.22 17.05C111.13 17.14 111.04 17.23 111.04 17.32C111.04 17.41 110.95 17.41 110.95 17.41V17.32C110.95 17.23 110.95 16.87 110.86 16.69C110.86 16.6 110.77 16.51 110.68 16.42C110.68 16.42 110.59 16.33 110.5 16.33C110.41 16.33 110.23 16.24 110.14 16.24C109.78 16.06 109.78 16.06 109.51 16.06C109.24 16.06 109.06 16.06 108.97 16.15C108.7 16.42 108.43 16.6 108.34 16.87C108.25 17.05 108.25 17.14 108.34 17.23C108.43 17.41 108.52 17.59 108.52 17.77C108.52 17.86 108.52 17.95 108.52 18.31C108.52 18.58 108.52 18.76 108.52 18.85C108.52 19.12 108.52 19.3 108.52 19.57C108.52 19.75 108.52 19.84 108.52 20.11C108.52 20.29 108.52 20.65 108.52 20.83C108.52 21.01 108.52 21.37 108.52 21.55C108.52 21.73 108.52 22.36 108.52 22.99C108.52 23.98 108.52 24.16 108.52 24.34C108.43 24.97 108.43 25.51 108.43 25.78C108.52 26.05 108.7 26.32 108.97 26.41C109.06 26.41 109.06 26.41 109.33 26.41C109.51 26.41 109.69 26.41 109.87 26.41C110.14 26.41 110.32 26.41 110.77 26.41C111.04 26.41 111.22 26.41 111.31 26.32C111.49 26.23 111.58 26.05 111.67 25.87C111.67 25.78 111.67 25.69 111.67 25.42C111.67 25.24 111.58 24.97 111.58 24.88C111.58 24.52 111.49 21.28 111.58 20.65C111.58 20.02 111.58 20.02 111.67 19.93C111.76 19.75 111.85 19.66 111.94 19.48C112.12 19.3 112.21 19.3 112.48 19.12C112.75 19.03 112.75 19.03 112.93 18.94C113.11 18.94 113.29 18.94 113.29 18.94C113.29 18.94 113.29 18.94 113.29 19.03C113.29 19.12 113.29 19.12 113.38 19.12C113.47 19.21 113.47 19.21 114.01 19.12C114.28 19.12 114.37 19.12 114.46 18.94C114.64 18.76 114.64 18.76 114.82 18.67C115 18.58 115.09 18.49 115.27 18.22C115.45 17.95 115.45 17.86 115.45 17.5C115.45 17.23 115.45 17.23 115.45 17.23C115.45 17.23 115.36 17.14 115.45 17.05C115.54 16.87 115.36 16.51 115.09 16.33C114.64 16.15 114.19 16.06 113.83 16.06C113.2 16.15 112.57 16.33 112.21 16.6C112.12 16.51 112.03 16.6 111.94 16.6C111.76 16.6 112.39 16.24 112.75 16.15C113.02 16.06 113.56 15.88 113.65 15.88H113.83C113.83 15.88 113.74 15.88 113.65 15.88Z" fill="#0A5AD2"/>
<path fill-rule="evenodd" clip-rule="evenodd" d="M119.41 16.06C119.05 16.15 118.51 16.24 118.24 16.33C118.06 16.42 117.88 16.51 117.7 16.6C117.61 16.6 117.61 16.69 117.52 16.69C117.34 16.78 117.34 16.78 117.07 17.05C116.8 17.32 116.71 17.5 116.71 17.59C116.71 17.68 116.62 17.77 116.62 17.86C116.44 18.13 116.35 18.4 116.35 18.85C116.35 19.21 116.35 19.57 116.53 20.02C116.62 20.38 116.8 20.74 116.98 20.92C117.07 21.01 117.34 21.28 117.43 21.28C117.52 21.28 117.61 21.37 117.7 21.46C118.06 21.64 118.33 21.82 119.05 22.18C119.32 22.27 119.68 22.45 119.95 22.54C120.4 22.72 120.49 22.81 120.67 22.99C120.85 23.26 120.85 23.26 120.85 23.35C120.85 23.44 120.85 23.53 120.76 23.62C120.76 23.71 120.67 23.8 120.58 23.8C120.49 23.89 120.49 23.89 120.31 23.89C119.86 23.98 119.5 23.98 119.05 23.89C118.6 23.8 118.06 23.53 117.7 23.35C117.61 23.26 117.43 23.26 117.43 23.17H117.34L117.43 23.26C117.61 23.44 117.79 23.62 117.97 23.71C118.15 23.8 118.33 23.89 118.15 23.89C117.97 23.89 117.43 23.62 117.07 23.44C116.98 23.35 116.89 23.35 116.89 23.35C116.89 23.35 116.89 23.44 116.89 23.53C116.89 23.53 116.89 23.62 116.8 23.62C116.71 23.71 116.71 23.71 116.71 23.71C116.71 23.8 116.71 23.89 116.8 23.98C116.89 24.07 117.07 24.16 117.16 24.16C117.07 24.16 116.98 24.07 116.53 23.89C116.44 23.89 116.35 23.8 116.35 23.8C116.26 23.8 116.26 23.71 116.26 23.8C116.26 23.89 116.26 23.8 116.26 23.89C116.26 23.89 116.26 23.98 116.26 24.07C116.26 24.16 116.26 24.16 116.26 24.25C116.26 24.34 116.26 24.34 116.26 24.43V24.52L116.35 24.61C116.35 24.7 116.44 24.7 116.53 24.79C116.62 24.88 116.62 24.88 116.53 24.88L116.44 24.79C116.35 24.7 116.35 24.7 116.35 24.88C116.35 25.06 116.53 25.24 116.8 25.42C117.16 25.6 117.52 25.78 118.42 25.96C118.78 26.05 118.87 26.05 119.14 26.05C119.32 26.05 119.68 26.05 119.86 26.05C120.22 26.05 120.22 26.05 120.58 25.96C121.21 25.87 121.57 25.78 121.93 25.6C122.11 25.51 122.47 25.24 122.65 25.15C122.92 24.88 123.19 24.61 123.28 24.43C123.28 24.34 123.37 24.25 123.37 24.16C123.37 24.07 123.46 23.89 123.55 23.8C123.64 23.62 123.64 23.62 123.64 23.26C123.64 22.9 123.64 22.9 123.64 22.63C123.55 22.18 123.46 21.91 123.19 21.46C123.01 21.28 122.92 21.1 122.74 21.01C122.65 20.92 122.56 20.92 122.47 20.83C122.38 20.74 122.29 20.74 122.29 20.65C122.2 20.65 122.11 20.56 122.02 20.47C121.75 20.29 121.39 20.11 120.94 19.93C120.13 19.66 119.77 19.48 119.41 19.21C119.14 19.03 119.05 18.94 119.05 18.76C119.05 18.4 119.41 18.13 119.86 18.13C120.13 18.13 120.67 18.22 120.94 18.31C121.12 18.4 121.39 18.49 121.39 18.58C121.48 18.67 121.48 18.67 121.66 18.67C121.84 18.67 122.02 18.67 122.11 18.67C122.11 18.67 122.2 18.67 122.2 18.58C122.2 18.58 122.29 18.49 122.38 18.49C122.56 18.4 122.83 18.22 122.92 18.04C123.01 17.86 123.1 17.32 123.01 17.14C122.92 17.05 122.92 16.96 122.92 16.96C123.01 16.87 122.92 16.78 122.92 16.69C123.1 16.78 123.1 16.78 123.01 16.69C122.92 16.69 122.83 16.6 122.83 16.51C122.74 16.42 122.65 16.42 122.29 16.33C121.75 16.24 121.3 16.15 121.12 16.15C121.03 16.15 120.94 16.15 120.85 16.15C120.31 16.06 119.68 16.06 119.41 16.06Z" fill="#0A5AD2"/>
<path fill-rule="evenodd" clip-rule="evenodd" d="M96.8199 16.24C96.7299 16.24 96.6399 16.24 96.5499 16.33C96.5499 16.33 96.4599 16.33 96.3699 16.33C96.1899 16.33 96.1899 16.33 96.0999 16.51C96.0099 16.69 95.9199 17.23 96.0099 17.59C96.0099 17.77 96.0099 18.04 96.0099 20.02C96.0099 22.36 96.0099 22.27 96.0999 22.9C96.3699 24.43 97.0899 25.51 98.1699 26.05C99.0699 26.5 100.33 26.59 101.41 26.32C101.77 26.23 102.22 26.05 102.58 25.78C102.85 25.6 103.12 25.33 103.3 25.15C103.39 25.06 103.39 25.06 103.39 25.06C103.39 25.06 103.39 25.15 103.48 25.24C103.57 25.42 103.66 25.87 103.66 25.87V25.78V25.6L103.75 25.69C103.75 25.78 103.84 25.87 103.84 25.87C103.84 25.96 103.93 25.96 103.93 25.96C103.93 25.96 103.93 25.96 103.93 26.05C103.93 26.14 103.93 26.14 104.02 26.23C104.11 26.23 104.11 26.23 104.2 26.23C104.29 26.23 104.29 26.23 104.29 26.32C104.29 26.41 104.29 26.41 104.29 26.32L104.38 26.23H104.47C104.47 26.23 104.47 26.23 104.56 26.23C104.65 26.23 104.65 26.23 104.65 26.23C104.65 26.32 104.65 26.32 104.83 26.23C104.92 26.23 104.92 26.14 104.92 25.96C104.92 26.05 104.92 26.05 104.92 26.14C105.01 26.14 105.01 26.14 105.01 25.96C105.01 25.87 105.1 25.87 105.1 25.96C105.1 26.05 105.1 26.05 105.1 26.05C105.1 26.05 105.1 25.96 105.19 26.05C105.19 26.05 105.28 25.69 105.28 25.42C105.28 25.24 105.28 23.8 105.28 21.55C105.28 19.57 105.28 17.86 105.28 17.68C105.28 17.41 105.28 17.41 105.37 17.32V17.23V17.05C105.37 16.87 105.37 16.78 105.28 16.78C105.19 16.69 105.1 16.6 105.01 16.51C104.83 16.42 104.74 16.42 104.29 16.42C104.11 16.42 103.84 16.42 103.75 16.42C103.66 16.42 103.66 16.42 103.48 16.33L103.3 16.24H103.21C102.94 16.24 102.67 16.42 102.58 16.51C102.49 16.6 102.4 16.78 102.4 16.87C102.4 16.96 102.4 16.96 102.4 17.05C102.4 17.14 102.4 17.23 102.4 17.41L102.49 17.59V19.84C102.49 22.36 102.49 22.18 102.4 22.63C102.22 23.08 102.04 23.35 101.77 23.53C101.5 23.71 101.14 23.8 100.78 23.89C100.24 23.98 99.6099 23.71 99.2499 23.26C98.9799 22.99 98.8899 22.54 98.7999 22C98.7999 21.91 98.7999 21.01 98.7999 19.57C98.7999 16.69 98.7999 16.96 98.7999 16.78C98.7099 16.6 98.6199 16.42 98.4399 16.42C98.4399 16.42 98.2599 16.42 98.1699 16.42C97.9899 16.42 97.9899 16.42 97.8999 16.42C97.8099 16.51 97.8099 16.51 97.8099 16.42C97.8099 16.42 97.7199 16.42 97.5399 16.33C97.4499 16.33 97.2699 16.33 97.1799 16.24C97.1799 16.24 96.9999 16.24 96.8199 16.24Z" fill="#0A5AD2"/>
</g>
<defs>
<clipPath id="clip0_4003_11969">
<rect width="81" height="18" fill="white" transform="translate(43 8.5)"/>
</clipPath>
</defs>
</svg>
