<svg width="81" height="18" viewBox="0 0 81 18" fill="none" xmlns="http://www.w3.org/2000/svg">
<g clip-path="url(#clip0_6366_537)">
<path fill-rule="evenodd" clip-rule="evenodd" d="M41.9921 0.0281056C41.9202 0.0460933 41.8123 0.0820686 41.7493 0.100057C41.5964 0.154019 41.4436 0.181001 41.0298 0.234964C40.2024 0.342889 39.6717 0.48679 38.8264 0.828555C38.3316 1.02642 37.6571 1.36819 37.4053 1.53906C36.5419 2.14165 35.9213 2.6633 35.5436 3.13996C35.4446 3.26588 35.3367 3.3828 35.3097 3.40978C35.2018 3.49972 34.7701 4.12029 34.5722 4.48005C34.4463 4.70489 34.4013 4.77684 34.3294 4.88477C34.2484 5.00169 34.1495 5.20854 34.0596 5.46037C34.0146 5.57729 33.9247 5.80214 33.8438 5.95503C33.7538 6.1349 33.6909 6.2878 33.6639 6.39573C33.6009 6.62057 33.4571 7.40304 33.4301 7.60989C33.3851 7.97864 33.3581 8.17651 33.3311 8.26645C33.2591 8.56324 33.2501 9.4446 33.3221 9.83133C33.3311 9.88533 33.3491 10.0652 33.3581 10.2271C33.3761 10.5059 33.3761 10.5509 33.4571 10.8207C33.502 10.9826 33.556 11.2074 33.5919 11.3153C33.7089 11.7741 33.9697 12.5115 34.1225 12.8173C34.1585 12.8893 34.2125 13.0152 34.2484 13.0872C34.3294 13.285 34.4553 13.5188 34.6352 13.7886C34.7252 13.9235 34.8151 14.0674 34.8421 14.1124C34.8691 14.1574 34.986 14.3013 35.1029 14.4452C35.2198 14.5801 35.3637 14.751 35.4087 14.8139C35.4626 14.8769 35.5615 15.0028 35.6335 15.0837C35.7054 15.1647 35.8493 15.3176 35.9483 15.4165C36.0473 15.5155 36.2092 15.6594 36.2901 15.7403C36.371 15.8213 36.5059 15.9382 36.5779 15.9921C36.6498 16.0461 36.7757 16.145 36.8567 16.208C36.9376 16.2709 37.0725 16.3698 37.1534 16.4148C37.2434 16.4688 37.3874 16.5587 37.4773 16.6306C37.6841 16.7836 38.0528 16.9725 38.3047 17.0624C38.4036 17.0984 38.5205 17.1524 38.5475 17.1703C38.6105 17.2153 38.8533 17.3232 38.9523 17.3412C38.9792 17.3502 39.1051 17.3952 39.2221 17.4491C39.5188 17.593 39.6627 17.629 40.0495 17.7009C40.2384 17.7369 40.4902 17.7819 40.5981 17.7999C40.7959 17.8358 40.9938 17.8628 41.4795 17.9168C41.5964 17.9258 41.9472 17.9348 42.2619 17.9348C42.9005 17.9348 42.9815 17.9258 43.7639 17.7999C44.2676 17.7099 44.4025 17.6829 44.7352 17.575C44.8611 17.5301 45.032 17.4761 45.104 17.4581C45.5897 17.3052 45.7785 17.2243 46.2822 16.9635C46.615 16.7926 46.8758 16.6396 47.0467 16.5227C47.1906 16.4238 47.4424 16.2529 47.6042 16.145C47.9551 15.9112 48.027 15.8482 48.1349 15.6864C48.2159 15.5605 48.3418 15.4435 48.5486 15.2726C48.6565 15.1827 49.0793 14.742 49.2052 14.5891C49.2412 14.5441 49.2952 14.4632 49.3221 14.4092C49.3491 14.3553 49.4031 14.2743 49.4301 14.2384C49.5919 14.0134 49.7358 13.7886 49.7898 13.6717C49.8257 13.5998 49.8797 13.5098 49.9067 13.4829C50.0146 13.3749 50.0596 13.285 50.1855 12.9253C50.2484 12.7273 50.3294 12.5025 50.3654 12.4306C50.4014 12.3586 50.4554 12.2147 50.4913 12.1158C50.5273 12.0169 50.5903 11.882 50.6262 11.819C50.7072 11.6841 50.7252 11.6302 50.7252 11.5582C50.7252 11.4862 50.7791 11.2254 50.8511 11.0005C50.977 10.5599 51.0309 10.2271 51.0489 9.73242C51.0579 9.5526 51.0669 9.39069 51.0759 9.36369C51.0939 9.30969 51.0669 8.62619 51.0309 8.23946C51.0129 8.09556 51.004 7.93367 51.004 7.87072C51.004 7.79876 50.986 7.66386 50.941 7.51996C50.905 7.38505 50.8601 7.1602 50.8241 7.0163C50.7971 6.8724 50.7342 6.63856 50.6892 6.50365C50.6442 6.36875 50.5903 6.18887 50.5723 6.11692C50.5093 5.90107 50.1765 5.16358 50.0236 4.87578C49.7808 4.43507 49.3311 3.72457 49.2502 3.6616C49.2322 3.64362 49.1872 3.58966 49.1423 3.53569C49.0973 3.48173 48.9983 3.36481 48.9263 3.27487C48.7645 3.095 48.6026 2.89714 48.5306 2.78921C48.4857 2.72625 48.4407 2.69927 48.2968 2.61832C48.1439 2.53738 48.09 2.50141 48.018 2.42046C47.8921 2.27656 47.8651 2.24958 47.7572 2.19561C47.6672 2.15065 47.6492 2.13266 47.5953 2.03373C47.5233 1.90781 47.5143 1.88983 46.9298 1.53906C46.0393 0.999441 45.113 0.60371 44.4115 0.477796C44.3305 0.459809 44.2496 0.450815 44.2226 0.441822C44.1957 0.432827 44.1867 0.441822 44.1957 0.450815C44.2046 0.459809 44.3036 0.495784 44.4205 0.522766C45.095 0.711636 45.9044 1.0444 46.0753 1.21529C46.1113 1.25126 46.1832 1.29623 46.2372 1.31422C46.3001 1.34121 46.3451 1.36819 46.3631 1.40416C46.3811 1.43114 46.4261 1.46712 46.4621 1.48511C46.5431 1.52108 46.678 1.64699 46.642 1.66498C46.633 1.67397 46.561 1.64699 46.4891 1.60203C45.6347 1.11636 44.4115 0.675661 43.5031 0.522766C43.2063 0.477796 43.2063 0.468803 43.1973 0.387859C43.1883 0.342889 43.1703 0.29792 43.1434 0.279932C43.1074 0.243958 42.9005 0.154019 42.5948 0.0550871C42.4328 -0.00786959 42.172 -0.0168634 41.9921 0.0281056ZM42.226 3.56268C42.5588 3.60765 42.7387 3.59865 42.9275 3.54469C43.0354 3.50871 43.0624 3.50871 43.2333 3.5267C43.4671 3.55369 43.62 3.58966 43.9438 3.69759C44.2856 3.80551 44.5464 3.93142 44.9241 4.14727C45.4818 4.47106 45.8415 4.74986 46.1473 5.10961C46.2552 5.23552 46.4351 5.43339 46.5431 5.54132C46.7679 5.77516 47.0017 6.07195 47.0737 6.22485C47.1006 6.2878 47.1906 6.46768 47.2715 6.62957C47.4514 7.00731 47.5053 7.12423 47.5593 7.3131C47.6312 7.56492 47.7392 7.99662 47.8112 8.37436L47.8831 8.73412L47.8741 9.21078C47.8651 9.75942 47.8472 9.88533 47.7302 10.3441C47.6852 10.5239 47.6402 10.7128 47.6312 10.7757C47.6222 10.8477 47.5863 10.9466 47.5413 11.0365C47.4514 11.2074 47.4424 11.2254 47.3345 11.4772C47.2085 11.7651 47.1006 11.9629 46.9478 12.1967C46.66 12.6284 46.3181 13.0422 46.1473 13.1591C46.1023 13.1861 46.0124 13.267 45.9314 13.339C45.6706 13.5818 45.4638 13.7167 44.8881 14.0404C44.3575 14.3373 44.0518 14.4542 43.5031 14.5981C42.9905 14.724 42.8376 14.742 42.3519 14.742C41.7133 14.742 41.1467 14.688 40.8139 14.6161C40.5531 14.5531 40.3913 14.4902 39.8426 14.2384C39.4559 14.0584 38.9792 13.7616 38.7544 13.5548C38.6734 13.4829 38.5385 13.3659 38.4485 13.303C38.2237 13.1321 38.0079 12.8983 37.6931 12.4845C37.2974 11.9629 37.0905 11.5762 36.8656 10.9286C36.6318 10.2451 36.5509 9.71442 36.5419 8.93199C36.5419 8.43733 36.5599 8.31141 36.6408 8.01462C36.6768 7.8977 36.7128 7.71782 36.7308 7.61889C36.7487 7.47499 36.7667 7.41203 36.8297 7.3041C36.8656 7.23216 36.9286 7.07026 36.9646 6.96234C37.1534 6.39573 37.5222 5.82013 38.0528 5.22653C38.2597 4.9927 38.6195 4.66891 38.7544 4.57897C38.8084 4.543 38.8983 4.48005 38.9613 4.43507C39.2221 4.24621 39.5368 4.07533 40.0315 3.86847C40.4992 3.6706 40.8229 3.58067 41.2097 3.54469C41.4166 3.49972 41.8932 3.5177 42.226 3.56268Z" fill="#F8F9FA"/>
<path fill-rule="evenodd" clip-rule="evenodd" d="M1.39405 0.180988C1.10624 0.216963 0.782463 0.297908 0.674537 0.351871C0.647555 0.360864 0.602586 0.405834 0.584599 0.450802C0.539629 0.522753 0.512648 0.540741 0.377741 0.576716C0.296796 0.603697 0.206858 0.70263 0.152895 0.810555C0.0809444 0.954453 0 1.35917 0 1.58402V1.70994L0.0719506 1.7729C0.11692 1.80887 0.161888 1.86283 0.170883 1.88981C0.18887 1.93478 0.18887 2.13264 0.18887 2.86115C0.179877 4.32714 0.179877 4.86677 0.206858 5.28947C0.224845 5.55029 0.224845 5.78414 0.215852 5.982C0.206858 6.15288 0.206858 6.43169 0.215852 6.62956C0.224845 6.86339 0.224845 7.1602 0.215852 7.56492C0.18887 8.25744 0.18887 11.2523 0.215852 11.6751C0.233839 12.0618 0.260821 12.1877 0.422709 12.8263C0.575604 13.4199 0.629567 13.5998 0.755481 13.8875C0.908379 14.2474 1.04328 14.4902 1.33108 14.9308C1.43002 15.0927 1.55593 15.2996 1.6009 15.3985C1.69084 15.5964 1.7448 15.6594 1.87071 15.7223C1.92468 15.7493 2.03261 15.8482 2.17651 15.9921C2.59922 16.4148 2.93198 16.6936 3.10287 16.7746C3.15683 16.8016 3.31872 16.8915 3.45362 16.9725C3.58853 17.0534 3.79539 17.1703 3.90332 17.2243C4.02024 17.2782 4.16414 17.3592 4.24508 17.4131C4.54188 17.602 4.6588 17.638 5.11748 17.7099C5.27038 17.7369 5.46824 17.7729 5.55818 17.7998C5.86397 17.8808 5.90894 17.8898 6.23272 17.9168C6.59247 17.9527 7.44688 17.9527 7.77965 17.9258C8.25633 17.8808 8.75998 17.7819 9.2007 17.629C9.34461 17.584 9.53343 17.5301 9.62343 17.5121C9.90216 17.4491 10.0641 17.3772 10.3609 17.1703C10.4688 17.0894 10.6667 16.9635 10.8016 16.8826C11.1433 16.6756 11.3053 16.5587 11.5571 16.3519C11.8718 16.0911 12.3665 15.5784 12.4925 15.3805C12.5554 15.2906 12.6813 15.1107 12.7892 14.9758C13.0051 14.688 13.041 14.6341 13.122 14.4812C13.1669 14.3823 13.4188 13.8336 13.5986 13.4469C13.6346 13.3749 13.6706 13.249 13.6886 13.1681C13.7066 13.0871 13.7336 12.9523 13.7606 12.8623C13.7876 12.7723 13.8146 12.6644 13.8146 12.6284C13.8146 12.5924 13.8325 12.4845 13.8595 12.3856C13.8955 12.2507 13.9045 12.1428 13.9225 11.891C13.9315 11.7111 13.9494 11.5042 13.9674 11.4232C14.0124 11.1894 14.0124 11.0185 13.9944 10.8117C13.9764 10.6768 13.9764 10.0562 13.9764 8.77009C13.9764 7.3041 13.9674 6.87239 13.9494 6.69251C13.9045 6.30578 13.9045 5.87408 13.9315 5.16356C13.9494 4.79482 13.9584 3.98537 13.9674 3.3738C13.9764 2.04271 13.9854 1.7639 14.0484 1.55704C14.1023 1.37717 14.1023 1.31421 14.0574 1.08037C13.9944 0.765586 13.9225 0.558729 13.8325 0.46879C13.8056 0.441809 13.7336 0.414828 13.6436 0.396839C13.5626 0.378852 13.4367 0.333882 13.3468 0.288914C13.2209 0.225957 13.1669 0.20797 13.05 0.189981C12.7353 0.154007 12.3935 0.171994 12.3935 0.225957C12.3935 0.252938 12.3395 0.261932 12.2855 0.243945C12.1866 0.216963 11.9078 0.225957 11.7279 0.261932C11.629 0.27992 11.4851 0.306901 11.4042 0.315895C11.1884 0.342877 11.1074 0.360864 11.0174 0.423821C10.6577 0.675648 10.5947 0.738604 10.5497 0.873512C10.5138 0.999426 10.5228 1.17031 10.5767 1.29622C10.6127 1.39516 10.6307 1.44012 10.6397 1.64698C10.6487 1.78189 10.6577 1.93479 10.6667 1.99774C10.6936 2.15963 10.6846 2.32152 10.6577 2.42945C10.6127 2.59133 10.6037 2.76221 10.6397 3.00505C10.6667 3.18492 10.6667 3.29285 10.6577 3.57166C10.6487 3.76053 10.6487 5.26249 10.6487 6.89937C10.6487 8.68914 10.6397 10.0831 10.6307 10.38C10.5767 11.828 10.5767 11.882 10.5138 12.1338C10.4598 12.3406 10.3429 12.6104 10.19 12.8893C10.1091 13.0332 10.0012 13.222 9.95616 13.312C9.83925 13.5278 9.72234 13.6537 9.47052 13.8336C9.36261 13.9145 9.2007 14.0404 9.1197 14.1124C9.01179 14.2114 8.93086 14.2653 8.79595 14.3283C8.23834 14.6071 7.43789 14.76 6.81731 14.706C6.5475 14.688 6.05284 14.6161 5.91793 14.5711C5.80101 14.5351 5.22541 14.2384 5.04554 14.1124C4.68578 13.8696 4.33502 13.5098 4.10118 13.1411C4.03823 13.0422 3.81338 12.6284 3.72344 12.4395C3.66048 12.3046 3.57954 12.0528 3.52558 11.792C3.44463 11.4052 3.43564 11.2613 3.45362 10.9646C3.46262 10.8207 3.47162 10.0202 3.47162 9.18377C3.48061 8.34738 3.48061 7.48397 3.48061 7.25013C3.48961 6.41371 3.46262 3.92242 3.44463 3.45473C3.42664 3.03203 3.42664 2.95109 3.39067 2.85215C3.36369 2.75322 3.3547 2.69926 3.3547 2.52837C3.3547 2.33951 3.3547 2.31253 3.31872 2.22259C3.25576 2.06969 3.24677 1.88082 3.29174 1.79988C3.32771 1.73692 3.39966 1.70094 3.43564 1.71893C3.45362 1.72792 3.47162 1.7549 3.48961 1.78189C3.51658 1.83585 3.51658 1.83585 3.47162 1.90781C3.43564 1.97076 3.42664 1.98874 3.43564 2.04271C3.44463 2.07869 3.44463 2.16863 3.44463 2.24956C3.44463 2.33051 3.45362 2.44743 3.46262 2.51938C3.48061 2.58234 3.4986 2.87913 3.51658 3.17593C3.53457 3.47273 3.54356 3.71556 3.55256 3.71556C3.55256 3.71556 3.56155 3.48172 3.57054 3.19391C3.58853 2.2046 3.60653 2.11466 3.76841 1.92579L3.85835 1.82686L3.84935 1.70994C3.82237 1.39516 3.50759 0.765586 3.25576 0.522753C3.17482 0.450802 3.15683 0.441809 3.08488 0.441809C3.02192 0.441809 2.99494 0.432815 2.94098 0.387846C2.83306 0.288914 2.74312 0.261932 2.56324 0.27992C2.41034 0.288914 2.40135 0.288914 2.31142 0.234951C2.11355 0.127025 1.8887 0.109037 1.39405 0.180988ZM13.8775 1.7639C13.8865 1.90781 13.8955 2.11466 13.8955 2.23158C13.9045 2.42945 13.8865 3.09499 13.8505 4.01236C13.8415 4.21921 13.8325 4.52501 13.8235 4.68689C13.8056 5.12759 13.7876 4.94771 13.7696 4.12928C13.7606 3.74254 13.7425 3.32882 13.7336 3.21191C13.7066 2.88813 13.7246 1.82686 13.7606 1.70094C13.7966 1.59302 13.8325 1.51208 13.8505 1.51208C13.8595 1.51208 13.8685 1.62899 13.8775 1.7639Z" fill="#F8F9FA"/>
<path fill-rule="evenodd" clip-rule="evenodd" d="M22.9882 0.180984C22.9163 0.198971 22.8263 0.198971 22.6284 0.198971C22.3226 0.189977 22.0888 0.216958 21.828 0.297903C21.7381 0.324885 21.6212 0.351866 21.5672 0.360859C21.3513 0.405829 20.7847 0.612686 20.461 0.783569C20.1371 0.945462 19.7504 1.23326 19.4986 1.47609C19.3637 1.611 19.1569 1.85383 19.0669 2.00673C19.0399 2.0517 18.986 2.12365 18.959 2.15962C18.896 2.23157 18.7611 2.50139 18.7161 2.6273C18.6981 2.68126 18.6531 2.78019 18.6082 2.85215C18.5632 2.92409 18.5272 3.00504 18.5182 3.03202C18.4913 3.10398 18.3833 3.66159 18.3654 3.84146C18.3294 4.19223 18.3744 4.9657 18.4463 5.22652C18.5272 5.50532 18.788 6.13489 18.851 6.20684C18.869 6.22483 18.914 6.29678 18.941 6.35074C19.013 6.50364 19.2918 6.90836 19.4536 7.10622C19.5256 7.19616 19.6245 7.30409 19.6605 7.35805C19.6964 7.40302 19.8223 7.54692 19.9393 7.66384C20.0562 7.78975 20.2001 7.94265 20.2541 7.99661C20.3081 8.05957 20.398 8.1585 20.443 8.21247C20.4969 8.26643 20.5419 8.32039 20.5419 8.33838C20.5419 8.36536 20.5239 8.37435 20.2721 8.52725C20.0202 8.67115 19.6785 8.89599 19.4896 9.03094C19.4267 9.07585 19.3277 9.14785 19.2648 9.19276C19.1569 9.26476 18.788 9.61549 18.4463 9.96622C18.2215 10.1911 18.0146 10.4699 17.9337 10.6318C17.9067 10.6948 17.8258 10.8027 17.7718 10.8836C17.5919 11.1175 17.457 11.4502 17.3221 11.9719C17.2861 12.1248 17.2321 12.3047 17.2141 12.3586C17.1692 12.4935 17.1422 12.7723 17.1332 13.2311C17.1242 13.6088 17.1242 13.6357 17.2051 14.1034C17.2231 14.1753 17.2411 14.3102 17.2501 14.4002C17.2771 14.5981 17.3311 14.76 17.4659 15.0388C17.5289 15.1647 17.6099 15.3266 17.6459 15.4165C17.7179 15.5694 17.7898 15.6773 18.0236 15.9921C18.2125 16.244 18.2934 16.3339 18.3384 16.3699C18.3654 16.3878 18.4103 16.4328 18.4373 16.4688C18.4913 16.5407 18.6711 16.7116 18.869 16.8645C18.941 16.9184 19.0399 16.9994 19.0849 17.0444C19.1569 17.1074 19.2918 17.1793 19.7684 17.4222C20.1011 17.584 20.389 17.7279 20.416 17.7369C20.443 17.7459 20.5509 17.7639 20.6498 17.7639C20.7847 17.7729 20.8746 17.7909 20.9556 17.8268C21.1534 17.8988 21.6392 17.9617 22.2507 17.9887C22.6014 18.0067 22.6644 18.0067 23.0422 17.9617C23.4829 17.9168 23.7077 17.8988 24.0045 17.8628C24.1394 17.8538 24.2114 17.8358 24.3013 17.7999C24.3643 17.7729 24.5082 17.7279 24.6161 17.6919C24.9398 17.602 25.0478 17.566 25.1377 17.5301C25.1827 17.5121 25.2366 17.4851 25.2456 17.4851C25.2906 17.4851 25.6414 17.3412 25.9022 17.2153C26.3339 17.0084 26.7926 16.7206 26.9635 16.5677C27.0264 16.5048 27.1074 16.4508 27.1883 16.4148C27.3142 16.3519 27.4311 16.244 27.647 16.0011C27.6829 15.9562 27.7189 15.9202 27.7279 15.9202C27.7369 15.9202 27.7999 15.9832 27.8718 16.0551C27.9437 16.127 28.0877 16.244 28.1687 16.3159C28.2766 16.3968 28.3575 16.4688 28.4025 16.5317C28.4385 16.5857 28.5284 16.7116 28.6003 16.8015C28.7712 17.0444 28.7802 17.0444 28.8522 17.2423C28.9511 17.5031 29.014 17.611 29.1219 17.7099C29.2928 17.8718 29.3918 17.8988 30.0124 17.9707C30.2102 17.9977 30.489 17.8988 30.7589 17.7189C30.9657 17.584 31.0827 17.5391 31.2086 17.5481C31.2625 17.5481 31.3165 17.5481 31.3345 17.5391C31.3974 17.5121 31.7751 17.2513 31.8561 17.1614C31.982 17.0444 32 16.9994 32.063 16.7386C32.1349 16.4148 32.1439 16.172 32.072 15.9562C32.045 15.8572 32.018 15.7583 32.018 15.6503C32.009 15.5604 32 15.4704 31.982 15.4435C31.955 15.3805 31.8561 15.3266 31.6043 15.2186C31.1996 15.0478 31.1816 15.0388 30.9028 14.751C30.7319 14.5801 30.5969 14.4632 30.516 14.4092C30.444 14.3642 30.3181 14.2653 30.2372 14.1843C30.1563 14.1034 30.0214 13.9955 29.9314 13.9415C29.7965 13.8516 29.5447 13.6088 29.5447 13.5638C29.5447 13.5548 29.5627 13.5188 29.5987 13.4919C29.6257 13.4559 29.6796 13.3749 29.7246 13.312C29.7606 13.249 29.8235 13.1681 29.8505 13.1321C29.9134 13.0601 29.9404 13.0241 29.9494 12.9522C29.9584 12.9252 30.0034 12.8263 30.0573 12.7363C30.1742 12.5385 30.516 11.864 30.6239 11.6031C30.6689 11.4952 30.7229 11.3603 30.7499 11.3063C30.7859 11.2164 30.7949 11.1714 30.7589 11.1984C30.7499 11.2074 30.6869 11.3153 30.6239 11.4412C30.4171 11.828 30.2462 12.1338 30.1023 12.3676C30.0214 12.4935 29.9494 12.6104 29.9404 12.6374C29.9045 12.7094 29.9045 12.6464 29.9404 12.5655C29.9854 12.4665 29.9674 12.4665 29.9045 12.5655C29.8775 12.6104 29.8505 12.6374 29.8505 12.6284C29.8415 12.6194 29.9494 12.4216 30.0663 12.1878C30.507 11.3873 30.8039 10.7577 30.7589 10.6948C30.7499 10.6858 30.7319 10.6768 30.7139 10.6858C30.6689 10.6948 30.6689 10.6858 30.7229 10.5599C30.7499 10.4969 30.7589 10.4519 30.7589 10.4519C30.7589 10.4519 30.7229 10.4789 30.6959 10.5239C30.6689 10.5689 30.6329 10.6049 30.6329 10.6049C30.6329 10.6049 30.6329 10.5689 30.6329 10.5239C30.6419 10.4789 30.6329 10.4249 30.6239 10.3979C30.6149 10.3709 30.6149 10.344 30.6329 10.308C30.6419 10.281 30.6509 10.254 30.6419 10.245C30.6239 10.2181 30.5699 10.272 30.507 10.3889C30.3451 10.6588 30.2372 10.8297 30.2372 10.8207C30.2282 10.8207 30.2912 10.6768 30.3721 10.5149C30.6239 9.97522 30.7859 9.59749 30.8129 9.51658C30.8398 9.42667 30.8308 9.39967 30.7769 9.32767C30.7589 9.30076 30.7409 9.26476 30.7409 9.23776C30.7409 9.18376 30.6959 9.12085 30.6599 9.13885C30.6239 9.15685 30.6239 9.13885 30.6599 9.00394C30.6869 8.90499 30.6869 8.89599 30.6509 8.79706C30.6329 8.7431 30.6149 8.67115 30.6149 8.65316C30.6149 8.58121 30.552 8.59021 30.498 8.68014C30.453 8.76109 30.435 8.77907 30.462 8.70712C30.498 8.61719 30.48 8.57222 30.4171 8.53624C30.3181 8.48228 30.3181 8.47329 30.3451 8.34737C30.3631 8.28441 30.3721 8.22146 30.3811 8.20347C30.3901 8.17649 30.3901 8.17649 30.3721 8.18548C30.3631 8.19448 30.3181 8.25743 30.2822 8.33838C30.2012 8.50926 30.1023 8.68014 30.1203 8.62618C30.1293 8.5992 30.1383 8.54523 30.1383 8.50926C30.1383 8.46429 30.1473 8.41033 30.1563 8.39234C30.1653 8.34737 30.1653 8.34737 30.0753 8.34737C30.0214 8.34737 29.9494 8.32939 29.9224 8.32039C29.8865 8.3024 29.8415 8.2934 29.8055 8.3024C29.7606 8.31139 29.7336 8.3024 29.7336 8.2934C29.7246 8.28441 29.6976 8.3024 29.6616 8.33838C29.6257 8.37435 29.5627 8.41033 29.5267 8.43731C29.4728 8.46429 29.4458 8.49127 29.4188 8.54523L29.3828 8.61719V8.55423C29.3828 8.4553 29.3648 8.44631 29.2479 8.46429L29.1489 8.48228L29.1759 8.43731C29.2299 8.33838 29.1849 8.34737 29.113 8.4553C28.9871 8.63517 28.8881 8.7431 28.7892 8.81505C28.7352 8.85103 28.6633 8.91398 28.6363 8.94995C28.5734 9.02194 28.4295 9.29176 28.4025 9.41767C28.3845 9.47158 28.3665 9.54358 28.3395 9.59749C28.3216 9.64249 28.2676 9.7864 28.2226 9.91231C28.1777 10.0382 28.1147 10.1911 28.0877 10.254C28.0607 10.317 28.0157 10.4159 27.9977 10.4789C27.9797 10.5419 27.9437 10.6318 27.9258 10.6858C27.8988 10.7398 27.8358 10.9016 27.7819 11.0455C27.7279 11.1894 27.665 11.3423 27.647 11.3783C27.557 11.5312 27.5301 11.5671 27.5121 11.5671C27.4941 11.5671 27.1793 11.2704 26.9815 11.0725C26.9095 11.0006 26.8016 10.9016 26.7296 10.8567C26.6666 10.8117 26.5767 10.7398 26.5317 10.6858C26.4868 10.6318 26.4148 10.5599 26.3699 10.5239C26.235 10.4249 26.1001 10.29 26.0101 10.1551C25.9652 10.0922 25.8842 10.0022 25.8393 9.95731C25.6414 9.7864 25.5515 9.7054 25.4615 9.57949C25.4075 9.50758 25.3265 9.42667 25.2906 9.39067C25.2546 9.36367 25.1827 9.28276 25.1287 9.21076C25.0747 9.14785 24.9668 9.02194 24.8859 8.94096C24.8049 8.86002 24.742 8.78807 24.742 8.77008C24.742 8.73411 25.0388 8.47329 25.2096 8.36536C25.2816 8.32039 25.3895 8.23945 25.4435 8.18548C25.4975 8.13152 25.6234 8.03258 25.7134 7.96064C25.9472 7.77176 26.181 7.54692 26.3159 7.37603C26.3788 7.2951 26.4958 7.16019 26.5857 7.07924C26.7386 6.93534 26.7566 6.90836 26.8646 6.7015C26.9275 6.57559 27.0175 6.42269 27.0714 6.36873C27.1973 6.21583 27.2333 6.14389 27.3412 5.87407C27.3952 5.74816 27.4671 5.58627 27.5031 5.51432C27.593 5.37042 27.62 5.2445 27.647 5.01965C27.656 4.92972 27.6829 4.74984 27.7009 4.60594C27.7279 4.39009 27.7369 4.32713 27.7189 4.20122C27.7099 4.12027 27.6919 3.96738 27.6829 3.85945C27.674 3.75153 27.656 3.61663 27.638 3.56266C27.62 3.5087 27.602 3.41876 27.593 3.35581C27.575 3.2119 27.4401 2.87014 27.2962 2.56435C27.1703 2.30353 26.9545 1.97975 26.7566 1.77289C26.6936 1.70094 26.6127 1.602 26.5767 1.55704C26.5407 1.51207 26.4778 1.44911 26.4238 1.41314C26.3249 1.35018 26.172 1.23326 26.0191 1.09835C25.9742 1.06238 25.9202 1.0264 25.9112 1.0264C25.9022 1.0264 25.7853 0.963444 25.6684 0.891495C25.4345 0.747594 25.1107 0.603693 24.724 0.486773C24.6071 0.450798 24.4542 0.405829 24.3823 0.378847C24.2204 0.324884 23.7257 0.252934 23.5548 0.252934C23.4918 0.252934 23.4019 0.243939 23.357 0.225952C23.249 0.145008 23.1231 0.145008 22.9882 0.180984ZM23.294 2.55535C23.5458 2.59133 23.7437 2.66327 23.9865 2.78019C24.1844 2.87913 24.2294 2.9151 24.3823 3.05001C24.5621 3.2209 24.76 3.47272 24.8499 3.64361C24.9578 3.85945 24.9848 3.99436 24.9848 4.3721C24.9848 4.6779 24.9848 4.72286 24.9398 4.91173C24.8769 5.17255 24.8589 5.23551 24.769 5.3884C24.724 5.46036 24.67 5.55929 24.6521 5.60426C24.5801 5.72118 24.5082 5.80212 24.3823 5.88307C24.3193 5.92803 24.2654 5.96401 24.2654 5.97301C24.2654 5.982 24.2114 6.04495 24.1394 6.11691C24.0134 6.25181 23.8875 6.34175 23.7526 6.4137C23.7167 6.43169 23.6447 6.48565 23.5908 6.52163C23.5098 6.59357 23.1501 6.81842 23.0242 6.89038C22.9433 6.93534 22.9163 6.92635 22.8173 6.82741C22.7723 6.78245 22.6824 6.7015 22.6104 6.65653C22.4575 6.54861 22.3676 6.45867 22.1698 6.18885C22.0798 6.07193 21.918 5.88307 21.81 5.77514C21.6571 5.62224 21.5852 5.5323 21.4862 5.37941C21.3063 5.1006 21.2703 4.99268 21.1894 4.65991C21.0905 4.25518 21.0815 4.05732 21.1444 3.81449C21.2344 3.47272 21.4142 3.11297 21.5672 2.98706C21.7381 2.85215 22.0888 2.66327 22.3136 2.60032C22.5744 2.52837 22.9972 2.50139 23.294 2.55535ZM22.4845 10.317C22.6554 10.4879 22.8353 10.6768 22.8893 10.7398C22.9433 10.8027 23.1051 10.9736 23.258 11.1175C23.4019 11.2614 23.6088 11.4682 23.7077 11.5941C23.8066 11.711 23.9685 11.882 24.0584 11.9719C24.1484 12.0618 24.2744 12.1967 24.3373 12.2687C24.3913 12.3406 24.5711 12.5295 24.724 12.6824C25.1916 13.1501 25.3715 13.339 25.4345 13.4289C25.4615 13.4739 25.5425 13.5638 25.6054 13.6357C25.7403 13.7706 25.7943 13.8516 25.7943 13.8965C25.7943 13.9595 25.3176 14.4272 25.1287 14.5442C25.0927 14.5711 25.0388 14.6071 25.0118 14.6341C24.9848 14.6611 24.8769 14.724 24.769 14.787C24.67 14.8409 24.5352 14.9219 24.4722 14.9578C24.4092 14.9938 24.3103 15.0478 24.2474 15.0747C24.1304 15.1197 23.6627 15.2456 23.5188 15.2636C23.4739 15.2726 23.3929 15.2816 23.33 15.2996C23.231 15.3176 23.1411 15.3266 22.8083 15.3176C22.1068 15.2996 21.9359 15.2816 21.792 15.2276C21.6302 15.1647 21.3063 15.0118 21.2344 14.9578C21.2074 14.9398 21.1534 14.9039 21.1085 14.8769C20.9376 14.787 20.6678 14.5262 20.4789 14.2743C20.3081 14.0404 20.1371 13.5818 20.0742 13.2221C20.0202 12.8892 20.1191 12.2687 20.2901 11.882C20.452 11.5132 20.6498 11.2254 21.0365 10.8117C21.2703 10.5599 22.0259 10.0292 22.1518 10.0292C22.1698 10.0112 22.2777 10.1101 22.4845 10.317Z" fill="#F8F9FA"/>
<path fill-rule="evenodd" clip-rule="evenodd" d="M70.6195 7.41208C70.1159 7.47503 69.7291 7.56498 69.4503 7.6819C69.1535 7.80781 68.8837 7.94272 68.7938 8.00567C68.7488 8.04164 68.6768 8.09561 68.6318 8.1136C68.5868 8.13158 68.4969 8.23052 68.416 8.32945C68.335 8.41938 68.2091 8.56328 68.1372 8.64423C68.0652 8.72518 67.9663 8.85109 67.9213 8.91404C67.8764 8.97701 67.8314 9.031 67.8224 9.031C67.8134 9.022 67.8134 8.986 67.8134 8.94102C67.8314 8.85109 67.7954 8.44636 67.7595 8.32045C67.7325 8.22152 67.6785 8.13158 67.6156 8.08662C67.5886 8.06863 67.5076 8.03265 67.4177 8.01466C67.3367 7.98768 67.1658 7.92473 67.0489 7.87975C66.7072 7.73585 66.6622 7.72686 66.3924 7.72686C66.1406 7.72686 65.9516 7.76283 65.8437 7.8168C65.6639 7.90673 65.466 8.13158 65.3491 8.36542C65.2592 8.5453 65.2592 8.60826 65.3671 8.75216C65.466 8.90505 65.5469 9.09391 65.5829 9.26482C65.6009 9.38173 65.6099 9.45364 65.5919 9.77746C65.5829 10.0203 65.5739 10.2092 65.5919 10.3171C65.6099 10.5509 65.6099 10.7757 65.5919 11.0096C65.5739 11.1625 65.5739 11.2705 65.5919 11.5133C65.6099 11.6931 65.6099 12.0169 65.6099 12.2417C65.6099 12.4666 65.6099 12.8084 65.6189 12.9882C65.6279 13.1951 65.6279 13.7707 65.6189 14.4452C65.6099 15.4256 65.6009 15.5965 65.5739 15.8033C65.484 16.4329 65.448 17.0175 65.502 17.2333C65.5649 17.5121 65.7628 17.746 66.0146 17.8449C66.1046 17.8809 66.1406 17.8809 66.3834 17.8809C66.5543 17.8809 66.7521 17.8629 66.896 17.8449C67.1748 17.8 67.3816 17.8 67.7774 17.818C68.0832 17.8359 68.2001 17.818 68.344 17.755C68.5239 17.6741 68.6498 17.4941 68.6858 17.2693C68.7037 17.1704 68.6947 17.1074 68.6588 16.7836C68.6318 16.5768 68.6048 16.316 68.5958 16.199C68.5688 15.8662 68.5419 12.6375 68.5598 11.9359C68.5778 11.3424 68.5778 11.3244 68.6228 11.1985C68.6858 11.0276 68.7848 10.8837 68.9287 10.7398C69.0816 10.5959 69.1715 10.5329 69.4952 10.38C69.7291 10.2631 69.756 10.2541 69.9629 10.2272C70.1878 10.1912 70.2957 10.1912 70.3227 10.2361C70.3407 10.2541 70.3407 10.2631 70.3227 10.2901C70.2867 10.3351 70.3137 10.362 70.4396 10.425C70.5655 10.488 70.5565 10.488 71.0422 10.461C71.339 10.452 71.402 10.425 71.5189 10.2991C71.6718 10.1282 71.7257 10.0833 71.8696 9.99328C72.0585 9.88537 72.1214 9.80446 72.2833 9.54364C72.4722 9.22882 72.4812 9.20182 72.4812 8.86009C72.4812 8.58127 72.4812 8.57228 72.4452 8.5453C72.4002 8.50932 72.3912 8.48234 72.4452 8.3924C72.5441 8.19454 72.3732 7.85277 72.0944 7.70887C71.6808 7.49302 71.213 7.41208 70.8353 7.46604C70.2328 7.56497 69.5852 7.76283 69.1805 7.98768C69.0815 8.04164 69.0006 8.07762 68.9826 8.07762C68.8387 8.07762 69.4053 7.75384 69.783 7.61893C70.0889 7.51101 70.6375 7.38509 70.7993 7.38509C70.8263 7.38509 70.8533 7.3761 70.8623 7.36711C70.8713 7.35811 70.8713 7.34912 70.8713 7.34912C70.8713 7.34912 70.7454 7.39409 70.6195 7.41208Z" fill="#F8F9FA"/>
<path fill-rule="evenodd" clip-rule="evenodd" d="M76.4384 7.59186C76.0607 7.65483 75.4941 7.77175 75.3052 7.8347C75.0983 7.90665 74.9095 7.98759 74.7566 8.08653C74.7026 8.1225 74.6217 8.16747 74.5587 8.19445C74.4148 8.26641 74.3429 8.32936 74.1271 8.5632C73.8842 8.83302 73.7582 9.01292 73.7223 9.11183C73.7043 9.15683 73.6503 9.26474 73.6054 9.35465C73.4345 9.64247 73.3625 9.93029 73.3446 10.3529C73.3266 10.7577 73.3805 11.1175 73.5154 11.5132C73.6413 11.9089 73.8212 12.2507 74.0012 12.4485C74.1091 12.5744 74.3699 12.7903 74.4778 12.8532C74.5228 12.8802 74.6397 12.9522 74.7386 13.0241C75.0713 13.2489 75.4042 13.4289 76.0967 13.7257C76.3395 13.8336 76.7263 14.0045 76.9601 14.1124C77.4367 14.3372 77.4997 14.3732 77.6526 14.607C77.8234 14.8679 77.8145 14.8409 77.8145 14.9938C77.8145 15.1197 77.8055 15.1467 77.7515 15.2456C77.7155 15.3086 77.6526 15.3985 77.6076 15.4435C77.5267 15.5244 77.5087 15.5334 77.3648 15.5694C76.9241 15.6683 76.5913 15.6683 76.1236 15.5514C75.71 15.4525 75.1613 15.2276 74.7296 14.9758C74.6217 14.9129 74.4868 14.8409 74.4238 14.8229L74.3159 14.778L74.4508 14.9039C74.6217 15.0657 74.8465 15.2276 75.0354 15.3176C75.2603 15.4255 75.3592 15.5334 75.2513 15.5334C75.0803 15.5334 74.5228 15.2726 74.199 15.0478C74.0731 14.9578 74.0371 14.9488 74.0012 14.9938C73.9742 15.0208 73.9741 15.1107 73.9921 15.1557C74.0011 15.1737 73.9832 15.2096 73.9382 15.2636C73.8932 15.3176 73.8662 15.3625 73.8662 15.3985C73.8662 15.4255 73.8572 15.4435 73.8482 15.4435C73.8392 15.4435 73.8212 15.4614 73.8122 15.4884C73.7852 15.5604 73.8302 15.6683 73.9291 15.7492C74.0101 15.8122 74.181 15.8931 74.2889 15.9381L74.3519 15.9651L74.2889 15.9561C74.235 15.9471 74.0731 15.8751 73.6863 15.6953C73.6233 15.6683 73.5334 15.6143 73.4795 15.5873C73.4255 15.5604 73.3805 15.5334 73.3805 15.5424C73.3805 15.5514 73.3895 15.5873 73.4075 15.6323C73.4255 15.6773 73.4435 15.7582 73.4435 15.8122C73.4435 15.8661 73.4615 15.9471 73.4705 16.0101C73.4885 16.1001 73.4885 16.118 73.4525 16.235L73.4165 16.3609L73.4795 16.4598C73.5154 16.5137 73.5784 16.5947 73.6233 16.6486C73.7043 16.7386 73.7043 16.7386 73.6593 16.7206C73.6323 16.7116 73.5784 16.6756 73.5334 16.6396C73.4525 16.5767 73.4525 16.5767 73.4795 16.7026C73.5244 16.9094 73.6593 17.0713 73.9652 17.2602C74.3069 17.4761 74.6846 17.602 75.5481 17.7999C75.9168 17.8808 75.9977 17.8988 76.3035 17.9168C76.4924 17.9348 76.8162 17.9437 77.0141 17.9348C77.3558 17.9348 77.4098 17.9258 77.7425 17.8718C78.3721 17.7639 78.7498 17.656 79.0916 17.4941C79.2715 17.4042 79.6403 17.1612 79.8471 16.9994C80.1439 16.7655 80.4137 16.4418 80.4766 16.235C80.4946 16.172 80.5486 16.0371 80.5936 15.9472C80.6386 15.8572 80.7015 15.7133 80.7375 15.6233C80.8005 15.4704 80.8005 15.4525 80.8274 15.1197C80.8454 14.778 80.8454 14.769 80.8095 14.4451C80.7465 13.9595 80.6386 13.6987 80.3327 13.2309C80.1888 13.0151 80.0809 12.8982 79.8831 12.7363C79.8201 12.6824 79.7122 12.6014 79.6403 12.5385C79.5773 12.4845 79.4874 12.4216 79.4424 12.3946C79.3974 12.3676 79.2625 12.2867 79.1365 12.2057C78.8488 12.0258 78.498 11.8549 78.0214 11.666C77.2209 11.3513 76.8342 11.1714 76.5013 10.9736C76.2136 10.8027 76.1236 10.6857 76.1236 10.4968C76.1236 10.1731 76.5193 9.89429 76.9781 9.89429C77.2389 9.89429 77.8234 10.0022 78.0933 10.1011C78.2372 10.1551 78.507 10.308 78.57 10.3799C78.6239 10.4339 78.6599 10.4519 78.8308 10.4788C79.0286 10.5058 79.2355 10.5058 79.3165 10.4878C79.3525 10.4788 79.4064 10.4429 79.4334 10.4159C79.4694 10.3799 79.5413 10.344 79.5953 10.317C79.7841 10.245 80.0449 10.0292 80.1529 9.84929C80.2788 9.63347 80.3417 9.09383 80.2518 8.93195C80.1888 8.80604 80.1798 8.77905 80.2068 8.73408C80.2518 8.65314 80.2338 8.5722 80.1619 8.4193C80.0989 8.2844 80.0809 8.26641 79.973 8.20345C79.9101 8.15848 79.8111 8.09552 79.7572 8.05055C79.6313 7.96061 79.5683 7.94263 79.1815 7.85269C78.6239 7.72677 78.1473 7.64583 78.0124 7.64583C77.9404 7.64583 77.8234 7.63684 77.7515 7.62785C77.3108 7.58287 76.6813 7.55589 76.4384 7.59186Z" fill="#F8F9FA"/>
<path fill-rule="evenodd" clip-rule="evenodd" d="M53.819 7.7358C53.729 7.74479 53.6121 7.77178 53.5672 7.79876C53.5222 7.81675 53.4323 7.83474 53.3513 7.84373C53.1894 7.85272 53.1355 7.88869 53.0725 8.0236C52.9645 8.23046 52.9196 8.73412 52.9736 9.13888C53.0006 9.3457 53.0006 9.61552 53.0096 11.5582C53.0186 13.9235 53.0095 13.8516 53.1085 14.4092C53.3693 15.9202 54.1068 17.0264 55.213 17.566C56.1304 18.0158 57.4165 18.1057 58.4868 17.7998C58.8825 17.6829 59.2782 17.5031 59.62 17.2782C59.8629 17.1164 60.2046 16.8286 60.3755 16.6487C60.4564 16.5587 60.5104 16.5137 60.5104 16.5317C60.5104 16.5497 60.5373 16.6397 60.5643 16.7387C60.6183 16.9275 60.7532 17.3322 60.7802 17.3502C60.7891 17.3502 60.7892 17.2962 60.7892 17.2153L60.7802 17.0714L60.8432 17.1883C60.8791 17.2513 60.9151 17.3502 60.9331 17.3952C60.9691 17.5031 60.9871 17.5301 61.0231 17.5121C61.05 17.5031 61.059 17.5121 61.068 17.566C61.086 17.6739 61.095 17.6919 61.158 17.7189C61.2389 17.7549 61.2839 17.7549 61.3288 17.7099C61.3738 17.6649 61.3918 17.6829 61.4098 17.7729C61.4188 17.8268 61.4547 17.8628 61.4547 17.8178C61.4547 17.7729 61.5087 17.7369 61.5627 17.7369C61.5896 17.7369 61.6256 17.7279 61.6346 17.7189C61.6526 17.7009 61.6526 17.7009 61.6616 17.7189C61.6706 17.7279 61.7065 17.7369 61.7515 17.7369C61.8145 17.7369 61.8324 17.7279 61.8504 17.7009C61.8774 17.6649 61.8774 17.6649 61.8864 17.7099C61.9134 17.8088 61.9224 17.8088 62.0573 17.7459C62.1472 17.7009 62.1562 17.6649 62.1742 17.5121L62.1923 17.3952L62.2013 17.5301C62.2103 17.656 62.2102 17.6649 62.2462 17.6739C62.2912 17.6829 62.3272 17.638 62.3631 17.5121C62.3991 17.3952 62.4261 17.4131 62.4081 17.5301C62.3901 17.647 62.3901 17.6649 62.4171 17.611C62.4351 17.584 62.4531 17.566 62.4711 17.575C62.4801 17.575 62.498 17.575 62.507 17.566C62.552 17.5211 62.615 17.1883 62.6329 16.9545C62.6419 16.8016 62.6509 15.3536 62.6509 13.1051C62.6509 11.1264 62.6599 9.3817 62.6689 9.22879C62.6869 8.97695 62.6869 8.93198 62.7319 8.82406L62.7768 8.70714L62.7498 8.48229C62.7319 8.31141 62.7139 8.23946 62.6779 8.17651C62.615 8.05958 62.489 7.95166 62.3631 7.90669C62.1472 7.82574 62.0663 7.81675 61.6256 7.82574C61.4008 7.83474 61.158 7.83474 61.095 7.84373C60.9871 7.84373 60.9601 7.83474 60.8071 7.77177L60.6363 7.69983L60.5194 7.71782C60.2586 7.76278 59.9528 7.87071 59.8629 7.96065C59.7819 8.03259 59.719 8.19449 59.719 8.31141C59.719 8.36537 59.71 8.44632 59.692 8.48229C59.656 8.59022 59.656 8.66216 59.71 8.84205L59.7639 9.00397V11.2703C59.7639 13.7886 59.7639 13.6447 59.647 14.0225C59.503 14.4632 59.2872 14.769 58.9904 14.9488C58.7296 15.1107 58.3249 15.2456 57.9651 15.2816C57.3805 15.3446 56.7689 15.1017 56.4362 14.652C56.2023 14.3463 56.0585 13.9235 56.0135 13.4109C56.0045 13.285 56.0045 12.4485 56.0135 10.9915C56.0315 8.07757 56.0405 8.35638 55.9955 8.22147C55.9326 8.0326 55.8156 7.88869 55.6628 7.84373C55.6267 7.83474 55.5098 7.81675 55.3929 7.81675C55.186 7.80776 55.186 7.80776 55.1321 7.85272C55.0601 7.90669 55.0511 7.90669 55.0062 7.85272C54.9702 7.80776 54.9432 7.80776 54.7184 7.77177C54.5835 7.75379 54.4126 7.7358 54.3497 7.71782C54.1607 7.69983 54.0258 7.70882 53.819 7.7358Z" fill="#F8F9FA"/>
</g>
<defs>
<clipPath id="clip0_6366_537">
<rect width="81" height="18" fill="white"/>
</clipPath>
</defs>
</svg>
