<svg width="20" height="20" fill="none" xmlns="http://www.w3.org/2000/svg"><path d="M4.418 18c-.404 0-.741-.135-1.012-.406A1.373 1.373 0 013 16.582V5.376c0-.404.135-.742.406-1.012.27-.27.608-.406 1.012-.406H5.97V2h.946v1.958h6.278V2h.878v1.958h1.552c.404 0 .742.135 1.012.406.27.27.406.608.406 1.012v11.206c0 .404-.135.741-.406 1.012-.27.27-.608.406-1.012.406H4.418zm0-.878h11.206a.516.516 0 00.372-.168.516.516 0 00.169-.372V8.886H3.878v7.696c0 .135.056.26.168.372a.516.516 0 00.372.168zm-.54-9.114h12.287V5.376a.516.516 0 00-.17-.372.516.516 0 00-.37-.169H4.417a.516.516 0 00-.372.17.516.516 0 00-.168.37v2.633zm6.143 3.984a.648.648 0 01-.473-.202.648.648 0 01-.202-.474c0-.18.067-.339.202-.473a.649.649 0 01.473-.202c.181 0 .339.068.474.202a.648.648 0 01.201.473c0 .182-.067.34-.201.474a.648.648 0 01-.474.202zm-3.51 0a.648.648 0 01-.474-.202.648.648 0 01-.202-.474.65.65 0 01.202-.473.649.649 0 01.474-.202c.18 0 .338.068.473.202a.648.648 0 01.202.473.65.65 0 01-.202.474.648.648 0 01-.473.202zm7.02 0a.648.648 0 01-.473-.202.648.648 0 01-.201-.474.65.65 0 01.201-.473.649.649 0 01.474-.202.65.65 0 01.473.202.648.648 0 01.202.473c0 .182-.067.34-.202.474a.648.648 0 01-.473.202zm-3.51 3.375a.648.648 0 01-.473-.202.648.648 0 01-.202-.473c0-.181.067-.339.202-.473a.649.649 0 01.473-.202c.181 0 .339.067.474.202a.649.649 0 01.201.473.648.648 0 01-.201.473.648.648 0 01-.474.202zm-3.51 0a.648.648 0 01-.474-.202.648.648 0 01-.202-.473c0-.181.068-.339.202-.473a.649.649 0 01.474-.202c.18 0 .338.067.473.202a.649.649 0 01.202.473.648.648 0 01-.202.473.648.648 0 01-.473.202zm7.02 0a.648.648 0 01-.473-.202.648.648 0 01-.201-.473c0-.181.067-.339.201-.473a.649.649 0 01.474-.202c.18 0 .339.067.473.202a.648.648 0 01.202.473.648.648 0 01-.202.473.648.648 0 01-.473.202z" fill="#495057"/></svg>