<svg width="20" height="20" fill="none" xmlns="http://www.w3.org/2000/svg"><path d="M6.968 13.919L10 10.887l3.032 3.032.887-.887L10.887 10l3.032-3.032-.887-.887L10 9.113 6.968 6.08l-.887.887L9.113 10 6.08 13.032l.887.887zM10.002 18a7.794 7.794 0 01-3.12-.63 8.08 8.08 0 01-2.541-1.71 8.079 8.079 0 01-1.71-2.54A7.786 7.786 0 012 10.003c0-1.107.21-2.147.63-3.12A8.08 8.08 0 014.34 4.34a8.08 8.08 0 012.54-1.71A7.786 7.786 0 019.998 2c1.106 0 2.146.21 3.12.63.973.42 1.82.99 2.54 1.71a8.08 8.08 0 011.71 2.54c.421.972.631 2.012.631 3.119 0 1.106-.21 2.146-.63 3.12a8.08 8.08 0 01-1.71 2.54 8.08 8.08 0 01-2.54 1.71 7.762 7.762 0 01-3.118.631z" fill="#5F6368"/></svg>