<svg width="16" height="3" fill="none" xmlns="http://www.w3.org/2000/svg"><path d="M1.788 2.327a1.08 1.08 0 01-.792-.33 1.08 1.08 0 01-.33-.792c0-.308.11-.572.33-.792.22-.22.484-.33.792-.33.309 0 .573.11.792.33.22.22.33.484.33.792 0 .308-.11.573-.33.792-.22.22-.483.33-.792.33zm6.212 0a1.08 1.08 0 01-.792-.33 1.08 1.08 0 01-.33-.792c0-.308.11-.572.33-.792.22-.22.484-.33.792-.33.309 0 .573.11.792.33.22.22.33.484.33.792 0 .308-.11.573-.33.792-.22.22-.483.33-.792.33zm6.212 0a1.08 1.08 0 01-.792-.33 1.08 1.08 0 01-.33-.792c0-.308.11-.572.33-.792.22-.22.483-.33.792-.33.308 0 .572.11.792.33.22.22.33.484.33.792 0 .308-.11.573-.33.792-.22.22-.484.33-.792.33z" fill="#586068"/></svg>