<svg width="14" height="14" fill="none" xmlns="http://www.w3.org/2000/svg"><g clip-path="url(#clip0_4137_16767)"><path d="M7 10.5a.677.677 0 00.499-.201A.677.677 0 007.7 9.8a.677.677 0 00-.201-.499A.677.677 0 007 9.1a.677.677 0 00-.499.201.677.677 0 00-.201.499c0 .198.067.365.201.499s.3.201.499.201zm-.7-2.8h1.4V3.5H6.3v4.2zM7 14a6.818 6.818 0 01-2.73-.551 7.07 7.07 0 01-2.222-1.496A7.069 7.069 0 01.55 9.73 6.816 6.816 0 010 7c0-.968.184-1.878.551-2.73a7.069 7.069 0 011.496-2.222A7.069 7.069 0 014.27.55 6.816 6.816 0 017 0c.968 0 1.878.184 2.73.551a7.069 7.069 0 012.223 1.496 7.07 7.07 0 011.496 2.223C13.816 5.122 14 6.032 14 7s-.184 1.878-.551 2.73a7.069 7.069 0 01-1.496 2.223 7.069 7.069 0 01-2.223 1.496A6.818 6.818 0 017 14z" fill="#DC3545"/></g><defs><clipPath id="clip0_4137_16767"><path fill="#fff" d="M0 0h14v14H0z"/></clipPath></defs></svg>