<svg width="20" height="20" fill="none" xmlns="http://www.w3.org/2000/svg"><path d="M8.124 18c-.44 0-.815-.156-1.127-.467a1.537 1.537 0 01-.468-1.128v-8.28c0-.44.156-.816.468-1.128a1.537 1.537 0 011.127-.468h8.28c.44 0 .817.156 1.129.468.311.312.467.687.467 1.127v8.28c0 .44-.156.817-.467 1.129a1.537 1.537 0 01-1.128.467h-8.28zm-.271-8.094h8.824V8.124a.264.264 0 00-.077-.195.264.264 0 00-.195-.076h-8.28a.264.264 0 00-.196.076.264.264 0 00-.076.195v1.782zM11.23 13.3h2.07v-2.07h-2.07v2.07zm0 3.377h2.07v-2.054h-2.07v2.054zM7.853 13.3h2.053v-2.07H7.853v2.07zm6.77 0h2.054v-2.07h-2.054v2.07zm-6.499 3.377h1.782v-2.054H7.853v1.782c0 .08.025.144.076.195a.264.264 0 00.195.076zm6.5 0h1.78c.08 0 .145-.026.196-.077a.264.264 0 00.076-.195v-1.782h-2.053v2.054zM4.594 14.47c-.44 0-.816-.156-1.128-.468A1.537 1.537 0 013 12.876v-8.28c0-.44.156-.817.467-1.129A1.537 1.537 0 014.595 3h8.28c.44 0 .816.156 1.128.467.312.312.468.688.468 1.128v1.052h-1.324V4.595a.264.264 0 00-.076-.195.264.264 0 00-.195-.076h-8.28A.264.264 0 004.4 4.4a.264.264 0 00-.076.195v8.28c0 .08.025.145.076.196.05.05.116.076.195.076h1.052v1.324H4.595z" fill="#fff"/></svg>