<svg width="20" height="20" fill="none" xmlns="http://www.w3.org/2000/svg"><path d="M7.375 13.274a1.78 1.78 0 01-1.31-.543 1.792 1.792 0 01-.541-1.313c0-.513.18-.951.542-1.313a1.781 1.781 0 011.309-.544c.512 0 .948.181 1.31.543.36.363.541.8.541 1.314 0 .513-.18.95-.542 1.313a1.781 1.781 0 01-1.309.543zM4.414 18c-.403 0-.74-.135-1.01-.406A1.375 1.375 0 013 16.582V5.376c0-.404.135-.742.405-1.012s.606-.406 1.009-.406H5.96V2h.943v1.958h6.26V2h.875v1.958h1.547c.403 0 .74.135 1.01.406.27.27.404.608.404 1.012v11.206c0 .404-.135.741-.405 1.012a1.37 1.37 0 01-1.009.406H4.414zm0-.878h11.172a.514.514 0 00.37-.168.517.517 0 00.169-.372V8.886H3.875v7.696c0 .135.056.26.168.372a.514.514 0 00.37.168zm-.539-9.114h12.25V5.376a.517.517 0 00-.168-.372.514.514 0 00-.37-.169H4.413a.514.514 0 00-.37.17.517.517 0 00-.169.37v2.633z" fill="#495057"/></svg>