<svg width="16" height="14" fill="none" xmlns="http://www.w3.org/2000/svg"><path d="M1.779 13.401a1.07 1.07 0 01-.786-.326 1.071 1.071 0 01-.326-.786c0-.306.108-.568.326-.785a1.07 1.07 0 01.786-.327c.306 0 .567.109.785.327.218.217.327.48.327.785 0 .306-.11.568-.327.786a1.07 1.07 0 01-.785.326zm0-5.422a1.07 1.07 0 01-.786-.326 1.07 1.07 0 01-.326-.786c0-.306.108-.567.326-.785.218-.218.48-.327.786-.327.306 0 .567.109.785.327.218.218.327.48.327.785 0 .306-.11.568-.327.786a1.07 1.07 0 01-.785.326zm0-5.421c-.306 0-.568-.11-.786-.327a1.071 1.071 0 01-.326-.786c0-.305.108-.567.326-.785A1.07 1.07 0 011.78.333c.306 0 .567.11.785.327.218.218.327.48.327.785 0 .306-.11.568-.327.786-.218.218-.48.327-.785.327zm5.421 0a1.07 1.07 0 01-.785-.327 1.071 1.071 0 01-.327-.786c0-.305.11-.567.327-.785A1.07 1.07 0 017.2.333c.306 0 .568.11.786.327.218.218.327.48.327.785 0 .306-.11.568-.327.786a1.07 1.07 0 01-.786.327zm5.422 0c-.306 0-.567-.11-.785-.327a1.07 1.07 0 01-.327-.786c0-.305.109-.567.327-.785.218-.218.48-.327.785-.327.306 0 .568.11.786.327.218.218.326.48.326.785 0 .306-.108.568-.326.786-.218.218-.48.327-.786.327zM7.2 7.979a1.07 1.07 0 01-.785-.326 1.07 1.07 0 01-.327-.786c0-.306.11-.567.327-.785a1.07 1.07 0 01.785-.327c.306 0 .568.109.786.327.218.218.327.48.327.785 0 .306-.11.568-.327.786a1.07 1.07 0 01-.786.326zm1.113 5.422v-1.996l4.819-4.797a.71.71 0 01.276-.18.834.834 0 01.862.186l.835.853c.075.089.131.182.17.278a.766.766 0 01.003.58.928.928 0 01-.173.28l-4.796 4.796H8.313zm.8-.799h.858l3.133-3.139-.424-.429-.412-.441-3.156 3.15v.859zm3.567-3.568l-.412-.441.836.87-.424-.429z" fill="#343A40"/></svg>