<svg width="16" height="16" fill="none" xmlns="http://www.w3.org/2000/svg"><g clip-path="url(#clip0_4019_7635)"><path d="M6.222 12.29l4.958-3.179-4.958-3.18v6.36zm-4.786 2.6c-.41 0-.75-.137-1.025-.411A1.391 1.391 0 010 13.453V3.333h5.333v-1.23c0-.41.137-.751.411-1.025A1.391 1.391 0 016.77.667h2.462c.409 0 .75.137 1.025.41.274.275.41.616.41 1.025v1.231H16v10.12c0 .41-.137.75-.411 1.025a1.391 1.391 0 01-1.025.41H1.436zm0-.889h13.128a.523.523 0 00.376-.17.523.523 0 00.171-.377v-9.23H.89v9.23c0 .137.057.262.17.376.115.114.24.171.377.171zM6.222 3.333h3.556v-1.23a.523.523 0 00-.171-.377.523.523 0 00-.376-.17H6.769a.523.523 0 00-.376.17.523.523 0 00-.17.376v1.231z" fill="#343A40"/></g><defs><clipPath id="clip0_4019_7635"><path fill="#fff" d="M0 0h16v16H0z"/></clipPath></defs></svg>