<svg width="16" height="16" fill="none" xmlns="http://www.w3.org/2000/svg"><path d="M7.022 14.45c.6-1.059 1.358-1.787 2.272-2.185.914-.4 1.705-.598 2.372-.598a5.26 5.26 0 011.542.222c.358-.464.665-1.034.923-1.71A6.06 6.06 0 0014.518 8c0-1.82-.631-3.361-1.894-4.624C11.36 2.113 9.82 1.48 8 1.48c-1.82 0-3.361.632-4.624 1.895C2.113 4.639 1.48 6.18 1.48 8c0 .705.105 1.37.313 1.995.208.624.49 1.195.844 1.712a6.018 6.018 0 011.551-.655 6.518 6.518 0 012.627-.12c.322.054.586.111.792.17-.156.1-.297.202-.424.304a4.888 4.888 0 00-.384.348 2.577 2.577 0 00-.434-.064 6.612 6.612 0 00-.544-.023c-.467 0-.93.058-1.388.174a4.85 4.85 0 00-1.28.521 6.186 6.186 0 001.763 1.38c.667.35 1.369.585 2.105.708zm.98.883a7.147 7.147 0 01-2.86-.577 7.41 7.41 0 01-2.33-1.567 7.399 7.399 0 01-1.568-2.327 7.131 7.131 0 01-.577-2.86c0-1.013.192-1.967.577-2.86a7.412 7.412 0 011.567-2.33 7.4 7.4 0 012.327-1.567 7.131 7.131 0 012.86-.578c1.013 0 1.967.192 2.86.577a7.421 7.421 0 012.329 1.567 7.4 7.4 0 011.568 2.327c.385.892.578 1.845.578 2.86a7.148 7.148 0 01-.577 2.86 7.412 7.412 0 01-1.567 2.33 7.4 7.4 0 01-2.328 1.567 7.13 7.13 0 01-2.859.578zm-2.04-6.518a2.36 2.36 0 01-1.734-.71 2.36 2.36 0 01-.71-1.735c0-.683.237-1.261.71-1.734a2.36 2.36 0 011.735-.71 2.36 2.36 0 011.734.71 2.36 2.36 0 01.71 1.734 2.36 2.36 0 01-.71 1.735 2.36 2.36 0 01-1.734.71zm0-.815c.445 0 .827-.16 1.149-.482.32-.321.481-.704.481-1.148 0-.444-.16-.826-.481-1.148a1.568 1.568 0 00-1.148-.481c-.444 0-.827.16-1.148.481a1.568 1.568 0 00-.482 1.148c0 .444.16.827.482 1.148.321.321.704.482 1.148.482zm5.704 1.943a1.876 1.876 0 01-1.379-.564A1.876 1.876 0 019.724 8c0-.544.187-1.004.563-1.38a1.876 1.876 0 011.38-.563c.543 0 1.003.188 1.379.564.376.375.563.835.563 1.379s-.187 1.004-.563 1.38a1.876 1.876 0 01-1.38.563z" fill="#343A40"/></svg>