<svg width="16" height="16" fill="none" xmlns="http://www.w3.org/2000/svg"><path d="M12.057 13.482l2.42-2.382-.535-.534-1.885 1.86-.814-.831-.534.539 1.348 1.348zM3.025 4.03h8.912v-.852H3.025v.852zm9.567 11.402c-.949 0-1.754-.33-2.415-.992-.661-.662-.992-1.467-.992-2.416 0-.949.33-1.754.992-2.415.661-.662 1.466-.992 2.415-.992.95 0 1.755.33 2.416.992.661.661.992 1.466.992 2.415 0 .95-.33 1.754-.992 2.416-.661.661-1.466.992-2.416.992zM.667 14.285V1.376C.667.995.8.67 1.069.402S1.66 0 2.043 0H12.92c.381 0 .706.134.974.402s.402.593.402.974V6.44a4.536 4.536 0 00-.413-.131 3.55 3.55 0 00-.439-.086V1.376a.501.501 0 00-.164-.36.501.501 0 00-.36-.164H2.043a.501.501 0 00-.36.164.501.501 0 00-.165.36V12.82h5.405c.038.233.088.46.15.684.061.222.147.435.258.637l-.03.03-.966-.705-1.147.819-1.147-.82-1.146.82-1.147-.82-1.081.82zm2.358-3.833h4.012c.032-.157.071-.303.118-.44.047-.136.102-.274.164-.412H3.025v.852zm0-3.211h6.229c.277-.22.575-.403.893-.55a3.77 3.77 0 011.02-.302H3.025v.852z" fill="#343A40"/></svg>