<svg width="16" height="15" fill="none" xmlns="http://www.w3.org/2000/svg"><path d="M.887 3.71h14.192V1.767a.522.522 0 00-.17-.375.522.522 0 00-.376-.17h-13.1a.522.522 0 00-.375.17.522.522 0 00-.171.375v1.945zM0 1.767c0-.408.137-.749.41-1.022.274-.274.615-.41 1.023-.41h13.1c.408 0 .75.136 1.023.41.273.273.41.614.41 1.022v4.06H.887v5.492c0 .137.057.262.17.376.114.113.24.17.376.17h4.131v.887H1.433c-.408 0-.75-.136-1.023-.41A1.388 1.388 0 010 11.318V1.766zm10.327 12.35L7.17 10.96l.628-.628 2.528 2.518 5.045-5.046.628.638-5.673 5.674zM.887 1.766v9.552c0 .137.057.262.17.376.114.113.24.17.376.17H.887V7.822v2.522V1.22h.546a.522.522 0 00-.375.17.522.522 0 00-.171.376z" fill="#343A40"/></svg>