<svg width="16" height="14" fill="none" xmlns="http://www.w3.org/2000/svg"><path d="M.962 5.222V1.77c0-.409.12-.75.362-1.025.241-.274.542-.41.902-.41h11.548c.36 0 .66.136.902.41.241.275.362.616.362 1.025v3.453h-.782V1.77a.558.558 0 00-.15-.376c-.1-.114-.211-.17-.332-.17H2.226c-.12 0-.231.056-.331.17a.56.56 0 00-.15.376v3.453H.961zm1.264 6.667c-.36 0-.66-.137-.902-.411-.241-.274-.362-.616-.362-1.025V6.111h.782v4.342c0 .137.05.262.15.376.1.114.211.171.332.171h11.548c.12 0 .231-.057.331-.17.1-.115.15-.24.15-.377V6.111h.783v4.342c0 .41-.12.75-.362 1.025a1.152 1.152 0 01-.902.41H2.226zM0 13.667v-.89h16v.89H0zM.962 6.11v-.889h3.91c.073 0 .143.022.208.065a.417.417 0 01.15.185l1.265 2.87 2.72-5.547a.315.315 0 01.146-.16.488.488 0 01.41 0 .3.3 0 01.15.17l1.064 2.417h4.053v.89h-4.15a.584.584 0 01-.329-.106.66.66 0 01-.24-.298l-.794-1.793L6.79 9.427a.385.385 0 01-.358.24.358.358 0 01-.206-.065.42.42 0 01-.148-.185L4.624 6.111H.962z" fill="#343A40"/></svg>