<svg width="16" height="16" fill="none" xmlns="http://www.w3.org/2000/svg"><g clip-path="url(#clip0_4019_8033)"><path d="M8 16L.667 12V4L8 0l7.333 4v8L8 16zM5.58 6.188a3.203 3.203 0 011.078-.85c.42-.207.867-.31 1.342-.31.474 0 .922.103 1.342.31.42.205.78.488 1.077.85l3.55-1.945L8 .973l-5.97 3.27 3.55 1.945zm1.988 8.6v-3.825a3.143 3.143 0 01-1.851-1.03A2.825 2.825 0 014.98 8a2.92 2.92 0 01.191-1.045L1.53 4.947v6.545l6.04 3.297zM8 10.124c.607 0 1.118-.205 1.534-.614.415-.408.623-.911.623-1.509 0-.598-.208-1.1-.623-1.51-.416-.408-.927-.612-1.534-.612s-1.119.204-1.534.612A2.035 2.035 0 005.843 8c0 .598.208 1.1.623 1.51.415.408.927.613 1.534.613zm.431 4.666l6.04-3.297V4.947l-3.642 2.008c.065.174.113.345.144.512.031.167.046.345.046.533 0 .735-.245 1.379-.736 1.933a3.143 3.143 0 01-1.852 1.03v3.826z" fill="#343A40"/></g><defs><clipPath id="clip0_4019_8033"><path fill="#fff" d="M0 0h16v16H0z"/></clipPath></defs></svg>