<svg width="16" height="14" fill="none" xmlns="http://www.w3.org/2000/svg"><path d="M2.147 13.667a1.5 1.5 0 01-1.048-.394 1.242 1.242 0 01-.432-.953V1.68c0-.373.144-.691.432-.953A1.503 1.503 0 012.147.333h11.705c.41 0 .76.131 1.048.394.289.262.433.58.433.953v10.64c0 .373-.144.691-.433.953a1.503 1.503 0 01-1.048.394H2.147zm0-.834h11.705a.58.58 0 00.406-.144.476.476 0 00.159-.369V2.833H1.582v9.487c0 .15.053.273.159.37a.58.58 0 00.405.143zm1.27-6.25V5.75h9.166v.833H3.416zm0 3.334v-.834h5.5v.834h-5.5z" fill="#343A40"/></svg>