<svg width="19" height="19" fill="none" xmlns="http://www.w3.org/2000/svg"><path d="M3.374 15.29a12.136 12.136 0 012.856-1.532c1.007-.376 2.097-.564 3.27-.564s2.263.188 3.27.564c1.007.375 1.959.886 2.856 1.531a8.465 8.465 0 001.682-2.555c.424-.983.636-2.06.636-3.234 0-2.34-.822-4.332-2.467-5.977C13.832 1.878 11.84 1.056 9.5 1.056c-2.34 0-4.332.822-5.977 2.467C1.878 5.168 1.056 7.16 1.056 9.5c0 1.173.212 2.251.636 3.234a8.465 8.465 0 001.682 2.555zM9.5 10.027c-.89 0-1.64-.306-2.25-.917-.611-.61-.917-1.36-.917-2.25 0-.889.306-1.64.917-2.25.61-.611 1.36-.917 2.25-.917.89 0 1.64.306 2.25.917.611.61.917 1.361.917 2.25 0 .89-.306 1.64-.917 2.25-.61.611-1.36.917-2.25.917zM9.5 19a9.377 9.377 0 01-3.72-.74 9.486 9.486 0 01-3.017-2.023A9.485 9.485 0 01.74 13.221 9.377 9.377 0 010 9.5c0-1.325.247-2.565.74-3.72a9.486 9.486 0 012.023-3.017A9.486 9.486 0 015.779.74 9.377 9.377 0 019.5 0c1.325 0 2.565.247 3.72.74a9.485 9.485 0 013.017 2.023 9.486 9.486 0 012.023 3.016A9.377 9.377 0 0119 9.5a9.377 9.377 0 01-.74 3.72 9.484 9.484 0 01-2.023 3.017 9.484 9.484 0 01-3.016 2.023A9.377 9.377 0 019.5 19z" fill="#5F6368"/></svg>