<svg width="20" height="20" viewBox="0 0 20 20" fill="none" xmlns="http://www.w3.org/2000/svg">
<path d="M10.9817 3.56742C10.8827 3.39498 10.74 3.25172 10.5679 3.15209C10.3958 3.05246 10.2005 3 10.0017 3C9.80287 3 9.60756 3.05246 9.43549 3.15209C9.26343 3.25172 9.12069 3.39498 9.0217 3.56742L2.1647 15.2344C1.7077 16.0124 2.2557 17.0014 3.1447 17.0014H16.8577C17.7467 17.0014 18.2957 16.0114 17.8377 15.2344L10.9817 3.56742ZM9.9997 7.00142C10.5347 7.00142 10.9537 7.46342 10.8997 7.99642L10.5497 11.5034C10.5379 11.6412 10.4749 11.7695 10.3731 11.8631C10.2712 11.9566 10.138 12.0085 9.9997 12.0085C9.86143 12.0085 9.72819 11.9566 9.62635 11.8631C9.5245 11.7695 9.46146 11.6412 9.4497 11.5034L9.0997 7.99642C9.08713 7.87065 9.10105 7.74365 9.14055 7.62358C9.18005 7.50352 9.24426 7.39306 9.32905 7.29933C9.41383 7.20559 9.51731 7.13066 9.63282 7.07934C9.74833 7.02803 9.87331 7.00149 9.9997 7.00142ZM10.0017 13.0014C10.2669 13.0014 10.5213 13.1068 10.7088 13.2943C10.8963 13.4818 11.0017 13.7362 11.0017 14.0014C11.0017 14.2666 10.8963 14.521 10.7088 14.7085C10.5213 14.8961 10.2669 15.0014 10.0017 15.0014C9.73649 15.0014 9.48213 14.8961 9.2946 14.7085C9.10706 14.521 9.0017 14.2666 9.0017 14.0014C9.0017 13.7362 9.10706 13.4818 9.2946 13.2943C9.48213 13.1068 9.73649 13.0014 10.0017 13.0014Z" fill="#024E4F"/>
</svg>
