<svg width="20" height="20" viewBox="0 0 20 20" fill="none" xmlns="http://www.w3.org/2000/svg">
<path d="M4.41782 18C4.01382 18 3.67651 17.8647 3.40591 17.5941C3.1353 17.3235 3 16.9862 3 16.5822V5.37562C3 4.97161 3.1353 4.6343 3.40591 4.3637C3.67651 4.09309 4.01382 3.95779 4.41782 3.95779H5.97037V2H6.91558V3.95779H13.1942V2H14.0718V3.95779H15.6244C16.0284 3.95779 16.3657 4.09309 16.6363 4.3637C16.9069 4.6343 17.0422 4.97161 17.0422 5.37562V16.5822C17.0422 16.9862 16.9069 17.3235 16.6363 17.5941C16.3657 17.8647 16.0284 18 15.6244 18H4.41782ZM4.41782 17.1224H15.6244C15.7595 17.1224 15.8834 17.0661 15.9958 16.9536C16.1083 16.8412 16.1646 16.7173 16.1646 16.5822V8.88617H3.87764V16.5822C3.87764 16.7173 3.93388 16.8412 4.04636 16.9536C4.15885 17.0661 4.28267 17.1224 4.41782 17.1224ZM3.87764 8.00831H16.1646V5.37562C16.1646 5.24046 16.1083 5.11664 15.9958 5.00415C15.8834 4.89167 15.7595 4.83543 15.6244 4.83543H4.41782C4.28267 4.83543 4.15885 4.89167 4.04636 5.00415C3.93388 5.11664 3.87764 5.24046 3.87764 5.37562V8.00831ZM10.0211 11.9915C9.84002 11.9915 9.68219 11.9243 9.54762 11.7898C9.41319 11.6554 9.34598 11.4976 9.34598 11.3163C9.34598 11.1353 9.41319 10.9775 9.54762 10.8431C9.68219 10.7087 9.84002 10.6414 10.0211 10.6414C10.2022 10.6414 10.36 10.7087 10.4946 10.8431C10.629 10.9775 10.6962 11.1353 10.6962 11.3163C10.6962 11.4976 10.629 11.6554 10.4946 11.7898C10.36 11.9243 10.2022 11.9915 10.0211 11.9915ZM6.51055 11.9915C6.32947 11.9915 6.17164 11.9243 6.03707 11.7898C5.90264 11.6554 5.83543 11.4976 5.83543 11.3163C5.83543 11.1353 5.90264 10.9775 6.03707 10.8431C6.17164 10.7087 6.32947 10.6414 6.51055 10.6414C6.69164 10.6414 6.84947 10.7087 6.98404 10.8431C7.11846 10.9775 7.18568 11.1353 7.18568 11.3163C7.18568 11.4976 7.11846 11.6554 6.98404 11.7898C6.84947 11.9243 6.69164 11.9915 6.51055 11.9915ZM13.5317 11.9915C13.3506 11.9915 13.1927 11.9243 13.0582 11.7898C12.9237 11.6554 12.8565 11.4976 12.8565 11.3163C12.8565 11.1353 12.9237 10.9775 13.0582 10.8431C13.1927 10.7087 13.3506 10.6414 13.5317 10.6414C13.7127 10.6414 13.8706 10.7087 14.0051 10.8431C14.1396 10.9775 14.2068 11.1353 14.2068 11.3163C14.2068 11.4976 14.1396 11.6554 14.0051 11.7898C13.8706 11.9243 13.7127 11.9915 13.5317 11.9915ZM10.0211 15.3671C9.84002 15.3671 9.68219 15.2999 9.54762 15.1654C9.41319 15.031 9.34598 14.8732 9.34598 14.692C9.34598 14.5109 9.41319 14.353 9.54762 14.2185C9.68219 14.0841 9.84002 14.0168 10.0211 14.0168C10.2022 14.0168 10.36 14.0841 10.4946 14.2185C10.629 14.353 10.6962 14.5109 10.6962 14.692C10.6962 14.8732 10.629 15.031 10.4946 15.1654C10.36 15.2999 10.2022 15.3671 10.0211 15.3671ZM6.51055 15.3671C6.32947 15.3671 6.17164 15.2999 6.03707 15.1654C5.90264 15.031 5.83543 14.8732 5.83543 14.692C5.83543 14.5109 5.90264 14.353 6.03707 14.2185C6.17164 14.0841 6.32947 14.0168 6.51055 14.0168C6.69164 14.0168 6.84947 14.0841 6.98404 14.2185C7.11846 14.353 7.18568 14.5109 7.18568 14.692C7.18568 14.8732 7.11846 15.031 6.98404 15.1654C6.84947 15.2999 6.69164 15.3671 6.51055 15.3671ZM13.5317 15.3671C13.3506 15.3671 13.1927 15.2999 13.0582 15.1654C12.9237 15.031 12.8565 14.8732 12.8565 14.692C12.8565 14.5109 12.9237 14.353 13.0582 14.2185C13.1927 14.0841 13.3506 14.0168 13.5317 14.0168C13.7127 14.0168 13.8706 14.0841 14.0051 14.2185C14.1396 14.353 14.2068 14.5109 14.2068 14.692C14.2068 14.8732 14.1396 15.031 14.0051 15.1654C13.8706 15.2999 13.7127 15.3671 13.5317 15.3671Z" fill="#495057"/>
</svg>
