<svg width="20" height="20" viewBox="0 0 20 20" fill="none" xmlns="http://www.w3.org/2000/svg">
<path d="M6.96842 13.9189L10 10.8874L13.0316 13.9189L13.9189 13.0316L10.8874 10L13.9189 6.96842L13.0316 6.08105L10 9.11263L6.96842 6.08105L6.08105 6.96842L9.11263 10L6.08105 13.0316L6.96842 13.9189ZM10.0015 18C8.89495 18 7.85488 17.79 6.88126 17.3701C5.90765 16.9502 5.06077 16.3803 4.34063 15.6604C3.62049 14.9406 3.05032 14.094 2.63011 13.1208C2.21003 12.1476 2 11.1079 2 10.0015C2 8.89495 2.20996 7.85488 2.62989 6.88126C3.04982 5.90765 3.61972 5.06077 4.33958 4.34063C5.05944 3.62049 5.90597 3.05032 6.87916 2.63011C7.85235 2.21003 8.89214 2 9.99853 2C11.1051 2 12.1451 2.20996 13.1187 2.62989C14.0924 3.04982 14.9392 3.61972 15.6594 4.33958C16.3795 5.05944 16.9497 5.90597 17.3699 6.87916C17.79 7.85235 18 8.89214 18 9.99853C18 11.1051 17.79 12.1451 17.3701 13.1187C16.9502 14.0924 16.3803 14.9392 15.6604 15.6594C14.9406 16.3795 14.094 16.9497 13.1208 17.3699C12.1476 17.79 11.1079 18 10.0015 18Z" fill="#5F6368"/>
</svg>
