<svg width="20" height="20" viewBox="0 0 20 20" fill="none" xmlns="http://www.w3.org/2000/svg">
<path d="M6.49988 15.5H13.4999V14.5H6.49988V15.5ZM6.49988 11.5H13.4999V10.5H6.49988V11.5ZM4.61538 19C4.15504 19 3.77071 18.8458 3.46238 18.5375C3.15404 18.2292 2.99988 17.8448 2.99988 17.3845V2.6155C2.99988 2.15517 3.15404 1.77083 3.46238 1.4625C3.77071 1.15417 4.15504 1 4.61538 1H12.4999L16.9999 5.5V17.3845C16.9999 17.8448 16.8457 18.2292 16.5374 18.5375C16.229 18.8458 15.8447 19 15.3844 19H4.61538ZM11.9999 6V2H4.61538C4.46138 2 4.32029 2.06408 4.19213 2.19225C4.06396 2.32042 3.99988 2.4615 3.99988 2.6155V17.3845C3.99988 17.5385 4.06396 17.6796 4.19213 17.8078C4.32029 17.9359 4.46138 18 4.61538 18H15.3844C15.5384 18 15.6795 17.9359 15.8076 17.8078C15.9358 17.6796 15.9999 17.5385 15.9999 17.3845V6H11.9999Z" fill="#343A40"/>
</svg>
