<svg width="16" height="3" viewBox="0 0 16 3" fill="none" xmlns="http://www.w3.org/2000/svg">
<path d="M1.78831 2.32662C1.47988 2.32662 1.21585 2.2168 0.996207 1.99716C0.776568 1.77752 0.666748 1.51349 0.666748 1.20506C0.666748 0.896629 0.776568 0.632594 0.996207 0.412955C1.21585 0.193316 1.47988 0.0834961 1.78831 0.0834961C2.09674 0.0834961 2.36077 0.193316 2.58041 0.412955C2.80005 0.632594 2.90987 0.896629 2.90987 1.20506C2.90987 1.51349 2.80005 1.77752 2.58041 1.99716C2.36077 2.2168 2.09674 2.32662 1.78831 2.32662ZM8.00008 2.32662C7.69165 2.32662 7.42762 2.2168 7.20798 1.99716C6.98834 1.77752 6.87852 1.51349 6.87852 1.20506C6.87852 0.896629 6.98834 0.632594 7.20798 0.412955C7.42762 0.193316 7.69165 0.0834961 8.00008 0.0834961C8.30851 0.0834961 8.57255 0.193316 8.79218 0.412955C9.01182 0.632594 9.12164 0.896629 9.12164 1.20506C9.12164 1.51349 9.01182 1.77752 8.79218 1.99716C8.57255 2.2168 8.30851 2.32662 8.00008 2.32662ZM14.2119 2.32662C13.9034 2.32662 13.6394 2.2168 13.4197 1.99716C13.2001 1.77752 13.0903 1.51349 13.0903 1.20506C13.0903 0.896629 13.2001 0.632594 13.4197 0.412955C13.6394 0.193316 13.9034 0.0834961 14.2119 0.0834961C14.5203 0.0834961 14.7843 0.193316 15.004 0.412955C15.2236 0.632594 15.3334 0.896629 15.3334 1.20506C15.3334 1.51349 15.2236 1.77752 15.004 1.99716C14.7843 2.2168 14.5203 2.32662 14.2119 2.32662Z" fill="#586068"/>
</svg>
