<svg width="14" height="14" viewBox="0 0 14 14" fill="none" xmlns="http://www.w3.org/2000/svg">
<g clip-path="url(#clip0_4137_16767)">
<path d="M7 10.5C7.19833 10.5 7.36458 10.4329 7.49875 10.2987C7.63292 10.1646 7.7 9.99833 7.7 9.8C7.7 9.60167 7.63292 9.43542 7.49875 9.30125C7.36458 9.16708 7.19833 9.1 7 9.1C6.80167 9.1 6.63542 9.16708 6.50125 9.30125C6.36708 9.43542 6.3 9.60167 6.3 9.8C6.3 9.99833 6.36708 10.1646 6.50125 10.2987C6.63542 10.4329 6.80167 10.5 7 10.5ZM6.3 7.7H7.7V3.5H6.3V7.7ZM7 14C6.03167 14 5.12167 13.8162 4.27 13.4488C3.41833 13.0813 2.6775 12.5825 2.0475 11.9525C1.4175 11.3225 0.91875 10.5817 0.55125 9.73C0.18375 8.87833 0 7.96833 0 7C0 6.03167 0.18375 5.12167 0.55125 4.27C0.91875 3.41833 1.4175 2.6775 2.0475 2.0475C2.6775 1.4175 3.41833 0.91875 4.27 0.55125C5.12167 0.18375 6.03167 0 7 0C7.96833 0 8.87833 0.18375 9.73 0.55125C10.5817 0.91875 11.3225 1.4175 11.9525 2.0475C12.5825 2.6775 13.0813 3.41833 13.4488 4.27C13.8162 5.12167 14 6.03167 14 7C14 7.96833 13.8162 8.87833 13.4488 9.73C13.0813 10.5817 12.5825 11.3225 11.9525 11.9525C11.3225 12.5825 10.5817 13.0813 9.73 13.4488C8.87833 13.8162 7.96833 14 7 14Z" fill="#DC3545"/>
</g>
<defs>
<clipPath id="clip0_4137_16767">
<rect width="14" height="14" fill="white"/>
</clipPath>
</defs>
</svg>
