<svg width="20" height="20" viewBox="0 0 20 20" fill="none" xmlns="http://www.w3.org/2000/svg">
<path d="M8.12449 18C7.68449 18 7.3086 17.8442 6.99684 17.5326C6.68522 17.2208 6.52941 16.8449 6.52941 16.4049V8.12449C6.52941 7.68449 6.68522 7.3086 6.99684 6.99684C7.3086 6.68522 7.68449 6.52941 8.12449 6.52941H16.4049C16.8449 6.52941 17.2208 6.68522 17.5326 6.99684C17.8442 7.3086 18 7.68449 18 8.12449V16.4049C18 16.8449 17.8442 17.2208 17.5326 17.5326C17.2208 17.8442 16.8449 18 16.4049 18H8.12449ZM7.85294 9.90618H16.6765V8.12449C16.6765 8.04522 16.651 7.98015 16.6001 7.92927C16.5493 7.87838 16.4842 7.85294 16.4049 7.85294H8.12449C8.04522 7.85294 7.98015 7.87838 7.92926 7.92927C7.87838 7.98015 7.85294 8.04522 7.85294 8.12449V9.90618ZM11.2297 13.2997H13.2997V11.2297H11.2297V13.2997ZM11.2297 16.6765H13.2997V14.6232H11.2297V16.6765ZM7.85294 13.2997H9.90618V11.2297H7.85294V13.2997ZM14.6232 13.2997H16.6765V11.2297H14.6232V13.2997ZM8.12449 16.6765H9.90618V14.6232H7.85294V16.4049C7.85294 16.4842 7.87838 16.5493 7.92926 16.6001C7.98015 16.651 8.04522 16.6765 8.12449 16.6765ZM14.6232 16.6765H16.4049C16.4842 16.6765 16.5493 16.651 16.6001 16.6001C16.651 16.5493 16.6765 16.4842 16.6765 16.4049V14.6232H14.6232V16.6765ZM4.59507 14.4706C4.15507 14.4706 3.77919 14.3148 3.46743 14.0032C3.15581 13.6914 3 13.3155 3 12.8755V4.59507C3 4.15507 3.15581 3.77919 3.46743 3.46743C3.77919 3.15581 4.15507 3 4.59507 3H12.8755C13.3155 3 13.6914 3.15581 14.0032 3.46743C14.3148 3.77919 14.4706 4.15507 14.4706 4.59507V5.64706H13.1471V4.59507C13.1471 4.51581 13.1216 4.45074 13.0707 4.39985C13.0199 4.34897 12.9548 4.32353 12.8755 4.32353H4.59507C4.51581 4.32353 4.45074 4.34897 4.39985 4.39985C4.34897 4.45074 4.32353 4.51581 4.32353 4.59507V12.8755C4.32353 12.9548 4.34897 13.0199 4.39985 13.0707C4.45074 13.1216 4.51581 13.1471 4.59507 13.1471H5.64706V14.4706H4.59507Z" fill="white"/>
</svg>
