<svg width="14" height="14" viewBox="0 0 14 14" fill="none" xmlns="http://www.w3.org/2000/svg">
<path d="M3.08824 7.61765H10.9118V6.38235H3.08824V7.61765ZM1.48874 14C1.07272 14 0.720588 13.8559 0.432353 13.5676C0.144118 13.2794 0 12.9273 0 12.5113V1.48874C0 1.07272 0.144118 0.720588 0.432353 0.432353C0.720588 0.144118 1.07272 0 1.48874 0H12.5113C12.9273 0 13.2794 0.144118 13.5676 0.432353C13.8559 0.720588 14 1.07272 14 1.48874V12.5113C14 12.9273 13.8559 13.2794 13.5676 13.5676C13.2794 13.8559 12.9273 14 12.5113 14H1.48874Z" fill="white"/>
</svg>
