<svg width="20" height="20" viewBox="0 0 20 20" fill="none" xmlns="http://www.w3.org/2000/svg">
<path d="M7.375 13.2744C6.86342 13.2744 6.42701 13.0932 6.06578 12.7309C5.70455 12.3686 5.52394 11.9308 5.52394 11.4177C5.52394 10.9046 5.70455 10.4669 6.06578 10.1045C6.42701 9.74223 6.86342 9.56107 7.375 9.56107C7.88658 9.56107 8.32299 9.74223 8.68422 10.1045C9.04545 10.4669 9.22606 10.9046 9.22606 11.4177C9.22606 11.9308 9.04545 12.3686 8.68422 12.7309C8.32299 13.0932 7.88658 13.2744 7.375 13.2744ZM4.41356 18C4.01077 18 3.67448 17.8647 3.40469 17.5941C3.1349 17.3235 3 16.9862 3 16.5822V5.37561C3 4.97161 3.1349 4.6343 3.40469 4.3637C3.67448 4.09309 4.01077 3.95779 4.41356 3.95779H5.96144V2H6.90381V3.95779H13.1636V2H14.0386V3.95779H15.5864C15.9892 3.95779 16.3255 4.09309 16.5953 4.3637C16.8651 4.6343 17 4.97161 17 5.37561V16.5822C17 16.9862 16.8651 17.3235 16.5953 17.5941C16.3255 17.8647 15.9892 18 15.5864 18H4.41356ZM4.41356 17.1224H15.5864C15.7212 17.1224 15.8446 17.0661 15.9568 16.9536C16.0689 16.8412 16.125 16.7173 16.125 16.5822V8.88617H3.875V16.5822C3.875 16.7173 3.93107 16.8412 4.04322 16.9536C4.15536 17.0661 4.27881 17.1224 4.41356 17.1224ZM3.875 8.00831H16.125V5.37561C16.125 5.24046 16.0689 5.11664 15.9568 5.00415C15.8446 4.89167 15.7212 4.83543 15.5864 4.83543H4.41356C4.27881 4.83543 4.15536 4.89167 4.04322 5.00415C3.93107 5.11664 3.875 5.24046 3.875 5.37561V8.00831Z" fill="#495057"/>
</svg>
