<svg width="15" height="16" viewBox="0 0 15 16" fill="none" xmlns="http://www.w3.org/2000/svg">
<path d="M6.83824 12.1912H8.16177V8.66177H11.6912V7.33824H8.16177V3.80882H6.83824V7.33824H3.30882V8.66177H6.83824V12.1912ZM1.59507 15.5C1.14934 15.5 0.772059 15.3456 0.463235 15.0368C0.154412 14.7279 0 14.3507 0 13.9049V2.09507C0 1.64934 0.154412 1.27206 0.463235 0.963235C0.772059 0.654412 1.14934 0.5 1.59507 0.5H13.4049C13.8507 0.5 14.2279 0.654412 14.5368 0.963235C14.8456 1.27206 15 1.64934 15 2.09507V13.9049C15 14.3507 14.8456 14.7279 14.5368 15.0368C14.2279 15.3456 13.8507 15.5 13.4049 15.5H1.59507Z" fill="#343A40"/>
</svg>
