<svg width="16" height="16" viewBox="0 0 16 16" fill="none" xmlns="http://www.w3.org/2000/svg">
<path d="M7.02206 14.4497C7.62271 13.3913 8.38008 12.663 9.29417 12.2645C10.2083 11.8659 10.999 11.6667 11.6665 11.6667C11.9475 11.6667 12.2139 11.686 12.4656 11.7247C12.7174 11.7633 12.965 11.8181 13.2083 11.8891C13.5656 11.4253 13.8733 10.8555 14.1313 10.1796C14.3893 9.50373 14.5184 8.77719 14.5184 7.99999C14.5184 6.18024 13.8869 4.63888 12.6239 3.37592C11.3609 2.11295 9.81959 1.48147 7.99984 1.48147C6.18008 1.48147 4.63873 2.11295 3.37576 3.37592C2.1128 4.63888 1.48132 6.18024 1.48132 7.99999C1.48132 8.70508 1.58555 9.36997 1.794 9.99466C2.00232 10.6193 2.28357 11.1903 2.63774 11.7074C3.15271 11.4044 3.66978 11.1861 4.18895 11.0525C4.70812 10.9187 5.25242 10.8518 5.82184 10.8518C6.16229 10.8518 6.49365 10.8787 6.81591 10.9325C7.13831 10.9863 7.40237 11.043 7.60811 11.1026C7.45249 11.2028 7.31118 11.3041 7.18421 11.4065C7.05737 11.5089 6.92917 11.6249 6.79961 11.7545C6.69926 11.7273 6.55483 11.7058 6.36634 11.6901C6.17771 11.6745 5.99621 11.6667 5.82184 11.6667C5.35549 11.6667 4.89288 11.7246 4.434 11.8406C3.97499 11.9566 3.54857 12.1305 3.15474 12.3623C3.66251 12.9327 4.24986 13.3926 4.91678 13.742C5.58384 14.0915 6.2856 14.3274 7.02206 14.4497ZM8.00249 15.3333C6.98845 15.3333 6.03505 15.1409 5.14228 14.756C4.24965 14.3712 3.47313 13.8489 2.81273 13.1891C2.15232 12.5294 1.62955 11.7536 1.24441 10.8616C0.85914 9.9698 0.666504 9.01681 0.666504 8.00264C0.666504 6.9886 0.858936 6.0352 1.2438 5.14243C1.62866 4.2498 2.15096 3.47329 2.81069 2.81288C3.47042 2.15247 4.24626 1.6297 5.13821 1.24456C6.03002 0.859292 6.98302 0.666656 7.99719 0.666656C9.01123 0.666656 9.96463 0.859089 10.8574 1.24395C11.75 1.62882 12.5265 2.15111 13.1869 2.81084C13.8474 3.47057 14.3701 4.24641 14.7553 5.13836C15.1405 6.03018 15.3332 6.98317 15.3332 7.99734C15.3332 9.01138 15.1407 9.96478 14.7559 10.8575C14.371 11.7502 13.8487 12.5267 13.189 13.1871C12.5293 13.8475 11.7534 14.3703 10.8615 14.7554C9.96965 15.1407 9.01666 15.3333 8.00249 15.3333ZM5.9628 8.8148C5.27958 8.8148 4.7014 8.57817 4.22826 8.1049C3.75499 7.63176 3.51836 7.05358 3.51836 6.37036C3.51836 5.68714 3.75499 5.10896 4.22826 4.63582C4.7014 4.16255 5.27958 3.92592 5.9628 3.92592C6.64602 3.92592 7.2242 4.16255 7.69734 4.63582C8.17061 5.10896 8.40724 5.68714 8.40724 6.37036C8.40724 7.05358 8.17061 7.63176 7.69734 8.1049C7.2242 8.57817 6.64602 8.8148 5.9628 8.8148ZM5.9628 7.99999C6.40674 7.99999 6.78936 7.8394 7.11067 7.51823C7.43184 7.19692 7.59243 6.8143 7.59243 6.37036C7.59243 5.92642 7.43184 5.5438 7.11067 5.22249C6.78936 4.90132 6.40674 4.74073 5.9628 4.74073C5.51886 4.74073 5.13624 4.90132 4.81493 5.22249C4.49376 5.5438 4.33317 5.92642 4.33317 6.37036C4.33317 6.8143 4.49376 7.19692 4.81493 7.51823C5.13624 7.8394 5.51886 7.99999 5.9628 7.99999ZM11.6665 9.94292C11.1225 9.94292 10.6627 9.7551 10.287 9.37947C9.91139 9.00384 9.72358 8.54401 9.72358 7.99999C9.72358 7.45597 9.91139 6.99614 10.287 6.62051C10.6627 6.24488 11.1225 6.05706 11.6665 6.05706C12.2105 6.05706 12.6704 6.24488 13.046 6.62051C13.4216 6.99614 13.6094 7.45597 13.6094 7.99999C13.6094 8.54401 13.4216 9.00384 13.046 9.37947C12.6704 9.7551 12.2105 9.94292 11.6665 9.94292Z" fill="#343A40"/>
</svg>
