<svg width="16" height="15" viewBox="0 0 16 15" fill="none" xmlns="http://www.w3.org/2000/svg">
<path d="M0.886992 3.71079H15.0789V1.76628C15.0789 1.62968 15.022 1.50454 14.9083 1.39086C14.7947 1.27718 14.6695 1.22034 14.5329 1.22034H1.43294C1.29634 1.22034 1.1712 1.27718 1.05752 1.39086C0.943833 1.50454 0.886992 1.62968 0.886992 1.76628V3.71079ZM0 1.76628C0 1.35797 0.136745 1.01707 0.410234 0.743577C0.683723 0.470088 1.02462 0.333344 1.43294 0.333344H14.5329C14.9412 0.333344 15.2821 0.470088 15.5556 0.743577C15.8291 1.01707 15.9659 1.35797 15.9659 1.76628V5.82582H0.886992V11.3183C0.886992 11.4549 0.943833 11.58 1.05752 11.6937C1.1712 11.8074 1.29634 11.8642 1.43294 11.8642H5.5641V12.7512H1.43294C1.02462 12.7512 0.683723 12.6145 0.410234 12.341C0.136745 12.0675 0 11.7266 0 11.3183V1.76628ZM10.3266 14.1159L7.17089 10.9602L7.79865 10.3324L10.3266 12.8501L15.3722 7.80448L16 8.44244L10.3266 14.1159ZM0.886992 1.76628V11.3183C0.886992 11.4549 0.943833 11.58 1.05752 11.6937C1.1712 11.8074 1.29634 11.8642 1.43294 11.8642H0.886992V7.82155V10.3444V1.22034H1.43294C1.29634 1.22034 1.1712 1.27718 1.05752 1.39086C0.943833 1.50454 0.886992 1.62968 0.886992 1.76628Z" fill="#343A40"/>
</svg>
