<svg width="16" height="16" viewBox="0 0 16 16" fill="none" xmlns="http://www.w3.org/2000/svg">
<g clip-path="url(#clip0_4019_7635)">
<path d="M6.22222 12.2907L11.1796 9.1111L6.22222 5.93155V12.2907ZM1.436 14.8889C1.02681 14.8889 0.685185 14.7518 0.411111 14.4778C0.137037 14.2037 0 13.8621 0 13.4529V3.33332H5.33333V2.10243C5.33333 1.6934 5.47037 1.35184 5.74444 1.07777C6.01852 0.803694 6.36015 0.666656 6.76933 0.666656H9.23067C9.63985 0.666656 9.98148 0.803694 10.2556 1.07777C10.5296 1.35184 10.6667 1.6934 10.6667 2.10243V3.33332H16V13.4529C16 13.8621 15.863 14.2037 15.5889 14.4778C15.3148 14.7518 14.9732 14.8889 14.564 14.8889H1.436ZM1.436 14H14.564C14.7009 14 14.8263 13.943 14.9402 13.8291C15.0541 13.7152 15.1111 13.5898 15.1111 13.4529V4.22221H0.888889V13.4529C0.888889 13.5898 0.945852 13.7152 1.05978 13.8291C1.1737 13.943 1.29911 14 1.436 14ZM6.22222 3.33332H9.77778V2.10243C9.77778 1.96569 9.72081 1.84036 9.60689 1.72643C9.49296 1.61251 9.36756 1.55555 9.23067 1.55555H6.76933C6.63244 1.55555 6.50704 1.61251 6.39311 1.72643C6.27919 1.84036 6.22222 1.96569 6.22222 2.10243V3.33332Z" fill="#343A40"/>
</g>
<defs>
<clipPath id="clip0_4019_7635">
<rect width="16" height="16" fill="white"/>
</clipPath>
</defs>
</svg>
