<svg width="16" height="14" viewBox="0 0 16 14" fill="none" xmlns="http://www.w3.org/2000/svg">
<path d="M1.77865 13.4013C1.47277 13.4013 1.21094 13.2924 0.993168 13.0746C0.775392 12.8568 0.666504 12.595 0.666504 12.2891C0.666504 11.9832 0.775392 11.7214 0.993168 11.5036C1.21094 11.2858 1.47277 11.177 1.77865 11.177C2.08453 11.177 2.34636 11.2858 2.56414 11.5036C2.78191 11.7214 2.8908 11.9832 2.8908 12.2891C2.8908 12.595 2.78191 12.8568 2.56414 13.0746C2.34636 13.2924 2.08453 13.4013 1.77865 13.4013ZM1.77865 7.97945C1.47277 7.97945 1.21094 7.87056 0.993168 7.65278C0.775392 7.43501 0.666504 7.17318 0.666504 6.8673C0.666504 6.56142 0.775392 6.29959 0.993168 6.08181C1.21094 5.86404 1.47277 5.75515 1.77865 5.75515C2.08453 5.75515 2.34636 5.86404 2.56414 6.08181C2.78191 6.29959 2.8908 6.56142 2.8908 6.8673C2.8908 7.17318 2.78191 7.43501 2.56414 7.65278C2.34636 7.87056 2.08453 7.97945 1.77865 7.97945ZM1.77865 2.55764C1.47277 2.55764 1.21094 2.44875 0.993168 2.23098C0.775392 2.0132 0.666504 1.75137 0.666504 1.44549C0.666504 1.13961 0.775392 0.877783 0.993168 0.660007C1.21094 0.442231 1.47277 0.333344 1.77865 0.333344C2.08453 0.333344 2.34636 0.442231 2.56414 0.660007C2.78191 0.877783 2.8908 1.13961 2.8908 1.44549C2.8908 1.75137 2.78191 2.0132 2.56414 2.23098C2.34636 2.44875 2.08453 2.55764 1.77865 2.55764ZM7.20046 2.55764C6.89458 2.55764 6.63275 2.44875 6.41498 2.23098C6.1972 2.0132 6.08831 1.75137 6.08831 1.44549C6.08831 1.13961 6.1972 0.877783 6.41498 0.660007C6.63275 0.442231 6.89458 0.333344 7.20046 0.333344C7.50634 0.333344 7.76817 0.442231 7.98594 0.660007C8.20372 0.877783 8.31261 1.13961 8.31261 1.44549C8.31261 1.75137 8.20372 2.0132 7.98594 2.23098C7.76817 2.44875 7.50634 2.55764 7.20046 2.55764ZM12.6223 2.55764C12.3164 2.55764 12.0546 2.44875 11.8368 2.23098C11.619 2.0132 11.5101 1.75137 11.5101 1.44549C11.5101 1.13961 11.619 0.877783 11.8368 0.660007C12.0546 0.442231 12.3164 0.333344 12.6223 0.333344C12.9281 0.333344 13.19 0.442231 13.4078 0.660007C13.6255 0.877783 13.7344 1.13961 13.7344 1.44549C13.7344 1.75137 13.6255 2.0132 13.4078 2.23098C13.19 2.44875 12.9281 2.55764 12.6223 2.55764ZM7.20046 7.97945C6.89458 7.97945 6.63275 7.87056 6.41498 7.65278C6.1972 7.43501 6.08831 7.17318 6.08831 6.8673C6.08831 6.56142 6.1972 6.29959 6.41498 6.08181C6.63275 5.86404 6.89458 5.75515 7.20046 5.75515C7.50634 5.75515 7.76817 5.86404 7.98594 6.08181C8.20372 6.29959 8.31261 6.56142 8.31261 6.8673C8.31261 7.17318 8.20372 7.43501 7.98594 7.65278C7.76817 7.87056 7.50634 7.97945 7.20046 7.97945ZM8.31261 13.4013V11.4047L13.1315 6.60841C13.2206 6.51925 13.3126 6.45901 13.4075 6.42768C13.5024 6.39636 13.5973 6.38069 13.6922 6.38069C13.7956 6.38069 13.8973 6.40012 13.9971 6.43898C14.0971 6.47783 14.188 6.53604 14.2696 6.6136L15.1055 7.46686C15.1797 7.55602 15.2362 7.64872 15.2749 7.74495C15.3137 7.84104 15.3332 7.9372 15.3332 8.03344C15.3332 8.12953 15.3146 8.22652 15.2776 8.32441C15.2405 8.4223 15.1832 8.51583 15.1055 8.60499L10.3094 13.4013H8.31261ZM9.1121 12.602H9.97055L13.1037 9.46344L12.6796 9.03422L12.2678 8.59279L9.1121 11.7435V12.602ZM12.6796 9.03422L12.2678 8.59279L13.1037 9.46344L12.6796 9.03422Z" fill="#343A40"/>
</svg>
