<svg width="16" height="14" viewBox="0 0 16 14" fill="none" xmlns="http://www.w3.org/2000/svg">
<path d="M0.962393 5.22223V1.76934C0.962393 1.36016 1.08294 1.01853 1.32405 0.744455C1.56515 0.470381 1.86568 0.333344 2.22564 0.333344H13.7744C14.1343 0.333344 14.4349 0.470381 14.676 0.744455C14.9171 1.01853 15.0376 1.36016 15.0376 1.76934V5.22223H14.2557V1.76934C14.2557 1.6326 14.2055 1.5072 14.1053 1.39312C14.0051 1.2792 13.8948 1.22223 13.7744 1.22223H2.22564C2.10522 1.22223 1.9949 1.2792 1.89468 1.39312C1.79446 1.5072 1.74435 1.6326 1.74435 1.76934V5.22223H0.962393ZM2.22564 11.8889C1.86568 11.8889 1.56515 11.7519 1.32405 11.4778C1.08294 11.2037 0.962393 10.8622 0.962393 10.4531V6.11112H1.74435V10.4531C1.74435 10.5899 1.79446 10.7152 1.89468 10.8291C1.9949 10.943 2.10522 11 2.22564 11H13.7744C13.8948 11 14.0051 10.943 14.1053 10.8291C14.2055 10.7152 14.2557 10.5899 14.2557 10.4531V6.11112H15.0376V10.4531C15.0376 10.8622 14.9171 11.2037 14.676 11.4778C14.4349 11.7519 14.1343 11.8889 13.7744 11.8889H2.22564ZM0 13.6667V12.7778H16V13.6667H0ZM0.962393 6.11112V5.22223H4.87218C4.94542 5.22223 5.01462 5.24386 5.07978 5.28712C5.14495 5.33053 5.19506 5.39208 5.23012 5.47179L6.49473 8.34201L9.21497 2.7949C9.25015 2.7186 9.29883 2.66534 9.361 2.63512C9.42303 2.6049 9.49067 2.58979 9.56391 2.58979C9.63716 2.58979 9.70636 2.6049 9.77152 2.63512C9.83669 2.66534 9.8868 2.72201 9.92185 2.80512L10.9849 5.22223H15.0376V6.11112H10.8872C10.7739 6.11112 10.6646 6.07608 10.5593 6.00601C10.4542 5.93594 10.374 5.83653 10.3189 5.70779L9.52482 3.91468L6.78953 9.42734C6.75434 9.5072 6.70417 9.56705 6.63901 9.6069C6.57384 9.64675 6.5047 9.66668 6.43159 9.66668C6.35835 9.66668 6.28993 9.64505 6.22633 9.60179C6.1626 9.55853 6.11321 9.49697 6.07815 9.41712L4.6241 6.11112H0.962393Z" fill="#343A40"/>
</svg>
