<svg width="16" height="14" viewBox="0 0 16 14" fill="none" xmlns="http://www.w3.org/2000/svg">
<path d="M2.14738 13.6666C1.73717 13.6666 1.38777 13.5355 1.09917 13.2733C0.810726 13.011 0.666504 12.6933 0.666504 12.3204V1.67956C0.666504 1.30665 0.810726 0.989008 1.09917 0.726646C1.38777 0.464424 1.73717 0.333313 2.14738 0.333313H13.8523C14.2625 0.333313 14.6119 0.464424 14.9005 0.726646C15.1889 0.989008 15.3332 1.30665 15.3332 1.67956V12.3204C15.3332 12.6933 15.1889 13.011 14.9005 13.2733C14.6119 13.5355 14.2625 13.6666 13.8523 13.6666H2.14738ZM2.14738 12.8333H13.8523C14.0168 12.8333 14.152 12.7853 14.2579 12.6891C14.3636 12.5929 14.4165 12.47 14.4165 12.3204V2.83331H1.58317V12.3204C1.58317 12.47 1.63603 12.5929 1.74175 12.6891C1.84763 12.7853 1.98284 12.8333 2.14738 12.8333ZM3.4165 6.58331V5.74998H12.5832V6.58331H3.4165ZM3.4165 9.91665V9.08331H8.9165V9.91665H3.4165Z" fill="#343A40"/>
</svg>
