<svg width="16" height="16" viewBox="0 0 16 16" fill="none" xmlns="http://www.w3.org/2000/svg">
<path d="M0.666504 15.336V2.47985L4.22666 0L7.78682 2.47985V5.05107H15.3332V15.336H0.666504ZM1.45765 14.5448H3.83109V12.1714H1.45765V14.5448ZM1.45765 11.3802H3.83109V9.0068H1.45765V11.3802ZM1.45765 8.21566H3.83109V5.84222H1.45765V8.21566ZM1.45765 5.05107H3.83109V2.67763H1.45765V5.05107ZM4.62224 5.05107H6.99567V2.67763H4.62224V5.05107ZM4.62224 14.5448H14.542V5.84222H4.62224V14.5448ZM9.67351 9.0068V8.21566H12.3511V9.0068H9.67351ZM9.67351 12.1714V11.3802H12.3511V12.1714H9.67351ZM6.99567 9.0068V8.21566H7.78682V9.0068H6.99567ZM6.99567 12.1714V11.3802H7.78682V12.1714H6.99567Z" fill="#343A40"/>
</svg>
