<svg width="16" height="16" viewBox="0 0 16 16" fill="none" xmlns="http://www.w3.org/2000/svg">
<path d="M12.0568 13.4823L14.4763 11.1003L13.9422 10.5662L12.0568 12.4255L11.2427 11.595L10.7086 12.134L12.0568 13.4823ZM3.02549 4.0299H11.9371V3.17805H3.02549V4.0299ZM12.5924 15.4317C11.6433 15.4317 10.8382 15.1011 10.177 14.4397C9.51568 13.7784 9.18502 12.9733 9.18502 12.0243C9.18502 11.0752 9.51568 10.27 10.177 9.60868C10.8382 8.9475 11.6433 8.61691 12.5924 8.61691C13.5415 8.61691 14.3467 8.9475 15.0079 9.60868C15.6692 10.27 15.9998 11.0752 15.9998 12.0243C15.9998 12.9733 15.6692 13.7784 15.0079 14.4397C14.3467 15.1011 13.5415 15.4317 12.5924 15.4317ZM0.666504 14.2849V1.37617C0.666504 0.994963 0.800529 0.670265 1.06858 0.402074C1.33677 0.134025 1.66147 0 2.04267 0H12.92C13.3012 0 13.6259 0.134025 13.8941 0.402074C14.1621 0.670265 14.2961 0.994963 14.2961 1.37617V6.43957C14.1574 6.38832 14.0198 6.34466 13.8834 6.3086C13.7468 6.27254 13.6005 6.24414 13.4443 6.22342V1.37617C13.4443 1.24498 13.3897 1.1248 13.2805 1.01562C13.1713 0.906441 13.0512 0.851852 12.92 0.851852H2.04267C1.91149 0.851852 1.7913 0.906441 1.68212 1.01562C1.57295 1.1248 1.51836 1.24498 1.51836 1.37617V12.8204H6.92272C6.96091 13.0529 7.01088 13.2807 7.07264 13.5036C7.13426 13.7263 7.22023 13.9387 7.33054 14.1407L7.30115 14.1701L6.33451 13.4659L5.18792 14.2849L4.04111 13.4659L2.89452 14.2849L1.74772 13.4659L0.666504 14.2849ZM3.02549 10.4516H7.03729C7.06895 10.2954 7.10828 10.149 7.15527 10.0125C7.20227 9.87601 7.25686 9.73844 7.31904 9.59973H3.02549V10.4516ZM3.02549 7.24074H9.25381C9.53123 7.02125 9.82909 6.83803 10.1474 6.69108C10.4659 6.54428 10.8058 6.44355 11.1673 6.38889H3.02549V7.24074Z" fill="#343A40"/>
</svg>
