<svg width="16" height="16" viewBox="0 0 16 16" fill="none" xmlns="http://www.w3.org/2000/svg">
<g clip-path="url(#clip0_4019_8033)">
<path d="M7.99984 16L0.666504 12V4L7.99984 0L15.3332 4V12L7.99984 16ZM5.58092 6.18784C5.87842 5.82645 6.23732 5.54289 6.65762 5.33715C7.07792 5.13142 7.52533 5.02855 7.99984 5.02855C8.47435 5.02855 8.92175 5.13142 9.34205 5.33715C9.76235 5.54289 10.1213 5.82645 10.4188 6.18784L13.9694 4.24323L7.99984 0.972938L2.03029 4.24323L5.58092 6.18784ZM7.56846 14.7887V10.9634C6.82521 10.8305 6.20799 10.4871 5.7168 9.93314C5.22575 9.37904 4.98023 8.73466 4.98023 8C4.98023 7.81167 4.99569 7.63395 5.0266 7.46684C5.05766 7.29987 5.10583 7.12929 5.17111 6.95511L1.52925 4.94683V11.4923L7.56846 14.7887ZM7.99984 10.1225C8.60707 10.1225 9.11839 9.91814 9.5338 9.5095C9.94907 9.10071 10.1567 8.59755 10.1567 8C10.1567 7.40246 9.94907 6.89929 9.5338 6.4905C9.11839 6.08186 8.60707 5.87753 7.99984 5.87753C7.39261 5.87753 6.88129 6.08186 6.46588 6.4905C6.05061 6.89929 5.84297 7.40246 5.84297 8C5.84297 8.59755 6.05061 9.10071 6.46588 9.5095C6.88129 9.91814 7.39261 10.1225 7.99984 10.1225ZM8.43121 14.7887L14.4704 11.4923V4.94683L10.8286 6.95511C10.8938 7.12929 10.942 7.29987 10.9731 7.46684C11.004 7.63395 11.0194 7.81167 11.0194 8C11.0194 8.73466 10.7739 9.37904 10.2829 9.93314C9.79169 10.4871 9.17446 10.8305 8.43121 10.9634V14.7887Z" fill="#343A40"/>
</g>
<defs>
<clipPath id="clip0_4019_8033">
<rect width="16" height="16" fill="white"/>
</clipPath>
</defs>
</svg>
