<svg width="20" height="20" viewBox="0 0 20 20" fill="none" xmlns="http://www.w3.org/2000/svg">
<path d="M8.75 13.2885V4.8885L6.28475 7.35375L5.23075 6.26925L9.5 2L13.7693 6.26925L12.7153 7.35375L10.25 4.8885V13.2885H8.75ZM3.80775 17C3.30258 17 2.875 16.825 2.525 16.475C2.175 16.125 2 15.6974 2 15.1923V12.4808H3.5V15.1923C3.5 15.2692 3.53208 15.3398 3.59625 15.4038C3.66025 15.4679 3.73075 15.5 3.80775 15.5H15.1923C15.2692 15.5 15.3398 15.4679 15.4038 15.4038C15.4679 15.3398 15.5 15.2692 15.5 15.1923V12.4808H17V15.1923C17 15.6974 16.825 16.125 16.475 16.475C16.125 16.825 15.6974 17 15.1923 17H3.80775Z" fill="#586068"/>
</svg>
