<svg width="19" height="19" viewBox="0 0 19 19" fill="none" xmlns="http://www.w3.org/2000/svg">
<path d="M3.37382 15.2892C4.27104 14.6437 5.22306 14.1333 6.22989 13.7578C7.23671 13.3822 8.32675 13.1944 9.5 13.1944C10.6733 13.1944 11.7633 13.3822 12.7701 13.7578C13.7769 14.1333 14.729 14.6437 15.6262 15.2892C16.3232 14.5679 16.8838 13.7161 17.3079 12.7337C17.7323 11.7511 17.9444 10.6733 17.9444 9.5C17.9444 7.16019 17.122 5.16782 15.4771 3.52292C13.8322 1.87801 11.8398 1.05556 9.5 1.05556C7.16019 1.05556 5.16782 1.87801 3.52292 3.52292C1.87801 5.16782 1.05556 7.16019 1.05556 9.5C1.05556 10.6733 1.26772 11.7511 1.69206 12.7337C2.11621 13.7161 2.6768 14.5679 3.37382 15.2892ZM9.5 10.0278C8.61087 10.0278 7.86081 9.72228 7.24982 9.11129C6.63883 8.5003 6.33333 7.75024 6.33333 6.86111C6.33333 5.97198 6.63883 5.22192 7.24982 4.61093C7.86081 3.99994 8.61087 3.69444 9.5 3.69444C10.3891 3.69444 11.1392 3.99994 11.7502 4.61093C12.3612 5.22192 12.6667 5.97198 12.6667 6.86111C12.6667 7.75024 12.3612 8.5003 11.7502 9.11129C11.1392 9.72228 10.3891 10.0278 9.5 10.0278ZM9.5 19C8.1751 19 6.93482 18.7534 5.77917 18.2601C4.62351 17.7668 3.618 17.0925 2.76265 16.2373C1.90748 15.382 1.23324 14.3765 0.739944 13.2208C0.246648 12.0652 0 10.8249 0 9.5C0 8.1751 0.246648 6.93482 0.739944 5.77917C1.23324 4.62351 1.90748 3.618 2.76265 2.76265C3.618 1.90748 4.62351 1.23324 5.77917 0.739944C6.93482 0.246648 8.1751 0 9.5 0C10.8249 0 12.0652 0.246648 13.2208 0.739944C14.3765 1.23324 15.382 1.90748 16.2373 2.76265C17.0925 3.618 17.7668 4.62351 18.2601 5.77917C18.7534 6.93482 19 8.1751 19 9.5C19 10.8249 18.7534 12.0652 18.2601 13.2208C17.7668 14.3765 17.0925 15.382 16.2373 16.2373C15.382 17.0925 14.3765 17.7668 13.2208 18.2601C12.0652 18.7534 10.8249 19 9.5 19Z" fill="#5F6368"/>
</svg>
